SplineFontDB: 3.0
FontName: Waree
FullName: Waree
FamilyName: Waree
Weight: Book
Copyright: Copyright (c) 2003 by Bitstream, Inc. All Rights Reserved.\n\nTLWG changes are in public domain.
Version: 0.11.8: 2012-02-14
ItalicAngle: 0
UnderlinePosition: -190
UnderlineWidth: 20
Ascent: 1638
Descent: 410
InvalidEm: 0
sfntRevision: 0x00001c28
LayerCount: 2
Layer: 0 1 "Back" 1
Layer: 1 1 "Fore" 0
XUID: [1021 542 582384140 6989932]
StyleMap: 0x0040
FSType: 0
OS2Version: 1
OS2_WeightWidthSlopeOnly: 0
OS2_UseTypoMetrics: 0
CreationTime: 1153662374
ModificationTime: 1465925598
PfmFamily: 17
TTFWeight: 400
TTFWidth: 5
LineGap: 0
VLineGap: 0
Panose: 2 11 5 4 2 2 2 2 2 4
OS2TypoAscent: 1638
OS2TypoAOffset: 0
OS2TypoDescent: -410
OS2TypoDOffset: 0
OS2TypoLinegap: 0
OS2WinAscent: 2524
OS2WinAOffset: 0
OS2WinDescent: 882
OS2WinDOffset: 0
HheadAscent: 2524
HheadAOffset: 0
HheadDescent: -882
HheadDOffset: 0
OS2SubXSize: 1331
OS2SubYSize: 1433
OS2SubXOff: -219
OS2SubYOff: 286
OS2SupXSize: 1331
OS2SupYSize: 1433
OS2SupXOff: 753
OS2SupYOff: 983
OS2StrikeYSize: 102
OS2StrikeYPos: 530
OS2Vendor: 'PfEd'
OS2CodePages: 20010011.00000000
OS2UnicodeRanges: 810000af.5000204b.00000000.00000000
Lookup: 4 0 1 "'liga' Standard Ligatures in Latin lookup 0" { "'liga' Standard Ligatures in Latin lookup 0 subtable"  } ['liga' ('latn' <'dflt' > ) ]
Lookup: 4 0 0 "'frac' Diagonal Fractions in Latin lookup 1" { "'frac' Diagonal Fractions in Latin lookup 1 subtable"  } ['frac' ('latn' <'dflt' > ) ]
Lookup: 6 0 0 "'ccmp' Glyph Composition/Decomposition in Thai lookup 2" { "'ccmp' Glyph Composition/Decomposition in Thai lookup 2 subtable"  } ['ccmp' ('DFLT' <'dflt' > 'thai' <'KUY ' 'THA ' 'dflt' > ) ]
Lookup: 1 0 0 "'ccmp' Glyph Composition/Decomposition in Thai lookup 3" { "'ccmp' Glyph Composition/Decomposition in Thai lookup 3 subtable"  } ['ccmp' ('thai' <'PAL ' 'SAN ' > ) ]

StartChar: .notdef
Encoding: 65536 -1 0
Width: 1229
Flags: W
LayerCount: 2
Fore
SplineSet
102 -362 m 1,0,-1
 102 1444 l 1,1,-1
 1126 1444 l 1,2,-1
 1126 -362 l 1,3,-1
 102 -362 l 1,0,-1
217 -248 m 1,4,-1
 1012 -248 l 1,5,-1
 1012 1329 l 1,6,-1
 217 1329 l 1,7,-1
 217 -248 l 1,4,-1
EndSplineSet
EndChar

StartChar: exclam
Encoding: 33 33 5
Width: 821
GlyphClass: 2
Flags: W
LayerCount: 2
Fore
SplineSet
309 254 m 1,0,-1
 512 254 l 1,1,-1
 512 0 l 1,2,-1
 309 0 l 1,3,-1
 309 254 l 1,0,-1
309 1493 m 1,4,-1
 512 1493 l 1,5,-1
 512 838 l 1,6,-1
 492 481 l 1,7,-1
 330 481 l 1,8,-1
 309 838 l 1,9,-1
 309 1493 l 1,4,-1
EndSplineSet
EndChar

StartChar: quotedbl
Encoding: 34 34 6
Width: 942
GlyphClass: 2
Flags: W
LayerCount: 2
Fore
SplineSet
367 1493 m 1,0,-1
 367 938 l 1,1,-1
 197 938 l 1,2,-1
 197 1493 l 1,3,-1
 367 1493 l 1,0,-1
745 1493 m 1,4,-1
 745 938 l 1,5,-1
 575 938 l 1,6,-1
 575 1493 l 1,7,-1
 745 1493 l 1,4,-1
EndSplineSet
EndChar

StartChar: numbersign
Encoding: 35 35 7
Width: 1716
GlyphClass: 2
Flags: W
LayerCount: 2
Fore
SplineSet
1047 901 m 1,0,-1
 756 901 l 1,1,-1
 672 567 l 1,2,-1
 965 567 l 1,3,-1
 1047 901 l 1,0,-1
897 1470 m 1,4,-1
 793 1055 l 1,5,-1
 1085 1055 l 1,6,-1
 1190 1470 l 1,7,-1
 1350 1470 l 1,8,-1
 1247 1055 l 1,9,-1
 1559 1055 l 1,10,-1
 1559 901 l 1,11,-1
 1208 901 l 1,12,-1
 1126 567 l 1,13,-1
 1444 567 l 1,14,-1
 1444 414 l 1,15,-1
 1087 414 l 1,16,-1
 983 0 l 1,17,-1
 823 0 l 1,18,-1
 926 414 l 1,19,-1
 633 414 l 1,20,-1
 530 0 l 1,21,-1
 369 0 l 1,22,-1
 473 414 l 1,23,-1
 158 414 l 1,24,-1
 158 567 l 1,25,-1
 510 567 l 1,26,-1
 594 901 l 1,27,-1
 272 901 l 1,28,-1
 272 1055 l 1,29,-1
 633 1055 l 1,30,-1
 735 1470 l 1,31,-1
 897 1470 l 1,4,-1
EndSplineSet
EndChar

StartChar: dollar
Encoding: 36 36 8
Width: 1303
GlyphClass: 2
Flags: W
LayerCount: 2
Fore
SplineSet
1133 381 m 0,0,1
 1133 211 1133 211 1019.5 114 c 128,-1,2
 906 17 906 17 692 2 c 1,3,-1
 692 -301 l 1,4,-1
 592 -301 l 1,5,-1
 592 0 l 1,6,7
 380 3 380 3 170 92 c 1,8,-1
 170 272 l 1,9,10
 373 144 373 144 592 142 c 1,11,-1
 592 598 l 1,12,13
 380 632 380 632 275 716 c 128,-1,14
 170 800 170 800 170 956 c 0,15,16
 170 1120 170 1120 278.5 1213.5 c 128,-1,17
 387 1307 387 1307 592 1321 c 1,18,-1
 592 1556 l 1,19,-1
 692 1556 l 1,20,-1
 692 1324 l 1,21,22
 875 1316 875 1316 1042 1262 c 1,23,-1
 1042 1087 l 1,24,25
 878 1170 878 1170 692 1179 c 1,26,-1
 692 752 l 1,27,28
 911 718 911 718 1022 630.5 c 128,-1,29
 1133 543 1133 543 1133 381 c 0,0,1
592 1180 m 1,30,31
 484 1168 484 1168 419 1117.5 c 128,-1,32
 354 1067 354 1067 354 973 c 0,33,34
 354 885 354 885 413 837.5 c 128,-1,35
 472 790 472 790 592 770 c 1,36,-1
 592 1180 l 1,30,31
692 145 m 1,37,38
 948 180 948 180 948 362 c 0,39,40
 948 455 948 455 883 505 c 128,-1,41
 818 555 818 555 692 578 c 1,42,-1
 692 145 l 1,37,38
EndSplineSet
EndChar

StartChar: percent
Encoding: 37 37 9
Width: 1946
GlyphClass: 2
Flags: W
LayerCount: 2
Fore
SplineSet
1673 377 m 128,-1,1
 1673 499 1673 499 1627 578 c 128,-1,2
 1581 657 1581 657 1489 657 c 0,3,4
 1395 657 1395 657 1349 578.5 c 128,-1,5
 1303 500 1303 500 1303 377 c 0,6,7
 1303 299 1303 299 1321.5 238 c 128,-1,8
 1340 177 1340 177 1383 137.5 c 128,-1,9
 1426 98 1426 98 1489 98 c 0,10,11
 1581 98 1581 98 1627 176.5 c 128,-1,0
 1673 255 1673 255 1673 377 c 128,-1,1
1143 377 m 0,12,13
 1143 561 1143 561 1234.5 672.5 c 128,-1,14
 1326 784 1326 784 1489 784 c 0,15,16
 1651 784 1651 784 1742 672.5 c 128,-1,17
 1833 561 1833 561 1833 377 c 128,-1,18
 1833 193 1833 193 1742 82 c 128,-1,19
 1651 -29 1651 -29 1489 -29 c 0,20,21
 1326 -29 1326 -29 1234.5 81.5 c 128,-1,22
 1143 192 1143 192 1143 377 c 0,12,13
643 1114 m 0,23,24
 643 1239 643 1239 595 1316 c 128,-1,25
 547 1393 547 1393 457 1393 c 128,-1,26
 367 1393 367 1393 319.5 1316 c 128,-1,27
 272 1239 272 1239 272 1114 c 0,28,29
 272 991 272 991 317.5 912.5 c 128,-1,30
 363 834 363 834 457 834 c 128,-1,31
 551 834 551 834 597 912.5 c 128,-1,32
 643 991 643 991 643 1114 c 0,23,24
1360 1520 m 1,33,-1
 1520 1520 l 1,34,-1
 586 -29 l 1,35,-1
 426 -29 l 1,36,-1
 1360 1520 l 1,33,-1
113 1114 m 0,37,38
 113 1297 113 1297 204 1408.5 c 128,-1,39
 295 1520 295 1520 457 1520 c 128,-1,40
 619 1520 619 1520 711 1409 c 128,-1,41
 803 1298 803 1298 803 1114 c 0,42,43
 803 929 803 929 712 818 c 128,-1,44
 621 707 621 707 457 707 c 0,45,46
 294 707 294 707 203.5 818 c 128,-1,47
 113 929 113 929 113 1114 c 0,37,38
EndSplineSet
EndChar

StartChar: ampersand
Encoding: 38 38 10
Width: 1597
GlyphClass: 2
Flags: W
LayerCount: 2
Fore
SplineSet
322 473 m 0,0,1
 322 326 322 326 427.5 229.5 c 128,-1,2
 533 133 533 133 694 133 c 0,3,4
 884 133 884 133 1028 260 c 1,5,-1
 498 803 l 1,6,7
 322 647 322 647 322 473 c 0,0,1
725 1362 m 0,8,9
 620 1362 620 1362 554.5 1307 c 128,-1,10
 489 1252 489 1252 489 1163 c 0,11,12
 489 1105 489 1105 525 1050.5 c 128,-1,13
 561 996 561 996 639 915 c 2,14,-1
 1147 395 l 1,15,16
 1266 573 1266 573 1278 801 c 1,17,-1
 1464 801 l 1,18,19
 1440 534 1440 534 1255 285 c 1,20,-1
 1534 0 l 1,21,-1
 1282 0 l 1,22,-1
 1139 147 l 1,23,24
 934 -29 934 -29 676 -29 c 0,25,26
 435 -29 435 -29 282 106.5 c 128,-1,27
 129 242 129 242 129 461 c 0,28,29
 129 716 129 716 397 913 c 1,30,31
 299 1041 299 1041 299 1161 c 0,32,33
 299 1323 299 1323 409 1421.5 c 128,-1,34
 519 1520 519 1520 705 1520 c 0,35,36
 868 1520 868 1520 1038 1448 c 1,37,-1
 1038 1266 l 1,38,39
 859 1362 859 1362 725 1362 c 0,8,9
EndSplineSet
EndChar

StartChar: quotesingle
Encoding: 39 39 11
Width: 563
GlyphClass: 2
Flags: W
LayerCount: 2
Fore
SplineSet
367 1493 m 1,0,-1
 367 938 l 1,1,-1
 197 938 l 1,2,-1
 197 1493 l 1,3,-1
 367 1493 l 1,0,-1
EndSplineSet
EndChar

StartChar: parenleft
Encoding: 40 40 12
Width: 799
GlyphClass: 2
Flags: W
LayerCount: 2
Fore
SplineSet
176 643 m 0,0,1
 176 1085 176 1085 475 1554 c 1,2,-1
 635 1554 l 1,3,4
 371 1100 371 1100 371 643 c 0,5,6
 371 184 371 184 635 -270 c 1,7,-1
 475 -270 l 1,8,9
 176 200 176 200 176 643 c 0,0,1
EndSplineSet
EndChar

StartChar: parenright
Encoding: 41 41 13
Width: 799
GlyphClass: 2
Flags: W
LayerCount: 2
Fore
SplineSet
428 643 m 0,0,1
 428 1099 428 1099 164 1554 c 1,2,-1
 324 1554 l 1,3,4
 623 1084 623 1084 623 643 c 0,5,6
 623 200 623 200 324 -270 c 1,7,-1
 164 -270 l 1,8,9
 428 185 428 185 428 643 c 0,0,1
EndSplineSet
EndChar

StartChar: asterisk
Encoding: 42 42 14
Width: 1024
GlyphClass: 2
Flags: W
LayerCount: 2
Fore
SplineSet
963 1247 m 1,0,-1
 604 1053 l 1,1,-1
 963 858 l 1,2,-1
 905 760 l 1,3,-1
 569 963 l 1,4,-1
 569 586 l 1,5,-1
 455 586 l 1,6,-1
 455 963 l 1,7,-1
 119 760 l 1,8,-1
 61 858 l 1,9,-1
 420 1053 l 1,10,-1
 61 1247 l 1,11,-1
 119 1346 l 1,12,-1
 455 1143 l 1,13,-1
 455 1520 l 1,14,-1
 569 1520 l 1,15,-1
 569 1143 l 1,16,-1
 905 1346 l 1,17,-1
 963 1247 l 1,0,-1
EndSplineSet
EndChar

StartChar: plus
Encoding: 43 43 15
Width: 1716
GlyphClass: 2
Flags: W
LayerCount: 2
Fore
SplineSet
942 1284 m 1,0,-1
 942 727 l 1,1,-1
 1499 727 l 1,2,-1
 1499 557 l 1,3,-1
 942 557 l 1,4,-1
 942 0 l 1,5,-1
 774 0 l 1,6,-1
 774 557 l 1,7,-1
 217 557 l 1,8,-1
 217 727 l 1,9,-1
 774 727 l 1,10,-1
 774 1284 l 1,11,-1
 942 1284 l 1,0,-1
EndSplineSet
EndChar

StartChar: comma
Encoding: 44 44 16
Width: 651
GlyphClass: 2
Flags: W
LayerCount: 2
Fore
SplineSet
240 254 m 1,0,-1
 451 254 l 1,1,-1
 451 82 l 1,2,-1
 287 -238 l 1,3,-1
 158 -238 l 1,4,-1
 240 82 l 1,5,-1
 240 254 l 1,0,-1
EndSplineSet
EndChar

StartChar: hyphen
Encoding: 45 45 17
Width: 739
GlyphClass: 2
Flags: W
LayerCount: 2
Fore
SplineSet
100 643 m 1,0,-1
 639 643 l 1,1,-1
 639 479 l 1,2,-1
 100 479 l 1,3,-1
 100 643 l 1,0,-1
EndSplineSet
EndChar

StartChar: period
Encoding: 46 46 18
Width: 651
GlyphClass: 2
Flags: W
LayerCount: 2
Fore
SplineSet
219 254 m 1,0,-1
 430 254 l 1,1,-1
 430 0 l 1,2,-1
 219 0 l 1,3,-1
 219 254 l 1,0,-1
EndSplineSet
EndChar

StartChar: slash
Encoding: 47 47 19
Width: 690
GlyphClass: 2
Flags: W
LayerCount: 2
Fore
SplineSet
520 1493 m 1,0,-1
 690 1493 l 1,1,-1
 170 -190 l 1,2,-1
 0 -190 l 1,3,-1
 520 1493 l 1,0,-1
EndSplineSet
EndChar

StartChar: zero
Encoding: 48 48 20
Width: 1303
GlyphClass: 2
Flags: W
LayerCount: 2
Fore
SplineSet
965 745 m 0,0,1
 965 1360 965 1360 651 1360 c 0,2,3
 338 1360 338 1360 338 745 c 0,4,5
 338 131 338 131 651 131 c 0,6,7
 965 131 965 131 965 745 c 0,0,1
135 745 m 0,8,9
 135 884 135 884 153 998 c 128,-1,10
 171 1112 171 1112 201 1191 c 128,-1,11
 231 1270 231 1270 273.5 1330 c 128,-1,12
 316 1390 316 1390 361 1425.5 c 128,-1,13
 406 1461 406 1461 459 1483 c 128,-1,14
 512 1505 512 1505 557 1512.5 c 128,-1,15
 602 1520 602 1520 651 1520 c 0,16,17
 763 1520 763 1520 851.5 1480 c 128,-1,18
 940 1440 940 1440 998.5 1370.5 c 128,-1,19
 1057 1301 1057 1301 1095.5 1202 c 128,-1,20
 1134 1103 1134 1103 1150.5 990 c 128,-1,21
 1167 877 1167 877 1167 745 c 128,-1,22
 1167 613 1167 613 1150.5 501 c 128,-1,23
 1134 389 1134 389 1096 289.5 c 128,-1,24
 1058 190 1058 190 999.5 120.5 c 128,-1,25
 941 51 941 51 852.5 11 c 128,-1,26
 764 -29 764 -29 651 -29 c 0,27,28
 539 -29 539 -29 450.5 11 c 128,-1,29
 362 51 362 51 303.5 120 c 128,-1,30
 245 189 245 189 206.5 288.5 c 128,-1,31
 168 388 168 388 151.5 500.5 c 128,-1,32
 135 613 135 613 135 745 c 0,8,9
EndSplineSet
EndChar

StartChar: one
Encoding: 49 49 21
Width: 1303
GlyphClass: 2
Flags: W
LayerCount: 2
Fore
SplineSet
254 170 m 1,0,-1
 584 170 l 1,1,-1
 584 1309 l 1,2,-1
 225 1237 l 1,3,-1
 225 1421 l 1,4,-1
 582 1493 l 1,5,-1
 784 1493 l 1,6,-1
 784 170 l 1,7,-1
 1114 170 l 1,8,-1
 1114 0 l 1,9,-1
 254 0 l 1,10,-1
 254 170 l 1,0,-1
EndSplineSet
EndChar

StartChar: two
Encoding: 50 50 22
Width: 1303
GlyphClass: 2
Flags: W
LayerCount: 2
Fore
SplineSet
582 1520 m 0,0,1
 810 1520 810 1520 950 1407 c 128,-1,2
 1090 1294 1090 1294 1090 1094 c 0,3,4
 1090 1019 1090 1019 1071 955 c 128,-1,5
 1052 891 1052 891 1001.5 821 c 128,-1,6
 951 751 951 751 915 710 c 128,-1,7
 879 669 879 669 795 583 c 0,8,9
 779 566 779 566 771 558 c 2,10,-1
 393 170 l 1,11,-1
 1098 170 l 1,12,-1
 1098 0 l 1,13,-1
 150 0 l 1,14,-1
 150 170 l 1,15,-1
 464 490 l 2,16,17
 536 563 536 563 566.5 594 c 128,-1,18
 597 625 597 625 651 681.5 c 128,-1,19
 705 738 705 738 726.5 763.5 c 128,-1,20
 748 789 748 789 783 832 c 128,-1,21
 818 875 818 875 831 900 c 128,-1,22
 844 925 844 925 860.5 959 c 128,-1,23
 877 993 877 993 882 1021.5 c 128,-1,24
 887 1050 887 1050 887 1081 c 0,25,26
 887 1201 887 1201 803.5 1275.5 c 128,-1,27
 720 1350 720 1350 586 1350 c 0,28,29
 398 1350 398 1350 160 1217 c 1,30,-1
 160 1421 l 1,31,32
 408 1520 408 1520 582 1520 c 0,0,1
EndSplineSet
EndChar

StartChar: three
Encoding: 51 51 23
Width: 1303
GlyphClass: 2
Flags: W
LayerCount: 2
Fore
SplineSet
1104 1133 m 0,0,1
 1104 1002 1104 1002 1030 919.5 c 128,-1,2
 956 837 956 837 831 805 c 1,3,4
 972 775 972 775 1055.5 679 c 128,-1,5
 1139 583 1139 583 1139 434 c 0,6,7
 1139 317 1139 317 1096.5 228 c 128,-1,8
 1054 139 1054 139 976 83 c 128,-1,9
 898 27 898 27 792.5 -1 c 128,-1,10
 687 -29 687 -29 555 -29 c 0,11,12
 365 -29 365 -29 156 45 c 1,13,-1
 156 240 l 1,14,15
 327 141 327 141 549 141 c 0,16,17
 729 141 729 141 833.5 212 c 128,-1,18
 938 283 938 283 938 434 c 0,19,20
 938 571 938 571 843 643 c 128,-1,21
 748 715 748 715 588 715 c 2,22,-1
 414 715 l 1,23,-1
 414 881 l 1,24,-1
 596 881 l 2,25,26
 738 881 738 881 820.5 937.5 c 128,-1,27
 903 994 903 994 903 1112 c 0,28,29
 903 1233 903 1233 818 1291.5 c 128,-1,30
 733 1350 733 1350 588 1350 c 0,31,32
 420 1350 420 1350 201 1276 c 1,33,-1
 201 1456 l 1,34,35
 429 1520 429 1520 606 1520 c 0,36,37
 751 1520 751 1520 862 1477.5 c 128,-1,38
 973 1435 973 1435 1038.5 1346.5 c 128,-1,39
 1104 1258 1104 1258 1104 1133 c 0,0,1
EndSplineSet
EndChar

StartChar: four
Encoding: 52 52 24
Width: 1303
GlyphClass: 2
Flags: W
LayerCount: 2
Fore
SplineSet
774 1317 m 1,0,-1
 264 520 l 1,1,-1
 774 520 l 1,2,-1
 774 1317 l 1,0,-1
721 1493 m 1,3,-1
 975 1493 l 1,4,-1
 975 520 l 1,5,-1
 1188 520 l 1,6,-1
 1188 352 l 1,7,-1
 975 352 l 1,8,-1
 975 0 l 1,9,-1
 774 0 l 1,10,-1
 774 352 l 1,11,-1
 100 352 l 1,12,-1
 100 547 l 1,13,-1
 721 1493 l 1,3,-1
EndSplineSet
EndChar

StartChar: five
Encoding: 53 53 25
Width: 1303
GlyphClass: 2
Flags: W
LayerCount: 2
Fore
SplineSet
547 817 m 0,0,1
 385 817 385 817 221 743 c 1,2,-1
 221 1493 l 1,3,-1
 1014 1493 l 1,4,-1
 1014 1323 l 1,5,-1
 406 1323 l 1,6,-1
 406 957 l 1,7,8
 494 987 494 987 582 987 c 0,9,10
 833 987 833 987 978.5 851 c 128,-1,11
 1124 715 1124 715 1124 479 c 0,12,13
 1124 233 1124 233 972 102 c 128,-1,14
 820 -29 820 -29 551 -29 c 0,15,16
 365 -29 365 -29 158 35 c 1,17,-1
 158 238 l 1,18,19
 336 141 336 141 547 141 c 0,20,21
 719 141 719 141 820.5 231 c 128,-1,22
 922 321 922 321 922 479 c 128,-1,23
 922 637 922 637 820.5 727 c 128,-1,24
 719 817 719 817 547 817 c 0,0,1
EndSplineSet
EndChar

StartChar: six
Encoding: 54 54 26
Width: 1303
GlyphClass: 2
Flags: W
LayerCount: 2
Fore
SplineSet
971 479 m 0,0,1
 971 638 971 638 893.5 732.5 c 128,-1,2
 816 827 816 827 676 827 c 128,-1,3
 536 827 536 827 458.5 732.5 c 128,-1,4
 381 638 381 638 381 479 c 0,5,6
 381 321 381 321 458.5 226 c 128,-1,7
 536 131 536 131 676 131 c 128,-1,8
 816 131 816 131 893.5 226 c 128,-1,9
 971 321 971 321 971 479 c 0,0,1
762 1520 m 0,10,11
 911 1520 911 1520 1077 1460 c 1,12,-1
 1077 1276 l 1,13,14
 921 1350 921 1350 770 1350 c 0,15,16
 374 1350 374 1350 344 807 c 1,17,18
 399 889 399 889 486.5 938 c 128,-1,19
 574 987 574 987 688 987 c 0,20,21
 914 987 914 987 1044 851 c 128,-1,22
 1174 715 1174 715 1174 479 c 0,23,24
 1174 246 1174 246 1038 108.5 c 128,-1,25
 902 -29 902 -29 676 -29 c 0,26,27
 561 -29 561 -29 470.5 10 c 128,-1,28
 380 49 380 49 319 118 c 128,-1,29
 258 187 258 187 218 285.5 c 128,-1,30
 178 384 178 384 160.5 497.5 c 128,-1,31
 143 611 143 611 143 745 c 0,32,33
 143 913 143 913 183.5 1054 c 128,-1,34
 224 1195 224 1195 301 1299 c 128,-1,35
 378 1403 378 1403 496 1461.5 c 128,-1,36
 614 1520 614 1520 762 1520 c 0,10,11
EndSplineSet
EndChar

StartChar: seven
Encoding: 55 55 27
Width: 1303
GlyphClass: 2
Flags: W
LayerCount: 2
Fore
SplineSet
168 1493 m 1,0,-1
 1128 1493 l 1,1,-1
 1128 1407 l 1,2,-1
 586 0 l 1,3,-1
 375 0 l 1,4,-1
 885 1323 l 1,5,-1
 168 1323 l 1,6,-1
 168 1493 l 1,0,-1
EndSplineSet
EndChar

StartChar: eight
Encoding: 56 56 28
Width: 1303
GlyphClass: 2
Flags: W
LayerCount: 2
Fore
SplineSet
961 420 m 0,0,1
 961 557 961 557 878.5 633 c 128,-1,2
 796 709 796 709 651 709 c 0,3,4
 507 709 507 709 424.5 632.5 c 128,-1,5
 342 556 342 556 342 420 c 128,-1,6
 342 284 342 284 424.5 207.5 c 128,-1,7
 507 131 507 131 651 131 c 128,-1,8
 795 131 795 131 878 208 c 128,-1,9
 961 285 961 285 961 420 c 0,0,1
139 420 m 0,10,11
 139 569 139 569 223.5 665.5 c 128,-1,12
 308 762 308 762 449 795 c 1,13,14
 323 826 323 826 248.5 913 c 128,-1,15
 174 1000 174 1000 174 1133 c 0,16,17
 174 1319 174 1319 304.5 1419.5 c 128,-1,18
 435 1520 435 1520 651 1520 c 128,-1,19
 867 1520 867 1520 997.5 1419.5 c 128,-1,20
 1128 1319 1128 1319 1128 1133 c 0,21,22
 1128 1000 1128 1000 1053.5 913 c 128,-1,23
 979 826 979 826 854 795 c 1,24,25
 995 762 995 762 1079 665.5 c 128,-1,26
 1163 569 1163 569 1163 420 c 0,27,28
 1163 198 1163 198 1028.5 84.5 c 128,-1,29
 894 -29 894 -29 651 -29 c 128,-1,30
 408 -29 408 -29 273.5 84.5 c 128,-1,31
 139 198 139 198 139 420 c 0,10,11
651 1360 m 128,-1,33
 522 1360 522 1360 448.5 1296 c 128,-1,34
 375 1232 375 1232 375 1114 c 128,-1,35
 375 996 375 996 448.5 932 c 128,-1,36
 522 868 522 868 651 868 c 128,-1,37
 780 868 780 868 854 932 c 128,-1,38
 928 996 928 996 928 1114 c 128,-1,39
 928 1232 928 1232 854 1296 c 128,-1,32
 780 1360 780 1360 651 1360 c 128,-1,33
EndSplineSet
EndChar

StartChar: nine
Encoding: 57 57 29
Width: 1303
GlyphClass: 2
Flags: W
LayerCount: 2
Fore
SplineSet
541 -29 m 0,0,1
 392 -29 392 -29 225 31 c 1,2,-1
 225 215 l 1,3,4
 381 141 381 141 532 141 c 0,5,6
 643 141 643 141 724 181.5 c 128,-1,7
 805 222 805 222 853.5 297.5 c 128,-1,8
 902 373 902 373 926.5 467.5 c 128,-1,9
 951 562 951 562 958 684 c 1,10,11
 904 603 904 603 816.5 554.5 c 128,-1,12
 729 506 729 506 614 506 c 0,13,14
 389 506 389 506 259 641 c 128,-1,15
 129 776 129 776 129 1012 c 0,16,17
 129 1245 129 1245 265 1382.5 c 128,-1,18
 401 1520 401 1520 627 1520 c 0,19,20
 742 1520 742 1520 832.5 1480.5 c 128,-1,21
 923 1441 923 1441 983.5 1372.5 c 128,-1,22
 1044 1304 1044 1304 1084 1205 c 128,-1,23
 1124 1106 1124 1106 1141.5 992.5 c 128,-1,24
 1159 879 1159 879 1159 745 c 0,25,26
 1159 520 1159 520 1089.5 347 c 128,-1,27
 1020 174 1020 174 878.5 72.5 c 128,-1,28
 737 -29 737 -29 541 -29 c 0,0,1
332 1012 m 0,29,30
 332 853 332 853 409.5 758.5 c 128,-1,31
 487 664 487 664 627 664 c 128,-1,32
 767 664 767 664 844.5 758.5 c 128,-1,33
 922 853 922 853 922 1012 c 0,34,35
 922 1170 922 1170 844.5 1265 c 128,-1,36
 767 1360 767 1360 627 1360 c 128,-1,37
 487 1360 487 1360 409.5 1265 c 128,-1,38
 332 1170 332 1170 332 1012 c 0,29,30
EndSplineSet
EndChar

StartChar: colon
Encoding: 58 58 30
Width: 690
GlyphClass: 2
Flags: W
LayerCount: 2
Fore
SplineSet
240 254 m 1,0,-1
 451 254 l 1,1,-1
 451 0 l 1,2,-1
 240 0 l 1,3,-1
 240 254 l 1,0,-1
240 1059 m 1,4,-1
 451 1059 l 1,5,-1
 451 805 l 1,6,-1
 240 805 l 1,7,-1
 240 1059 l 1,4,-1
EndSplineSet
EndChar

StartChar: semicolon
Encoding: 59 59 31
Width: 690
GlyphClass: 2
Flags: W
LayerCount: 2
Fore
SplineSet
240 1059 m 1,0,-1
 451 1059 l 1,1,-1
 451 805 l 1,2,-1
 240 805 l 1,3,-1
 240 1059 l 1,0,-1
240 254 m 1,4,-1
 451 254 l 1,5,-1
 451 82 l 1,6,-1
 287 -238 l 1,7,-1
 158 -238 l 1,8,-1
 240 82 l 1,9,-1
 240 254 l 1,4,-1
EndSplineSet
EndChar

StartChar: less
Encoding: 60 60 32
Width: 1716
GlyphClass: 2
Flags: W
LayerCount: 2
Fore
SplineSet
1499 1008 m 1,0,-1
 467 641 l 1,1,-1
 1499 276 l 1,2,-1
 1499 94 l 1,3,-1
 217 559 l 1,4,-1
 217 725 l 1,5,-1
 1499 1190 l 1,6,-1
 1499 1008 l 1,0,-1
EndSplineSet
EndChar

StartChar: equal
Encoding: 61 61 33
Width: 1716
GlyphClass: 2
Flags: W
LayerCount: 2
Fore
SplineSet
217 930 m 1,0,-1
 1499 930 l 1,1,-1
 1499 762 l 1,2,-1
 217 762 l 1,3,-1
 217 930 l 1,0,-1
217 522 m 1,4,-1
 1499 522 l 1,5,-1
 1499 352 l 1,6,-1
 217 352 l 1,7,-1
 217 522 l 1,4,-1
EndSplineSet
EndChar

StartChar: greater
Encoding: 62 62 34
Width: 1716
GlyphClass: 2
Flags: W
LayerCount: 2
Fore
SplineSet
217 1008 m 1,0,-1
 217 1190 l 1,1,-1
 1499 725 l 1,2,-1
 1499 559 l 1,3,-1
 217 94 l 1,4,-1
 217 276 l 1,5,-1
 1247 641 l 1,6,-1
 217 1008 l 1,0,-1
EndSplineSet
EndChar

StartChar: question
Encoding: 63 63 35
Width: 1087
GlyphClass: 2
Flags: W
LayerCount: 2
Fore
SplineSet
391 254 m 1,0,-1
 594 254 l 1,1,-1
 594 0 l 1,2,-1
 391 0 l 1,3,-1
 391 254 l 1,0,-1
537 1520 m 0,4,5
 723 1520 723 1520 833.5 1423.5 c 128,-1,6
 944 1327 944 1327 944 1167 c 0,7,8
 944 1083 944 1083 903 1014 c 128,-1,9
 862 945 862 945 782 868 c 2,10,-1
 694 782 l 2,11,12
 621 709 621 709 604.5 669.5 c 128,-1,13
 588 630 588 630 588 524 c 2,14,-1
 588 401 l 1,15,-1
 397 401 l 1,16,-1
 397 555 l 2,17,18
 397 661 397 661 428 726 c 128,-1,19
 459 791 459 791 543 872 c 2,20,-1
 633 961 l 1,21,22
 741 1062 741 1062 741 1157 c 0,23,24
 741 1247 741 1247 675.5 1301.5 c 128,-1,25
 610 1356 610 1356 502 1356 c 0,26,27
 345 1356 345 1356 147 1219 c 1,28,-1
 147 1407 l 1,29,30
 335 1520 335 1520 537 1520 c 0,4,5
EndSplineSet
EndChar

StartChar: at
Encoding: 64 64 36
Width: 2048
GlyphClass: 2
Flags: W
LayerCount: 2
Fore
SplineSet
1026 842 m 0,0,1
 902 842 902 842 832 759 c 128,-1,2
 762 676 762 676 762 537 c 0,3,4
 762 396 762 396 831.5 313.5 c 128,-1,5
 901 231 901 231 1028 231 c 0,6,7
 1154 231 1154 231 1223 314 c 128,-1,8
 1292 397 1292 397 1292 537 c 0,9,10
 1292 676 1292 676 1221.5 759 c 128,-1,11
 1151 842 1151 842 1026 842 c 0,0,1
1053 1442 m 0,12,13
 1235 1442 1235 1442 1395.5 1377 c 128,-1,14
 1556 1312 1556 1312 1666.5 1204.5 c 128,-1,15
 1777 1097 1777 1097 1841 954 c 128,-1,16
 1905 811 1905 811 1905 657 c 0,17,18
 1905 391 1905 391 1745.5 240.5 c 128,-1,19
 1586 90 1586 90 1307 84 c 1,20,-1
 1307 238 l 1,21,22
 1191 88 1191 88 989 88 c 0,23,24
 815 88 815 88 708.5 212 c 128,-1,25
 602 336 602 336 602 537 c 0,26,27
 602 737 602 737 709 862 c 128,-1,28
 816 987 816 987 989 987 c 0,29,30
 1190 987 1190 987 1307 836 c 1,31,-1
 1307 967 l 1,32,-1
 1450 967 l 1,33,-1
 1450 231 l 1,34,35
 1597 254 1597 254 1679 365 c 128,-1,36
 1761 476 1761 476 1761 653 c 0,37,38
 1761 794 1761 794 1703 916.5 c 128,-1,39
 1645 1039 1645 1039 1548 1121.5 c 128,-1,40
 1451 1204 1451 1204 1323 1251 c 128,-1,41
 1195 1298 1195 1298 1055 1298 c 0,42,43
 882 1298 882 1298 734 1235.5 c 128,-1,44
 586 1173 586 1173 487 1069 c 128,-1,45
 388 965 388 965 332 828 c 128,-1,46
 276 691 276 691 276 543 c 0,47,48
 276 388 276 388 333 249.5 c 128,-1,49
 390 111 390 111 489 9 c 128,-1,50
 588 -93 588 -93 731 -153 c 128,-1,51
 874 -213 874 -213 1038 -213 c 0,52,53
 1176 -213 1176 -213 1300 -166.5 c 128,-1,54
 1424 -120 1424 -120 1520 -45 c 1,55,-1
 1610 -156 l 1,56,57
 1351 -356 1351 -356 1038 -356 c 0,58,59
 894 -356 894 -356 758.5 -315 c 128,-1,60
 623 -274 623 -274 510.5 -194.5 c 128,-1,61
 398 -115 398 -115 313.5 -7 c 128,-1,62
 229 101 229 101 182 243 c 128,-1,63
 135 385 135 385 135 543 c 0,64,65
 135 740 135 740 210.5 910 c 128,-1,66
 286 1080 286 1080 412.5 1195.5 c 128,-1,67
 539 1311 539 1311 705.5 1376.5 c 128,-1,68
 872 1442 872 1442 1053 1442 c 0,12,13
EndSplineSet
EndChar

StartChar: A
Encoding: 65 65 37
Width: 1401
GlyphClass: 2
Flags: W
LayerCount: 2
Fore
SplineSet
700 1294 m 1,0,-1
 426 551 l 1,1,-1
 975 551 l 1,2,-1
 700 1294 l 1,0,-1
586 1493 m 1,3,-1
 815 1493 l 1,4,-1
 1384 0 l 1,5,-1
 1174 0 l 1,6,-1
 1038 383 l 1,7,-1
 365 383 l 1,8,-1
 229 0 l 1,9,-1
 16 0 l 1,10,-1
 586 1493 l 1,3,-1
EndSplineSet
EndChar

StartChar: B
Encoding: 66 66 38
Width: 1300
GlyphClass: 2
Flags: W
LayerCount: 2
Fore
SplineSet
684 125 m 0,0,1
 763 125 763 125 823.5 158.5 c 128,-1,2
 884 192 884 192 921.5 251.5 c 128,-1,3
 959 311 959 311 978 388.5 c 128,-1,4
 997 466 997 466 997 559 c 0,5,6
 997 752 997 752 918 872.5 c 128,-1,7
 839 993 839 993 684 993 c 0,8,9
 605 993 605 993 544.5 959.5 c 128,-1,10
 484 926 484 926 446.5 866.5 c 128,-1,11
 409 807 409 807 390 729.5 c 128,-1,12
 371 652 371 652 371 559 c 0,13,14
 371 366 371 366 450 245.5 c 128,-1,15
 529 125 529 125 684 125 c 0,0,1
729 -29 m 0,16,17
 485 -29 485 -29 371 168 c 1,18,-1
 371 0 l 1,19,-1
 186 0 l 1,20,-1
 186 1556 l 1,21,-1
 371 1556 l 1,22,-1
 371 950 l 1,23,24
 485 1147 485 1147 729 1147 c 0,25,26
 935 1147 935 1147 1061.5 985.5 c 128,-1,27
 1188 824 1188 824 1188 559 c 128,-1,28
 1188 294 1188 294 1061.5 132.5 c 128,-1,29
 935 -29 935 -29 729 -29 c 0,16,17
EndSplineSet
EndChar

StartChar: C
Encoding: 67 67 39
Width: 1126
GlyphClass: 2
Flags: W
LayerCount: 2
Fore
SplineSet
676 1147 m 0,0,1
 849 1147 849 1147 999 1077 c 1,2,-1
 999 905 l 1,3,4
 844 991 844 991 684 991 c 0,5,6
 501 991 501 991 404 876 c 128,-1,7
 307 761 307 761 307 559 c 128,-1,8
 307 357 307 357 404 242 c 128,-1,9
 501 127 501 127 684 127 c 0,10,11
 844 127 844 127 999 213 c 1,12,-1
 999 43 l 1,13,14
 846 -29 846 -29 664 -29 c 0,15,16
 409 -29 409 -29 261 129.5 c 128,-1,17
 113 288 113 288 113 559 c 0,18,19
 113 834 113 834 263 990.5 c 128,-1,20
 413 1147 413 1147 676 1147 c 0,0,1
EndSplineSet
EndChar

StartChar: D
Encoding: 68 68 40
Width: 1300
GlyphClass: 2
Flags: W
LayerCount: 2
Fore
SplineSet
571 1147 m 0,0,1
 816 1147 816 1147 930 950 c 1,2,-1
 930 1556 l 1,3,-1
 1114 1556 l 1,4,-1
 1114 0 l 1,5,-1
 930 0 l 1,6,-1
 930 168 l 1,7,8
 815 -29 815 -29 571 -29 c 0,9,10
 365 -29 365 -29 239 133 c 128,-1,11
 113 295 113 295 113 559 c 128,-1,12
 113 823 113 823 239 985 c 128,-1,13
 365 1147 365 1147 571 1147 c 0,0,1
616 993 m 0,14,15
 537 993 537 993 476.5 959.5 c 128,-1,16
 416 926 416 926 378.5 866.5 c 128,-1,17
 341 807 341 807 322 729.5 c 128,-1,18
 303 652 303 652 303 559 c 0,19,20
 303 366 303 366 382 245.5 c 128,-1,21
 461 125 461 125 616 125 c 0,22,23
 695 125 695 125 756 158.5 c 128,-1,24
 817 192 817 192 854.5 251.5 c 128,-1,25
 892 311 892 311 911 388.5 c 128,-1,26
 930 466 930 466 930 559 c 0,27,28
 930 756 930 756 849 874.5 c 128,-1,29
 768 993 768 993 616 993 c 0,14,15
EndSplineSet
EndChar

StartChar: E
Encoding: 69 69 41
Width: 1716
GlyphClass: 2
Flags: W
LayerCount: 2
Fore
SplineSet
217 899 m 1,0,-1
 1499 899 l 1,1,-1
 1499 729 l 1,2,-1
 217 729 l 1,3,-1
 217 899 l 1,0,-1
217 410 m 1,4,-1
 1499 410 l 1,5,-1
 1499 240 l 1,6,-1
 217 240 l 1,7,-1
 217 410 l 1,4,-1
217 1381 m 5,8,-1
 1499 1381 l 5,9,-1
 1499 1211 l 5,10,-1
 217 1211 l 5,11,-1
 217 1381 l 5,8,-1
EndSplineSet
EndChar

StartChar: F
Encoding: 70 70 42
Width: 1178
GlyphClass: 2
Flags: W
LayerCount: 2
Fore
SplineSet
201 1493 m 1,0,-1
 1059 1493 l 1,1,-1
 1059 1323 l 1,2,-1
 403 1323 l 1,3,-1
 403 883 l 1,4,-1
 995 883 l 1,5,-1
 995 713 l 1,6,-1
 403 713 l 1,7,-1
 403 0 l 1,8,-1
 201 0 l 1,9,-1
 201 1493 l 1,0,-1
EndSplineSet
EndChar

StartChar: G
Encoding: 71 71 43
Width: 1300
GlyphClass: 2
Flags: W
LayerCount: 2
Fore
SplineSet
616 154 m 128,-1,1
 772 154 772 154 851 268 c 128,-1,2
 930 382 930 382 930 573 c 128,-1,3
 930 764 930 764 851.5 878.5 c 128,-1,4
 773 993 773 993 616 993 c 0,5,6
 460 993 460 993 381.5 878 c 128,-1,7
 303 763 303 763 303 573 c 128,-1,8
 303 383 303 383 381.5 268.5 c 128,-1,0
 460 154 460 154 616 154 c 128,-1,1
571 1147 m 0,9,10
 817 1147 817 1147 930 950 c 1,11,-1
 930 1120 l 1,12,-1
 1114 1120 l 1,13,-1
 1114 139 l 2,14,15
 1114 -142 1114 -142 989 -284 c 128,-1,16
 864 -426 864 -426 598 -426 c 0,17,18
 409 -426 409 -426 248 -367 c 1,19,-1
 248 -188 l 1,20,21
 407 -274 407 -274 569 -274 c 0,22,23
 930 -274 930 -274 930 106 c 2,24,-1
 930 197 l 1,25,26
 817 0 817 0 571 0 c 0,27,28
 364 0 364 0 238.5 156 c 128,-1,29
 113 312 113 312 113 573 c 0,30,31
 113 835 113 835 238.5 991 c 128,-1,32
 364 1147 364 1147 571 1147 c 0,9,10
EndSplineSet
EndChar

StartChar: H
Encoding: 72 72 44
Width: 1716
GlyphClass: 2
Flags: W
LayerCount: 2
Fore
SplineSet
735 1135 m 1,0,-1
 981 1135 l 1,1,-1
 981 889 l 1,2,-1
 735 889 l 1,3,-1
 735 1135 l 1,0,-1
735 395 m 1,4,-1
 981 395 l 1,5,-1
 981 150 l 1,6,-1
 735 150 l 1,7,-1
 735 395 l 1,4,-1
217 727 m 1,8,-1
 1499 727 l 1,9,-1
 1499 557 l 1,10,-1
 217 557 l 1,11,-1
 217 727 l 1,8,-1
EndSplineSet
EndChar

StartChar: I
Encoding: 73 73 45
Width: 1716
GlyphClass: 2
Flags: W
LayerCount: 2
Fore
SplineSet
217 930 m 1,0,-1
 989 930 l 1,1,-1
 1245 1245 l 1,2,-1
 1370 1143 l 1,3,-1
 1196 930 l 1,4,-1
 1499 930 l 1,5,-1
 1499 762 l 1,6,-1
 1059 762 l 1,7,-1
 864 522 l 1,8,-1
 1499 522 l 1,9,-1
 1499 352 l 1,10,-1
 725 352 l 1,11,-1
 467 39 l 1,12,-1
 342 141 l 1,13,-1
 516 352 l 1,14,-1
 217 352 l 1,15,-1
 217 522 l 1,16,-1
 655 522 l 1,17,-1
 850 762 l 1,18,-1
 217 762 l 1,19,-1
 217 930 l 1,0,-1
EndSplineSet
EndChar

StartChar: J
Encoding: 74 74 46
Width: 604
GlyphClass: 2
Flags: W
LayerCount: 2
Fore
SplineSet
-43 -240 m 2,0,1
 97 -240 97 -240 149 -158.5 c 128,-1,2
 201 -77 201 -77 201 104 c 2,3,-1
 201 1493 l 1,4,-1
 403 1493 l 1,5,-1
 403 104 l 2,6,7
 403 -155 403 -155 304.5 -282.5 c 128,-1,8
 206 -410 206 -410 -29 -410 c 2,9,-1
 -106 -410 l 1,10,-1
 -106 -240 l 1,11,-1
 -43 -240 l 2,0,1
EndSplineSet
EndChar

StartChar: K
Encoding: 75 75 47
Width: 1300
GlyphClass: 2
Flags: W
LayerCount: 2
Fore
SplineSet
616 993 m 0,0,1
 537 993 537 993 476.5 959.5 c 128,-1,2
 416 926 416 926 378.5 866.5 c 128,-1,3
 341 807 341 807 322 729.5 c 128,-1,4
 303 652 303 652 303 559 c 0,5,6
 303 366 303 366 382 245.5 c 128,-1,7
 461 125 461 125 616 125 c 0,8,9
 695 125 695 125 756 158.5 c 128,-1,10
 817 192 817 192 854.5 251.5 c 128,-1,11
 892 311 892 311 911 388.5 c 128,-1,12
 930 466 930 466 930 559 c 0,13,14
 930 756 930 756 849 874.5 c 128,-1,15
 768 993 768 993 616 993 c 0,0,1
571 1147 m 0,16,17
 816 1147 816 1147 930 950 c 1,18,-1
 930 1120 l 1,19,-1
 1114 1120 l 1,20,-1
 1114 -426 l 1,21,-1
 930 -426 l 1,22,-1
 930 168 l 1,23,24
 815 -29 815 -29 571 -29 c 0,25,26
 365 -29 365 -29 239 133 c 128,-1,27
 113 295 113 295 113 559 c 128,-1,28
 113 823 113 823 239 985 c 128,-1,29
 365 1147 365 1147 571 1147 c 0,16,17
EndSplineSet
EndChar

StartChar: L
Encoding: 76 76 48
Width: 1141
GlyphClass: 2
Flags: W
LayerCount: 2
Fore
SplineSet
201 1493 m 1,0,-1
 403 1493 l 1,1,-1
 403 170 l 1,2,-1
 1130 170 l 1,3,-1
 1130 0 l 1,4,-1
 201 0 l 1,5,-1
 201 1493 l 1,0,-1
EndSplineSet
EndChar

StartChar: M
Encoding: 77 77 49
Width: 1716
GlyphClass: 2
Flags: W
LayerCount: 2
Fore
SplineSet
217 1016 m 1,0,-1
 217 1192 l 1,1,-1
 1499 825 l 1,2,-1
 1499 655 l 1,3,-1
 217 287 l 1,4,-1
 217 465 l 1,5,-1
 1178 739 l 1,6,-1
 217 1016 l 1,0,-1
1499 170 m 1,7,-1
 1499 0 l 1,8,-1
 217 0 l 1,9,-1
 217 170 l 1,10,-1
 1499 170 l 1,7,-1
EndSplineSet
EndChar

StartChar: N
Encoding: 78 78 50
Width: 1298
GlyphClass: 2
Flags: W
LayerCount: 2
Fore
SplineSet
733 1147 m 0,0,1
 786 1147 786 1147 832.5 1138.5 c 128,-1,2
 879 1130 879 1130 935 1100.5 c 128,-1,3
 991 1071 991 1071 1030.5 1022.5 c 128,-1,4
 1070 974 1070 974 1097 884.5 c 128,-1,5
 1124 795 1124 795 1124 676 c 2,6,-1
 1124 0 l 1,7,-1
 940 0 l 1,8,-1
 940 670 l 2,9,10
 940 987 940 987 692 987 c 0,11,12
 541 987 541 987 456 891.5 c 128,-1,13
 371 796 371 796 371 633 c 2,14,-1
 371 0 l 1,15,-1
 186 0 l 1,16,-1
 186 1120 l 1,17,-1
 371 1120 l 1,18,-1
 371 946 l 1,19,20
 503 1147 503 1147 733 1147 c 0,0,1
EndSplineSet
EndChar

StartChar: O
Encoding: 79 79 51
Width: 1716
GlyphClass: 2
Flags: W
LayerCount: 2
Fore
SplineSet
1499 1016 m 1,0,-1
 539 739 l 1,1,-1
 1499 465 l 1,2,-1
 1499 287 l 1,3,-1
 217 655 l 1,4,-1
 217 825 l 1,5,-1
 1499 1192 l 1,6,-1
 1499 1016 l 1,0,-1
217 170 m 1,7,-1
 1499 170 l 1,8,-1
 1499 0 l 1,9,-1
 217 0 l 1,10,-1
 217 170 l 1,7,-1
EndSplineSet
EndChar

StartChar: P
Encoding: 80 80 52
Width: 1235
GlyphClass: 2
Flags: W
LayerCount: 2
Fore
SplineSet
952 1047 m 0,0,1
 952 1182 952 1182 875 1254.5 c 128,-1,2
 798 1327 798 1327 657 1327 c 2,3,-1
 403 1327 l 1,4,-1
 403 766 l 1,5,-1
 657 766 l 2,6,7
 799 766 799 766 875.5 838.5 c 128,-1,8
 952 911 952 911 952 1047 c 0,0,1
1165 1047 m 0,9,10
 1165 836 1165 836 1042 718 c 128,-1,11
 919 600 919 600 657 600 c 2,12,-1
 403 600 l 1,13,-1
 403 0 l 1,14,-1
 201 0 l 1,15,-1
 201 1493 l 1,16,-1
 657 1493 l 2,17,18
 773 1493 773 1493 862.5 1468 c 128,-1,19
 952 1443 952 1443 1008.5 1402 c 128,-1,20
 1065 1361 1065 1361 1101 1302.5 c 128,-1,21
 1137 1244 1137 1244 1151 1182 c 128,-1,22
 1165 1120 1165 1120 1165 1047 c 0,9,10
EndSplineSet
EndChar

StartChar: Q
Encoding: 81 81 53
Width: 1300
GlyphClass: 2
Flags: W
LayerCount: 2
Fore
SplineSet
616 993 m 0,0,1
 537 993 537 993 476.5 959.5 c 128,-1,2
 416 926 416 926 378.5 866.5 c 128,-1,3
 341 807 341 807 322 729.5 c 128,-1,4
 303 652 303 652 303 559 c 0,5,6
 303 366 303 366 382 245.5 c 128,-1,7
 461 125 461 125 616 125 c 0,8,9
 695 125 695 125 756 158.5 c 128,-1,10
 817 192 817 192 854.5 251.5 c 128,-1,11
 892 311 892 311 911 388.5 c 128,-1,12
 930 466 930 466 930 559 c 0,13,14
 930 756 930 756 849 874.5 c 128,-1,15
 768 993 768 993 616 993 c 0,0,1
571 1147 m 0,16,17
 816 1147 816 1147 930 950 c 1,18,-1
 930 1120 l 1,19,-1
 1114 1120 l 1,20,-1
 1114 -426 l 1,21,-1
 930 -426 l 1,22,-1
 930 168 l 1,23,24
 815 -29 815 -29 571 -29 c 0,25,26
 365 -29 365 -29 239 133 c 128,-1,27
 113 295 113 295 113 559 c 128,-1,28
 113 823 113 823 239 985 c 128,-1,29
 365 1147 365 1147 571 1147 c 0,16,17
EndSplineSet
EndChar

StartChar: R
Encoding: 82 82 54
Width: 842
GlyphClass: 2
Flags: W
LayerCount: 2
Fore
SplineSet
371 946 m 1,0,1
 486 1147 486 1147 748 1147 c 0,2,3
 784 1147 784 1147 841 1137 c 1,4,-1
 841 948 l 1,5,6
 781 983 781 983 694 983 c 0,7,8
 533 983 533 983 452 878.5 c 128,-1,9
 371 774 371 774 371 590 c 2,10,-1
 371 0 l 1,11,-1
 186 0 l 1,12,-1
 186 1120 l 1,13,-1
 371 1120 l 1,14,-1
 371 946 l 1,0,1
EndSplineSet
EndChar

StartChar: S
Encoding: 83 83 55
Width: 1067
GlyphClass: 2
Flags: W
LayerCount: 2
Fore
SplineSet
549 1147 m 0,0,1
 753 1147 753 1147 907 1087 c 1,2,-1
 907 913 l 1,3,4
 751 993 751 993 571 993 c 0,5,6
 297 993 297 993 297 825 c 0,7,8
 297 754 297 754 354 719.5 c 128,-1,9
 411 685 411 685 543 655 c 2,10,-1
 606 641 l 2,11,12
 698 621 698 621 762 595.5 c 128,-1,13
 826 570 826 570 873.5 531 c 128,-1,14
 921 492 921 492 944 437.5 c 128,-1,15
 967 383 967 383 967 309 c 0,16,17
 967 198 967 198 904.5 120 c 128,-1,18
 842 42 842 42 739.5 6.5 c 128,-1,19
 637 -29 637 -29 504 -29 c 0,20,21
 327 -29 327 -29 111 41 c 1,22,-1
 111 231 l 1,23,24
 316 125 316 125 508 125 c 0,25,26
 573 125 573 125 623 136.5 c 128,-1,27
 673 148 673 148 701.5 165 c 128,-1,28
 730 182 730 182 748 206 c 128,-1,29
 766 230 766 230 772 251 c 128,-1,30
 778 272 778 272 778 295 c 0,31,32
 778 374 778 374 721.5 413.5 c 128,-1,33
 665 453 665 453 506 487 c 2,34,-1
 442 502 l 2,35,36
 280 536 280 536 199.5 608.5 c 128,-1,37
 119 681 119 681 119 817 c 0,38,39
 119 983 119 983 235 1065 c 128,-1,40
 351 1147 351 1147 549 1147 c 0,0,1
EndSplineSet
EndChar

StartChar: T
Encoding: 84 84 56
Width: 803
GlyphClass: 2
Flags: W
LayerCount: 2
Fore
SplineSet
375 369 m 2,0,1
 375 300 375 300 381.5 261.5 c 128,-1,2
 388 223 388 223 409 197 c 128,-1,3
 430 171 430 171 466 162.5 c 128,-1,4
 502 154 502 154 565 154 c 2,5,-1
 754 154 l 1,6,-1
 754 0 l 1,7,-1
 565 0 l 2,8,9
 354 0 354 0 272 81 c 128,-1,10
 190 162 190 162 190 369 c 2,11,-1
 190 977 l 1,12,-1
 55 977 l 1,13,-1
 55 1120 l 1,14,-1
 190 1120 l 1,15,-1
 190 1438 l 1,16,-1
 375 1438 l 1,17,-1
 375 1120 l 1,18,-1
 754 1120 l 1,19,-1
 754 977 l 1,20,-1
 375 977 l 1,21,-1
 375 369 l 2,0,1
EndSplineSet
EndChar

StartChar: U
Encoding: 85 85 57
Width: 1499
GlyphClass: 2
Flags: W
LayerCount: 2
Fore
SplineSet
750 -29 m 128,-1,1
 466 -29 466 -29 322 120.5 c 128,-1,2
 178 270 178 270 178 561 c 2,3,-1
 178 1493 l 1,4,-1
 381 1493 l 1,5,-1
 381 586 l 2,6,7
 381 458 381 458 405 370 c 128,-1,8
 429 282 429 282 478 230.5 c 128,-1,9
 527 179 527 179 592.5 157 c 128,-1,10
 658 135 658 135 750 135 c 0,11,12
 952 135 952 135 1035 246.5 c 128,-1,13
 1118 358 1118 358 1118 586 c 2,14,-1
 1118 1493 l 1,15,-1
 1321 1493 l 1,16,-1
 1321 561 l 2,17,18
 1321 270 1321 270 1177.5 120.5 c 128,-1,0
 1034 -29 1034 -29 750 -29 c 128,-1,1
EndSplineSet
EndChar

StartChar: V
Encoding: 86 86 58
Width: 1401
GlyphClass: 2
Flags: W
LayerCount: 2
Fore
SplineSet
586 0 m 1,0,-1
 16 1493 l 1,1,-1
 227 1493 l 1,2,-1
 700 236 l 1,3,-1
 1174 1493 l 1,4,-1
 1384 1493 l 1,5,-1
 815 0 l 1,6,-1
 586 0 l 1,0,-1
EndSplineSet
EndChar

StartChar: W
Encoding: 87 87 59
Width: 1577
GlyphClass: 2
Flags: W
LayerCount: 2
Fore
SplineSet
1243 748 m 0,0,1
 1243 1050 1243 1050 1098 1188.5 c 128,-1,2
 953 1327 953 1327 647 1327 c 2,3,-1
 403 1327 l 1,4,-1
 403 166 l 1,5,-1
 647 166 l 2,6,7
 953 166 953 166 1098 305.5 c 128,-1,8
 1243 445 1243 445 1243 748 c 0,0,1
1456 748 m 0,9,10
 1456 548 1456 548 1402.5 404.5 c 128,-1,11
 1349 261 1349 261 1240.5 172 c 128,-1,12
 1132 83 1132 83 978.5 41.5 c 128,-1,13
 825 0 825 0 616 0 c 2,14,-1
 201 0 l 1,15,-1
 201 1493 l 1,16,-1
 616 1493 l 2,17,18
 1038 1493 1038 1493 1247 1317 c 128,-1,19
 1456 1141 1456 1141 1456 748 c 0,9,10
EndSplineSet
EndChar

StartChar: X
Encoding: 88 88 60
Width: 1251
GlyphClass: 2
Flags: W
LayerCount: 2
Fore
SplineSet
-6 1493 m 1,0,-1
 1257 1493 l 1,1,-1
 1257 1323 l 1,2,-1
 727 1323 l 1,3,-1
 727 0 l 1,4,-1
 524 0 l 1,5,-1
 524 1323 l 1,6,-1
 -6 1323 l 1,7,-1
 -6 1493 l 1,0,-1
EndSplineSet
EndChar

StartChar: Y
Encoding: 89 89 61
Width: 1212
GlyphClass: 2
Flags: W
LayerCount: 2
Fore
SplineSet
659 -104 m 2,0,1
 624 -195 624 -195 593.5 -251 c 128,-1,2
 563 -307 563 -307 522.5 -349 c 128,-1,3
 482 -391 482 -391 431 -408.5 c 128,-1,4
 380 -426 380 -426 309 -426 c 2,5,-1
 162 -426 l 1,6,-1
 162 -272 l 1,7,-1
 270 -272 l 2,8,9
 353 -272 353 -272 394 -229 c 128,-1,10
 435 -186 435 -186 481 -66 c 2,11,-1
 514 18 l 1,12,-1
 61 1120 l 1,13,-1
 256 1120 l 1,14,-1
 606 244 l 1,15,-1
 956 1120 l 1,16,-1
 1151 1120 l 1,17,-1
 659 -104 l 2,0,1
EndSplineSet
EndChar

StartChar: Z
Encoding: 90 90 62
Width: 1380
GlyphClass: 2
Flags: W
LayerCount: 2
Fore
SplineSet
1325 1472 m 5,0,-1
 67 1472 l 5,1,-1
 67 1279 l 5,2,-1
 1026 1279 l 5,3,-1
 354 562 l 5,4,-1
 1048 -202 l 5,5,-1
 41 -202 l 5,6,-1
 41 -394 l 5,7,-1
 1355 -394 l 5,8,-1
 1355 -245 l 5,9,-1
 630 556 l 5,10,-1
 1325 1295 l 5,11,-1
 1325 1472 l 5,0,-1
EndSplineSet
EndChar

StartChar: bracketleft
Encoding: 91 91 63
Width: 799
GlyphClass: 2
Flags: W
LayerCount: 2
Fore
SplineSet
176 1556 m 1,0,-1
 600 1556 l 1,1,-1
 600 1413 l 1,2,-1
 360 1413 l 1,3,-1
 360 -127 l 1,4,-1
 600 -127 l 1,5,-1
 600 -270 l 1,6,-1
 176 -270 l 1,7,-1
 176 1556 l 1,0,-1
EndSplineSet
EndChar

StartChar: backslash
Encoding: 92 92 64
Width: 690
GlyphClass: 2
Flags: W
LayerCount: 2
Fore
SplineSet
170 1493 m 1,0,-1
 690 -190 l 1,1,-1
 520 -190 l 1,2,-1
 0 1493 l 1,3,-1
 170 1493 l 1,0,-1
EndSplineSet
EndChar

StartChar: bracketright
Encoding: 93 93 65
Width: 799
GlyphClass: 2
Flags: W
LayerCount: 2
Fore
SplineSet
623 1556 m 1,0,-1
 623 -270 l 1,1,-1
 199 -270 l 1,2,-1
 199 -127 l 1,3,-1
 438 -127 l 1,4,-1
 438 1413 l 1,5,-1
 199 1413 l 1,6,-1
 199 1556 l 1,7,-1
 623 1556 l 1,0,-1
EndSplineSet
EndChar

StartChar: asciicircum
Encoding: 94 94 66
Width: 1716
GlyphClass: 2
Flags: W
LayerCount: 2
Fore
SplineSet
956 1493 m 1,0,-1
 1499 936 l 1,1,-1
 1298 936 l 1,2,-1
 858 1331 l 1,3,-1
 418 936 l 1,4,-1
 217 936 l 1,5,-1
 760 1493 l 1,6,-1
 956 1493 l 1,0,-1
EndSplineSet
EndChar

StartChar: underscore
Encoding: 95 95 67
Width: 1024
GlyphClass: 2
Flags: W
LayerCount: 2
Fore
SplineSet
1044 -340 m 1,0,-1
 1044 -483 l 1,1,-1
 -20 -483 l 1,2,-1
 -20 -340 l 1,3,-1
 1044 -340 l 1,0,-1
EndSplineSet
EndChar

StartChar: grave
Encoding: 96 96 68
Width: 1024
GlyphClass: 2
Flags: W
LayerCount: 2
Fore
SplineSet
367 1638 m 1,0,-1
 649 1264 l 1,1,-1
 496 1264 l 1,2,-1
 170 1638 l 1,3,-1
 367 1638 l 1,0,-1
EndSplineSet
EndChar

StartChar: a
Encoding: 97 97 69
Width: 1255
GlyphClass: 2
Flags: W
LayerCount: 2
Fore
SplineSet
547 125 m 0,0,1
 700 125 700 125 792.5 232.5 c 128,-1,2
 885 340 885 340 885 522 c 2,3,-1
 885 563 l 1,4,-1
 702 563 l 2,5,6
 495 563 495 563 401 515 c 128,-1,7
 307 467 307 467 307 338 c 0,8,9
 307 238 307 238 372 181.5 c 128,-1,10
 437 125 437 125 547 125 c 0,0,1
586 1147 m 0,11,12
 698 1147 698 1147 784 1119.5 c 128,-1,13
 870 1092 870 1092 923 1046 c 128,-1,14
 976 1000 976 1000 1009.5 933.5 c 128,-1,15
 1043 867 1043 867 1056 796 c 128,-1,16
 1069 725 1069 725 1069 639 c 2,17,-1
 1069 0 l 1,18,-1
 885 0 l 1,19,-1
 885 170 l 1,20,21
 824 71 824 71 730.5 21 c 128,-1,22
 637 -29 637 -29 498 -29 c 0,23,24
 325 -29 325 -29 224 67 c 128,-1,25
 123 163 123 163 123 326 c 0,26,27
 123 707 123 707 627 707 c 2,28,-1
 885 707 l 1,29,-1
 885 725 l 2,30,31
 885 855 885 855 800 923 c 128,-1,32
 715 991 715 991 567 991 c 0,33,34
 374 991 374 991 205 899 c 1,35,-1
 205 1069 l 1,36,37
 409 1147 409 1147 586 1147 c 0,11,12
EndSplineSet
EndChar

StartChar: b
Encoding: 98 98 70
Width: 1300
GlyphClass: 2
Flags: W
LayerCount: 2
Fore
SplineSet
684 125 m 0,0,1
 763 125 763 125 823.5 158.5 c 128,-1,2
 884 192 884 192 921.5 251.5 c 128,-1,3
 959 311 959 311 978 388.5 c 128,-1,4
 997 466 997 466 997 559 c 0,5,6
 997 752 997 752 918 872.5 c 128,-1,7
 839 993 839 993 684 993 c 0,8,9
 605 993 605 993 544.5 959.5 c 128,-1,10
 484 926 484 926 446.5 866.5 c 128,-1,11
 409 807 409 807 390 729.5 c 128,-1,12
 371 652 371 652 371 559 c 0,13,14
 371 366 371 366 450 245.5 c 128,-1,15
 529 125 529 125 684 125 c 0,0,1
729 -29 m 0,16,17
 485 -29 485 -29 371 168 c 1,18,-1
 371 0 l 1,19,-1
 186 0 l 1,20,-1
 186 1556 l 1,21,-1
 371 1556 l 1,22,-1
 371 950 l 1,23,24
 485 1147 485 1147 729 1147 c 0,25,26
 935 1147 935 1147 1061.5 985.5 c 128,-1,27
 1188 824 1188 824 1188 559 c 128,-1,28
 1188 294 1188 294 1061.5 132.5 c 128,-1,29
 935 -29 935 -29 729 -29 c 0,16,17
EndSplineSet
EndChar

StartChar: c
Encoding: 99 99 71
Width: 1126
GlyphClass: 2
Flags: W
LayerCount: 2
Fore
SplineSet
676 1147 m 0,0,1
 849 1147 849 1147 999 1077 c 1,2,-1
 999 905 l 1,3,4
 844 991 844 991 684 991 c 0,5,6
 501 991 501 991 404 876 c 128,-1,7
 307 761 307 761 307 559 c 128,-1,8
 307 357 307 357 404 242 c 128,-1,9
 501 127 501 127 684 127 c 0,10,11
 844 127 844 127 999 213 c 1,12,-1
 999 43 l 1,13,14
 846 -29 846 -29 664 -29 c 0,15,16
 409 -29 409 -29 261 129.5 c 128,-1,17
 113 288 113 288 113 559 c 0,18,19
 113 834 113 834 263 990.5 c 128,-1,20
 413 1147 413 1147 676 1147 c 0,0,1
EndSplineSet
EndChar

StartChar: d
Encoding: 100 100 72
Width: 1300
GlyphClass: 2
Flags: W
LayerCount: 2
Fore
SplineSet
571 1147 m 0,0,1
 816 1147 816 1147 930 950 c 1,2,-1
 930 1556 l 1,3,-1
 1114 1556 l 1,4,-1
 1114 0 l 1,5,-1
 930 0 l 1,6,-1
 930 168 l 1,7,8
 815 -29 815 -29 571 -29 c 0,9,10
 365 -29 365 -29 239 133 c 128,-1,11
 113 295 113 295 113 559 c 128,-1,12
 113 823 113 823 239 985 c 128,-1,13
 365 1147 365 1147 571 1147 c 0,0,1
616 993 m 0,14,15
 537 993 537 993 476.5 959.5 c 128,-1,16
 416 926 416 926 378.5 866.5 c 128,-1,17
 341 807 341 807 322 729.5 c 128,-1,18
 303 652 303 652 303 559 c 0,19,20
 303 366 303 366 382 245.5 c 128,-1,21
 461 125 461 125 616 125 c 0,22,23
 695 125 695 125 756 158.5 c 128,-1,24
 817 192 817 192 854.5 251.5 c 128,-1,25
 892 311 892 311 911 388.5 c 128,-1,26
 930 466 930 466 930 559 c 0,27,28
 930 756 930 756 849 874.5 c 128,-1,29
 768 993 768 993 616 993 c 0,14,15
EndSplineSet
EndChar

StartChar: e
Encoding: 101 101 73
Width: 1260
GlyphClass: 2
Flags: W
LayerCount: 2
Fore
SplineSet
662 1147 m 0,0,1
 891 1147 891 1147 1021 1001 c 128,-1,2
 1151 855 1151 855 1151 606 c 2,3,-1
 1151 516 l 1,4,-1
 305 516 l 1,5,6
 317 328 317 328 418 227.5 c 128,-1,7
 519 127 519 127 705 127 c 0,8,9
 911 127 911 127 1108 231 c 1,10,-1
 1108 57 l 1,11,12
 907 -29 907 -29 694 -29 c 0,13,14
 423 -29 423 -29 268 127.5 c 128,-1,15
 113 284 113 284 113 549 c 0,16,17
 113 824 113 824 260 985.5 c 128,-1,18
 407 1147 407 1147 662 1147 c 0,0,1
967 660 m 1,19,20
 965 812 965 812 883 901.5 c 128,-1,21
 801 991 801 991 664 991 c 0,22,23
 507 991 507 991 416 903.5 c 128,-1,24
 325 816 325 816 311 660 c 1,25,-1
 967 660 l 1,19,20
EndSplineSet
EndChar

StartChar: f
Encoding: 102 102 74
Width: 721
GlyphClass: 2
Flags: W
LayerCount: 2
Fore
SplineSet
223 1198 m 2,0,1
 223 1384 223 1384 310 1470 c 128,-1,2
 397 1556 397 1556 586 1556 c 2,3,-1
 760 1556 l 1,4,-1
 760 1403 l 1,5,-1
 584 1403 l 2,6,7
 486 1403 486 1403 447 1362.5 c 128,-1,8
 408 1322 408 1322 408 1219 c 2,9,-1
 408 1120 l 1,10,-1
 711 1120 l 1,11,-1
 711 977 l 1,12,-1
 408 977 l 1,13,-1
 408 0 l 1,14,-1
 223 0 l 1,15,-1
 223 977 l 1,16,-1
 47 977 l 1,17,-1
 47 1120 l 1,18,-1
 223 1120 l 1,19,-1
 223 1198 l 2,0,1
EndSplineSet
EndChar

StartChar: g
Encoding: 103 103 75
Width: 1300
GlyphClass: 2
Flags: W
LayerCount: 2
Fore
SplineSet
616 154 m 128,-1,1
 772 154 772 154 851 268 c 128,-1,2
 930 382 930 382 930 573 c 128,-1,3
 930 764 930 764 851.5 878.5 c 128,-1,4
 773 993 773 993 616 993 c 0,5,6
 460 993 460 993 381.5 878 c 128,-1,7
 303 763 303 763 303 573 c 128,-1,8
 303 383 303 383 381.5 268.5 c 128,-1,0
 460 154 460 154 616 154 c 128,-1,1
571 1147 m 0,9,10
 817 1147 817 1147 930 950 c 1,11,-1
 930 1120 l 1,12,-1
 1114 1120 l 1,13,-1
 1114 139 l 2,14,15
 1114 -142 1114 -142 989 -284 c 128,-1,16
 864 -426 864 -426 598 -426 c 0,17,18
 409 -426 409 -426 248 -367 c 1,19,-1
 248 -188 l 1,20,21
 407 -274 407 -274 569 -274 c 0,22,23
 930 -274 930 -274 930 106 c 2,24,-1
 930 197 l 1,25,26
 817 0 817 0 571 0 c 0,27,28
 364 0 364 0 238.5 156 c 128,-1,29
 113 312 113 312 113 573 c 0,30,31
 113 835 113 835 238.5 991 c 128,-1,32
 364 1147 364 1147 571 1147 c 0,9,10
EndSplineSet
EndChar

StartChar: h
Encoding: 104 104 76
Width: 1540
GlyphClass: 2
Flags: W
LayerCount: 2
Fore
SplineSet
201 1493 m 1,0,-1
 403 1493 l 1,1,-1
 403 881 l 1,2,-1
 1137 881 l 1,3,-1
 1137 1493 l 1,4,-1
 1339 1493 l 1,5,-1
 1339 0 l 1,6,-1
 1137 0 l 1,7,-1
 1137 711 l 1,8,-1
 403 711 l 1,9,-1
 403 0 l 1,10,-1
 201 0 l 1,11,-1
 201 1493 l 1,0,-1
EndSplineSet
EndChar

StartChar: i
Encoding: 105 105 77
Width: 569
GlyphClass: 2
Flags: W
LayerCount: 2
Fore
SplineSet
193 1120 m 1,0,-1
 377 1120 l 1,1,-1
 377 0 l 1,2,-1
 193 0 l 1,3,-1
 193 1120 l 1,0,-1
193 1556 m 1,4,-1
 377 1556 l 1,5,-1
 377 1323 l 1,6,-1
 193 1323 l 1,7,-1
 193 1556 l 1,4,-1
EndSplineSet
EndChar

StartChar: j
Encoding: 106 106 78
Width: 569
GlyphClass: 2
Flags: W
LayerCount: 2
Fore
SplineSet
12 -270 m 2,0,1
 118 -270 118 -270 155.5 -218 c 128,-1,2
 193 -166 193 -166 193 -20 c 2,3,-1
 193 1120 l 1,4,-1
 377 1120 l 1,5,-1
 377 -20 l 2,6,7
 377 -226 377 -226 298.5 -326 c 128,-1,8
 220 -426 220 -426 33 -426 c 2,9,-1
 -37 -426 l 1,10,-1
 -37 -270 l 1,11,-1
 12 -270 l 2,0,1
193 1556 m 1,12,-1
 377 1556 l 1,13,-1
 377 1323 l 1,14,-1
 193 1323 l 1,15,-1
 193 1556 l 1,12,-1
EndSplineSet
EndChar

StartChar: k
Encoding: 107 107 79
Width: 1300
GlyphClass: 2
Flags: W
LayerCount: 2
Fore
SplineSet
616 993 m 0,0,1
 537 993 537 993 476.5 959.5 c 128,-1,2
 416 926 416 926 378.5 866.5 c 128,-1,3
 341 807 341 807 322 729.5 c 128,-1,4
 303 652 303 652 303 559 c 0,5,6
 303 366 303 366 382 245.5 c 128,-1,7
 461 125 461 125 616 125 c 0,8,9
 695 125 695 125 756 158.5 c 128,-1,10
 817 192 817 192 854.5 251.5 c 128,-1,11
 892 311 892 311 911 388.5 c 128,-1,12
 930 466 930 466 930 559 c 0,13,14
 930 756 930 756 849 874.5 c 128,-1,15
 768 993 768 993 616 993 c 0,0,1
571 1147 m 0,16,17
 816 1147 816 1147 930 950 c 1,18,-1
 930 1120 l 1,19,-1
 1114 1120 l 1,20,-1
 1114 -426 l 1,21,-1
 930 -426 l 1,22,-1
 930 168 l 1,23,24
 815 -29 815 -29 571 -29 c 0,25,26
 365 -29 365 -29 239 133 c 128,-1,27
 113 295 113 295 113 559 c 128,-1,28
 113 823 113 823 239 985 c 128,-1,29
 365 1147 365 1147 571 1147 c 0,16,17
EndSplineSet
EndChar

StartChar: l
Encoding: 108 108 80
Width: 569
GlyphClass: 2
Flags: W
LayerCount: 2
Fore
SplineSet
193 1556 m 1,0,-1
 377 1556 l 1,1,-1
 377 0 l 1,2,-1
 193 0 l 1,3,-1
 193 1556 l 1,0,-1
EndSplineSet
EndChar

StartChar: m
Encoding: 109 109 81
Width: 1995
GlyphClass: 2
Flags: W
LayerCount: 2
Fore
SplineSet
731 1147 m 0,0,1
 803 1147 803 1147 861.5 1126 c 128,-1,2
 920 1105 920 1105 959 1068.5 c 128,-1,3
 998 1032 998 1032 1023.5 992 c 128,-1,4
 1049 952 1049 952 1065 905 c 1,5,6
 1199 1147 1199 1147 1456 1147 c 0,7,8
 1579 1147 1579 1147 1662.5 1086 c 128,-1,9
 1746 1025 1746 1025 1783.5 921.5 c 128,-1,10
 1821 818 1821 818 1821 676 c 2,11,-1
 1821 0 l 1,12,-1
 1636 0 l 1,13,-1
 1636 670 l 2,14,15
 1636 820 1636 820 1582.5 903.5 c 128,-1,16
 1529 987 1529 987 1405 987 c 0,17,18
 1259 987 1259 987 1177.5 891 c 128,-1,19
 1096 795 1096 795 1096 633 c 2,20,-1
 1096 0 l 1,21,-1
 911 0 l 1,22,-1
 911 670 l 2,23,24
 911 841 911 841 850.5 914 c 128,-1,25
 790 987 790 987 678 987 c 0,26,27
 534 987 534 987 452.5 890.5 c 128,-1,28
 371 794 371 794 371 633 c 2,29,-1
 371 0 l 1,30,-1
 186 0 l 1,31,-1
 186 1120 l 1,32,-1
 371 1120 l 1,33,-1
 371 946 l 1,34,35
 493 1147 493 1147 731 1147 c 0,0,1
EndSplineSet
EndChar

StartChar: n
Encoding: 110 110 82
Width: 1298
GlyphClass: 2
Flags: W
LayerCount: 2
Fore
SplineSet
733 1147 m 0,0,1
 786 1147 786 1147 832.5 1138.5 c 128,-1,2
 879 1130 879 1130 935 1100.5 c 128,-1,3
 991 1071 991 1071 1030.5 1022.5 c 128,-1,4
 1070 974 1070 974 1097 884.5 c 128,-1,5
 1124 795 1124 795 1124 676 c 2,6,-1
 1124 0 l 1,7,-1
 940 0 l 1,8,-1
 940 670 l 2,9,10
 940 987 940 987 692 987 c 0,11,12
 541 987 541 987 456 891.5 c 128,-1,13
 371 796 371 796 371 633 c 2,14,-1
 371 0 l 1,15,-1
 186 0 l 1,16,-1
 186 1120 l 1,17,-1
 371 1120 l 1,18,-1
 371 946 l 1,19,20
 503 1147 503 1147 733 1147 c 0,0,1
EndSplineSet
EndChar

StartChar: o
Encoding: 111 111 83
Width: 1253
GlyphClass: 2
Flags: W
LayerCount: 2
Fore
SplineSet
946 559 m 0,0,1
 946 754 946 754 862.5 872.5 c 128,-1,2
 779 991 779 991 627 991 c 0,3,4
 471 991 471 991 389 871 c 128,-1,5
 307 751 307 751 307 559 c 128,-1,6
 307 367 307 367 388.5 247 c 128,-1,7
 470 127 470 127 627 127 c 0,8,9
 782 127 782 127 864 247.5 c 128,-1,10
 946 368 946 368 946 559 c 0,0,1
113 559 m 128,-1,12
 113 831 113 831 246.5 989 c 128,-1,13
 380 1147 380 1147 627 1147 c 0,14,15
 872 1147 872 1147 1006.5 989 c 128,-1,16
 1141 831 1141 831 1141 559 c 0,17,18
 1141 288 1141 288 1006.5 129.5 c 128,-1,19
 872 -29 872 -29 627 -29 c 0,20,21
 381 -29 381 -29 247 129 c 128,-1,11
 113 287 113 287 113 559 c 128,-1,12
EndSplineSet
EndChar

StartChar: p
Encoding: 112 112 84
Width: 1300
GlyphClass: 2
Flags: W
LayerCount: 2
Fore
SplineSet
729 -29 m 0,0,1
 485 -29 485 -29 371 168 c 1,2,-1
 371 -426 l 1,3,-1
 186 -426 l 1,4,-1
 186 1120 l 1,5,-1
 371 1120 l 1,6,-1
 371 950 l 1,7,8
 485 1147 485 1147 729 1147 c 0,9,10
 935 1147 935 1147 1061.5 985.5 c 128,-1,11
 1188 824 1188 824 1188 559 c 128,-1,12
 1188 294 1188 294 1061.5 132.5 c 128,-1,13
 935 -29 935 -29 729 -29 c 0,0,1
684 125 m 0,14,15
 763 125 763 125 823.5 158.5 c 128,-1,16
 884 192 884 192 921.5 251.5 c 128,-1,17
 959 311 959 311 978 388.5 c 128,-1,18
 997 466 997 466 997 559 c 0,19,20
 997 752 997 752 918 872.5 c 128,-1,21
 839 993 839 993 684 993 c 0,22,23
 605 993 605 993 544.5 959.5 c 128,-1,24
 484 926 484 926 446.5 866.5 c 128,-1,25
 409 807 409 807 390 729.5 c 128,-1,26
 371 652 371 652 371 559 c 0,27,28
 371 366 371 366 450 245.5 c 128,-1,29
 529 125 529 125 684 125 c 0,14,15
EndSplineSet
EndChar

StartChar: q
Encoding: 113 113 85
Width: 1300
GlyphClass: 2
Flags: W
LayerCount: 2
Fore
SplineSet
616 993 m 0,0,1
 537 993 537 993 476.5 959.5 c 128,-1,2
 416 926 416 926 378.5 866.5 c 128,-1,3
 341 807 341 807 322 729.5 c 128,-1,4
 303 652 303 652 303 559 c 0,5,6
 303 366 303 366 382 245.5 c 128,-1,7
 461 125 461 125 616 125 c 0,8,9
 695 125 695 125 756 158.5 c 128,-1,10
 817 192 817 192 854.5 251.5 c 128,-1,11
 892 311 892 311 911 388.5 c 128,-1,12
 930 466 930 466 930 559 c 0,13,14
 930 756 930 756 849 874.5 c 128,-1,15
 768 993 768 993 616 993 c 0,0,1
571 1147 m 0,16,17
 816 1147 816 1147 930 950 c 1,18,-1
 930 1120 l 1,19,-1
 1114 1120 l 1,20,-1
 1114 -426 l 1,21,-1
 930 -426 l 1,22,-1
 930 168 l 1,23,24
 815 -29 815 -29 571 -29 c 0,25,26
 365 -29 365 -29 239 133 c 128,-1,27
 113 295 113 295 113 559 c 128,-1,28
 113 823 113 823 239 985 c 128,-1,29
 365 1147 365 1147 571 1147 c 0,16,17
EndSplineSet
EndChar

StartChar: r
Encoding: 114 114 86
Width: 842
GlyphClass: 2
Flags: W
LayerCount: 2
Fore
SplineSet
371 946 m 1,0,1
 486 1147 486 1147 748 1147 c 0,2,3
 784 1147 784 1147 841 1137 c 1,4,-1
 841 948 l 1,5,6
 781 983 781 983 694 983 c 0,7,8
 533 983 533 983 452 878.5 c 128,-1,9
 371 774 371 774 371 590 c 2,10,-1
 371 0 l 1,11,-1
 186 0 l 1,12,-1
 186 1120 l 1,13,-1
 371 1120 l 1,14,-1
 371 946 l 1,0,1
EndSplineSet
EndChar

StartChar: s
Encoding: 115 115 87
Width: 1067
GlyphClass: 2
Flags: W
LayerCount: 2
Fore
SplineSet
549 1147 m 0,0,1
 753 1147 753 1147 907 1087 c 1,2,-1
 907 913 l 1,3,4
 751 993 751 993 571 993 c 0,5,6
 297 993 297 993 297 825 c 0,7,8
 297 754 297 754 354 719.5 c 128,-1,9
 411 685 411 685 543 655 c 2,10,-1
 606 641 l 2,11,12
 698 621 698 621 762 595.5 c 128,-1,13
 826 570 826 570 873.5 531 c 128,-1,14
 921 492 921 492 944 437.5 c 128,-1,15
 967 383 967 383 967 309 c 0,16,17
 967 198 967 198 904.5 120 c 128,-1,18
 842 42 842 42 739.5 6.5 c 128,-1,19
 637 -29 637 -29 504 -29 c 0,20,21
 327 -29 327 -29 111 41 c 1,22,-1
 111 231 l 1,23,24
 316 125 316 125 508 125 c 0,25,26
 573 125 573 125 623 136.5 c 128,-1,27
 673 148 673 148 701.5 165 c 128,-1,28
 730 182 730 182 748 206 c 128,-1,29
 766 230 766 230 772 251 c 128,-1,30
 778 272 778 272 778 295 c 0,31,32
 778 374 778 374 721.5 413.5 c 128,-1,33
 665 453 665 453 506 487 c 2,34,-1
 442 502 l 2,35,36
 280 536 280 536 199.5 608.5 c 128,-1,37
 119 681 119 681 119 817 c 0,38,39
 119 983 119 983 235 1065 c 128,-1,40
 351 1147 351 1147 549 1147 c 0,0,1
EndSplineSet
EndChar

StartChar: t
Encoding: 116 116 88
Width: 803
GlyphClass: 2
Flags: W
LayerCount: 2
Fore
SplineSet
375 369 m 2,0,1
 375 300 375 300 381.5 261.5 c 128,-1,2
 388 223 388 223 409 197 c 128,-1,3
 430 171 430 171 466 162.5 c 128,-1,4
 502 154 502 154 565 154 c 2,5,-1
 754 154 l 1,6,-1
 754 0 l 1,7,-1
 565 0 l 2,8,9
 354 0 354 0 272 81 c 128,-1,10
 190 162 190 162 190 369 c 2,11,-1
 190 977 l 1,12,-1
 55 977 l 1,13,-1
 55 1120 l 1,14,-1
 190 1120 l 1,15,-1
 190 1438 l 1,16,-1
 375 1438 l 1,17,-1
 375 1120 l 1,18,-1
 754 1120 l 1,19,-1
 754 977 l 1,20,-1
 375 977 l 1,21,-1
 375 369 l 2,0,1
EndSplineSet
EndChar

StartChar: u
Encoding: 117 117 89
Width: 1298
GlyphClass: 2
Flags: W
LayerCount: 2
Fore
SplineSet
567 -29 m 0,0,1
 531 -29 531 -29 498 -25 c 128,-1,2
 465 -21 465 -21 424 -8 c 128,-1,3
 383 5 383 5 349 25.5 c 128,-1,4
 315 46 315 46 281.5 82.5 c 128,-1,5
 248 119 248 119 225 166.5 c 128,-1,6
 202 214 202 214 188 285 c 128,-1,7
 174 356 174 356 174 442 c 2,8,-1
 174 1120 l 1,9,-1
 358 1120 l 1,10,-1
 358 449 l 2,11,12
 358 131 358 131 606 131 c 0,13,14
 757 131 757 131 842.5 226.5 c 128,-1,15
 928 322 928 322 928 485 c 2,16,-1
 928 1120 l 1,17,-1
 1112 1120 l 1,18,-1
 1112 0 l 1,19,-1
 928 0 l 1,20,-1
 928 172 l 1,21,22
 796 -29 796 -29 567 -29 c 0,0,1
EndSplineSet
EndChar

StartChar: v
Encoding: 118 118 90
Width: 1212
GlyphClass: 2
Flags: W
LayerCount: 2
Fore
SplineSet
61 1120 m 1,0,-1
 256 1120 l 1,1,-1
 606 180 l 1,2,-1
 956 1120 l 1,3,-1
 1151 1120 l 1,4,-1
 731 0 l 1,5,-1
 481 0 l 1,6,-1
 61 1120 l 1,0,-1
EndSplineSet
EndChar

StartChar: w
Encoding: 119 119 91
Width: 1577
GlyphClass: 2
Flags: W
LayerCount: 2
Fore
SplineSet
1243 748 m 0,0,1
 1243 1050 1243 1050 1098 1188.5 c 128,-1,2
 953 1327 953 1327 647 1327 c 2,3,-1
 403 1327 l 1,4,-1
 403 166 l 1,5,-1
 647 166 l 2,6,7
 953 166 953 166 1098 305.5 c 128,-1,8
 1243 445 1243 445 1243 748 c 0,0,1
1456 748 m 0,9,10
 1456 548 1456 548 1402.5 404.5 c 128,-1,11
 1349 261 1349 261 1240.5 172 c 128,-1,12
 1132 83 1132 83 978.5 41.5 c 128,-1,13
 825 0 825 0 616 0 c 2,14,-1
 201 0 l 1,15,-1
 201 1493 l 1,16,-1
 616 1493 l 2,17,18
 1038 1493 1038 1493 1247 1317 c 128,-1,19
 1456 1141 1456 1141 1456 748 c 0,9,10
EndSplineSet
EndChar

StartChar: x
Encoding: 120 120 92
Width: 1251
GlyphClass: 2
Flags: W
LayerCount: 2
Fore
SplineSet
-6 1493 m 1,0,-1
 1257 1493 l 1,1,-1
 1257 1323 l 1,2,-1
 727 1323 l 1,3,-1
 727 0 l 1,4,-1
 524 0 l 1,5,-1
 524 1323 l 1,6,-1
 -6 1323 l 1,7,-1
 -6 1493 l 1,0,-1
EndSplineSet
EndChar

StartChar: y
Encoding: 121 121 93
Width: 1212
GlyphClass: 2
Flags: W
LayerCount: 2
Fore
SplineSet
659 -104 m 2,0,1
 624 -195 624 -195 593.5 -251 c 128,-1,2
 563 -307 563 -307 522.5 -349 c 128,-1,3
 482 -391 482 -391 431 -408.5 c 128,-1,4
 380 -426 380 -426 309 -426 c 2,5,-1
 162 -426 l 1,6,-1
 162 -272 l 1,7,-1
 270 -272 l 2,8,9
 353 -272 353 -272 394 -229 c 128,-1,10
 435 -186 435 -186 481 -66 c 2,11,-1
 514 18 l 1,12,-1
 61 1120 l 1,13,-1
 256 1120 l 1,14,-1
 606 244 l 1,15,-1
 956 1120 l 1,16,-1
 1151 1120 l 1,17,-1
 659 -104 l 2,0,1
EndSplineSet
EndChar

StartChar: z
Encoding: 122 122 94
Width: 1380
GlyphClass: 2
Flags: W
LayerCount: 2
Fore
SplineSet
55 1473 m 1,0,-1
 1313 1473 l 1,1,-1
 1313 1280 l 1,2,-1
 354 1280 l 1,3,-1
 1026 563 l 1,4,-1
 332 -201 l 1,5,-1
 1339 -201 l 1,6,-1
 1339 -393 l 1,7,-1
 25 -393 l 1,8,-1
 25 -244 l 1,9,-1
 750 557 l 1,10,-1
 55 1296 l 1,11,-1
 55 1473 l 1,0,-1
EndSplineSet
EndChar

StartChar: braceleft
Encoding: 123 123 95
Width: 1303
GlyphClass: 2
Flags: W
LayerCount: 2
Fore
SplineSet
979 1413 m 2,0,1
 905 1413 905 1413 863 1404.5 c 128,-1,2
 821 1396 821 1396 795 1369 c 128,-1,3
 769 1342 769 1342 760.5 1300 c 128,-1,4
 752 1258 752 1258 752 1184 c 2,5,-1
 752 936 l 2,6,7
 752 776 752 776 705 706 c 128,-1,8
 658 636 658 636 551 612 c 1,9,10
 658 586 658 586 705 516.5 c 128,-1,11
 752 447 752 447 752 287 c 2,12,-1
 752 39 l 2,13,14
 752 -35 752 -35 760.5 -77 c 128,-1,15
 769 -119 769 -119 795 -146 c 128,-1,16
 821 -173 821 -173 863 -181.5 c 128,-1,17
 905 -190 905 -190 979 -190 c 2,18,-1
 1047 -190 l 1,19,-1
 1047 -334 l 1,20,-1
 985 -334 l 2,21,22
 737 -334 737 -334 652 -260 c 0,23,24
 567 -187 567 -187 567 35 c 2,25,-1
 567 274 l 2,26,27
 567 424 567 424 512.5 482.5 c 128,-1,28
 458 541 458 541 317 541 c 2,29,-1
 256 541 l 1,30,-1
 256 684 l 1,31,-1
 317 684 l 2,32,33
 456 684 456 684 511.5 741.5 c 128,-1,34
 567 799 567 799 567 948 c 2,35,-1
 567 1188 l 2,36,37
 567 1410 567 1410 652 1482 c 0,38,39
 735 1556 735 1556 985 1556 c 2,40,-1
 1047 1556 l 1,41,-1
 1047 1413 l 1,42,-1
 979 1413 l 2,0,1
EndSplineSet
EndChar

StartChar: bar
Encoding: 124 124 96
Width: 690
GlyphClass: 2
Flags: W
LayerCount: 2
Fore
SplineSet
430 1565 m 1,0,-1
 430 -483 l 1,1,-1
 260 -483 l 1,2,-1
 260 1565 l 1,3,-1
 430 1565 l 1,0,-1
EndSplineSet
EndChar

StartChar: braceright
Encoding: 125 125 97
Width: 1303
GlyphClass: 2
Flags: W
LayerCount: 2
Fore
SplineSet
551 1184 m 2,0,1
 551 1258 551 1258 543 1300 c 128,-1,2
 535 1342 535 1342 509 1369 c 128,-1,3
 483 1396 483 1396 441.5 1404.5 c 128,-1,4
 400 1413 400 1413 326 1413 c 2,5,-1
 256 1413 l 1,6,-1
 256 1556 l 1,7,-1
 319 1556 l 2,8,9
 569 1556 569 1556 652 1482 c 0,10,11
 735 1410 735 1410 735 1188 c 2,12,-1
 735 948 l 2,13,14
 735 800 735 800 790 742 c 128,-1,15
 845 684 845 684 985 684 c 2,16,-1
 1047 684 l 1,17,-1
 1047 541 l 1,18,-1
 985 541 l 2,19,20
 846 541 846 541 790.5 483 c 128,-1,21
 735 425 735 425 735 274 c 2,22,-1
 735 35 l 2,23,24
 735 -186 735 -186 652 -260 c 0,25,26
 567 -334 567 -334 319 -334 c 2,27,-1
 256 -334 l 1,28,-1
 256 -190 l 1,29,-1
 326 -190 l 2,30,31
 400 -190 400 -190 441.5 -181.5 c 128,-1,32
 483 -173 483 -173 509 -146 c 128,-1,33
 535 -119 535 -119 543 -77.5 c 128,-1,34
 551 -36 551 -36 551 39 c 2,35,-1
 551 287 l 2,36,37
 551 396 551 396 574 463 c 128,-1,38
 597 530 597 530 638.5 562.5 c 128,-1,39
 680 595 680 595 752 612 c 1,40,41
 645 636 645 636 598 705.5 c 128,-1,42
 551 775 551 775 551 936 c 2,43,-1
 551 1184 l 2,0,1
EndSplineSet
EndChar

StartChar: asciitilde
Encoding: 126 126 98
Width: 1716
GlyphClass: 2
Flags: W
LayerCount: 2
Fore
SplineSet
1141 657 m 0,0,1
 1238 657 1238 657 1323.5 700.5 c 128,-1,2
 1409 744 1409 744 1499 817 c 1,3,-1
 1499 639 l 1,4,5
 1406 569 1406 569 1315 530.5 c 128,-1,6
 1224 492 1224 492 1118 492 c 0,7,8
 1052 492 1052 492 974.5 513 c 128,-1,9
 897 534 897 534 838 559.5 c 128,-1,10
 779 585 779 585 706 606 c 128,-1,11
 633 627 633 627 575 627 c 0,12,13
 406 627 406 627 217 467 c 1,14,-1
 217 645 l 1,15,16
 312 716 312 716 402.5 754.5 c 128,-1,17
 493 793 493 793 598 793 c 0,18,19
 670 793 670 793 750 771.5 c 128,-1,20
 830 750 830 750 887.5 725 c 128,-1,21
 945 700 945 700 1015 678.5 c 128,-1,22
 1085 657 1085 657 1141 657 c 0,0,1
EndSplineSet
EndChar

StartChar: plusminus
Encoding: 177 177 99
Width: 1716
GlyphClass: 2
Flags: W
LayerCount: 2
Fore
SplineSet
942 1284 m 1,0,-1
 942 897 l 1,1,-1
 1499 897 l 1,2,-1
 1499 727 l 1,3,-1
 942 727 l 1,4,-1
 942 340 l 1,5,-1
 774 340 l 1,6,-1
 774 727 l 1,7,-1
 217 727 l 1,8,-1
 217 897 l 1,9,-1
 774 897 l 1,10,-1
 774 1284 l 1,11,-1
 942 1284 l 1,0,-1
217 170 m 1,12,-1
 1499 170 l 1,13,-1
 1499 0 l 1,14,-1
 217 0 l 1,15,-1
 217 170 l 1,12,-1
EndSplineSet
EndChar

StartChar: uni00B2
Encoding: 178 178 100
Width: 821
GlyphClass: 2
Flags: W
LayerCount: 2
Fore
SplineSet
367 1520 m 0,0,1
 513 1520 513 1520 599.5 1454.5 c 128,-1,2
 686 1389 686 1389 686 1280 c 0,3,4
 686 1140 686 1140 355 857 c 2,5,-1
 268 782 l 1,6,-1
 692 782 l 1,7,-1
 692 668 l 1,8,-1
 94 668 l 1,9,-1
 94 778 l 1,10,-1
 191 865 l 2,11,12
 535 1170 535 1170 535 1264 c 0,13,14
 535 1330 535 1330 483.5 1370.5 c 128,-1,15
 432 1411 432 1411 346 1411 c 0,16,17
 243 1411 243 1411 100 1341 c 1,18,-1
 100 1464 l 1,19,20
 259 1520 259 1520 367 1520 c 0,0,1
EndSplineSet
EndChar

StartChar: uni00B3
Encoding: 179 179 101
Width: 821
GlyphClass: 2
Flags: W
LayerCount: 2
Fore
SplineSet
696 1303 m 0,0,1
 696 1226 696 1226 647 1181 c 128,-1,2
 598 1136 598 1136 524 1120 c 1,3,4
 612 1102 612 1102 664.5 1050 c 128,-1,5
 717 998 717 998 717 911 c 0,6,7
 717 779 717 779 617 716 c 128,-1,8
 517 653 517 653 350 653 c 0,9,10
 241 653 241 653 98 694 c 1,11,-1
 98 815 l 1,12,13
 199 762 199 762 336 762 c 0,14,15
 437 762 437 762 501 798.5 c 128,-1,16
 565 835 565 835 565 911 c 0,17,18
 565 1061 565 1061 346 1061 c 2,19,-1
 260 1061 l 1,20,-1
 260 1169 l 1,21,-1
 354 1169 l 2,22,23
 545 1169 545 1169 545 1292 c 0,24,25
 545 1411 545 1411 350 1411 c 0,26,27
 272 1411 272 1411 127 1370 c 1,28,-1
 127 1485 l 1,29,30
 278 1520 278 1520 383 1520 c 0,31,32
 542 1520 542 1520 619 1456 c 128,-1,33
 696 1392 696 1392 696 1303 c 0,0,1
EndSplineSet
EndChar

StartChar: acute
Encoding: 180 180 102
Width: 1024
GlyphClass: 2
Flags: W
LayerCount: 2
Fore
SplineSet
651 1638 m 1,0,-1
 850 1638 l 1,1,-1
 524 1262 l 1,2,-1
 371 1262 l 1,3,-1
 651 1638 l 1,0,-1
EndSplineSet
EndChar

StartChar: mu
Encoding: 181 181 103
Width: 1303
GlyphClass: 2
Flags: W
LayerCount: 2
Fore
SplineSet
645 -29 m 0,0,1
 442 -29 442 -29 358 127 c 1,2,-1
 358 -426 l 1,3,-1
 174 -426 l 1,4,-1
 174 1120 l 1,5,-1
 358 1120 l 1,6,-1
 358 424 l 2,7,8
 358 281 358 281 426.5 206 c 128,-1,9
 495 131 495 131 631 131 c 0,10,11
 928 131 928 131 928 467 c 2,12,-1
 928 1120 l 1,13,-1
 1112 1120 l 1,14,-1
 1112 258 l 2,15,16
 1112 141 1112 141 1184 141 c 0,17,18
 1197 141 1197 141 1253 164 c 1,19,-1
 1253 16 l 1,20,21
 1171 -29 1171 -29 1104 -29 c 0,22,23
 967 -29 967 -29 938 129 c 1,24,25
 838 -29 838 -29 645 -29 c 0,0,1
EndSplineSet
EndChar

StartChar: paragraph
Encoding: 182 182 104
Width: 1303
GlyphClass: 2
Flags: W
LayerCount: 2
Fore
SplineSet
158 1071 m 0,0,1
 158 1262 158 1262 287 1377.5 c 128,-1,2
 416 1493 416 1493 633 1493 c 2,3,-1
 1081 1493 l 1,4,-1
 1081 -197 l 1,5,-1
 940 -197 l 1,6,-1
 940 1370 l 1,7,-1
 750 1370 l 1,8,-1
 750 -197 l 1,9,-1
 608 -197 l 1,10,-1
 608 649 l 1,11,12
 396 666 396 666 277 775 c 128,-1,13
 158 884 158 884 158 1071 c 0,0,1
EndSplineSet
EndChar

StartChar: periodcentered
Encoding: 183 183 105
Width: 651
GlyphClass: 2
Flags: W
LayerCount: 2
Fore
SplineSet
219 838 m 1,0,-1
 430 838 l 1,1,-1
 430 584 l 1,2,-1
 219 584 l 1,3,-1
 219 838 l 1,0,-1
EndSplineSet
EndChar

StartChar: cedilla
Encoding: 184 184 106
Width: 1024
GlyphClass: 2
Flags: W
LayerCount: 2
Fore
SplineSet
565 -178 m 0,0,1
 565 -119 565 -119 477 0 c 1,2,-1
 596 0 l 1,3,4
 705 -122 705 -122 705 -215 c 0,5,6
 705 -395 705 -395 467 -395 c 0,7,8
 377 -395 377 -395 291 -371 c 1,9,-1
 291 -240 l 1,10,11
 356 -272 356 -272 446 -272 c 0,12,13
 565 -272 565 -272 565 -178 c 0,0,1
EndSplineSet
EndChar

StartChar: uni00B9
Encoding: 185 185 107
Width: 821
GlyphClass: 2
Flags: W
LayerCount: 2
Fore
SplineSet
156 778 m 1,0,-1
 360 778 l 1,1,-1
 360 1389 l 1,2,-1
 137 1348 l 1,3,-1
 137 1464 l 1,4,-1
 367 1503 l 1,5,-1
 504 1503 l 1,6,-1
 504 778 l 1,7,-1
 709 778 l 1,8,-1
 709 668 l 1,9,-1
 156 668 l 1,10,-1
 156 778 l 1,0,-1
EndSplineSet
EndChar

StartChar: ordmasculine
Encoding: 186 186 108
Width: 965
GlyphClass: 2
Flags: W
LayerCount: 2
Fore
SplineSet
139 592 m 1,0,-1
 827 592 l 1,1,-1
 827 469 l 1,2,-1
 139 469 l 1,3,-1
 139 592 l 1,0,-1
96 1108 m 0,4,5
 96 1299 96 1299 199.5 1409.5 c 128,-1,6
 303 1520 303 1520 483 1520 c 0,7,8
 664 1520 664 1520 766 1409.5 c 128,-1,9
 868 1299 868 1299 868 1108 c 128,-1,10
 868 917 868 917 766 807.5 c 128,-1,11
 664 698 664 698 483 698 c 0,12,13
 303 698 303 698 199.5 808 c 128,-1,14
 96 918 96 918 96 1108 c 0,4,5
713 1108 m 0,15,16
 713 1240 713 1240 653.5 1322.5 c 128,-1,17
 594 1405 594 1405 483 1405 c 0,18,19
 375 1405 375 1405 313.5 1323.5 c 128,-1,20
 252 1242 252 1242 252 1108 c 128,-1,21
 252 974 252 974 315 894.5 c 128,-1,22
 378 815 378 815 483 815 c 0,23,24
 592 815 592 815 652.5 896.5 c 128,-1,25
 713 978 713 978 713 1108 c 0,15,16
EndSplineSet
EndChar

StartChar: guillemotright
Encoding: 187 187 109
Width: 1253
GlyphClass: 2
Flags: W
LayerCount: 2
Fore
SplineSet
193 1059 m 1,0,-1
 662 641 l 1,1,-1
 662 559 l 1,2,-1
 193 141 l 1,3,-1
 193 332 l 1,4,-1
 494 600 l 1,5,-1
 193 868 l 1,6,-1
 193 1059 l 1,0,-1
627 1059 m 1,7,-1
 1096 641 l 1,8,-1
 1096 559 l 1,9,-1
 627 141 l 1,10,-1
 627 332 l 1,11,-1
 928 600 l 1,12,-1
 627 868 l 1,13,-1
 627 1059 l 1,7,-1
EndSplineSet
EndChar

StartChar: questiondown
Encoding: 191 191 113
Width: 1087
GlyphClass: 2
Flags: W
LayerCount: 2
Fore
SplineSet
551 -29 m 0,0,1
 365 -29 365 -29 254 67.5 c 128,-1,2
 143 164 143 164 143 324 c 0,3,4
 143 405 143 405 182 473.5 c 128,-1,5
 221 542 221 542 305 623 c 2,6,-1
 393 709 l 2,7,8
 465 779 465 779 482.5 821.5 c 128,-1,9
 500 864 500 864 500 969 c 2,10,-1
 500 1092 l 1,11,-1
 690 1092 l 1,12,-1
 690 936 l 2,13,14
 690 829 690 829 659.5 764 c 128,-1,15
 629 699 629 699 545 618 c 2,16,-1
 455 530 l 1,17,18
 346 432 346 432 346 334 c 0,19,20
 346 244 346 244 411.5 189.5 c 128,-1,21
 477 135 477 135 586 135 c 0,22,23
 744 135 744 135 940 272 c 1,24,-1
 940 84 l 1,25,26
 755 -29 755 -29 551 -29 c 0,0,1
696 1239 m 1,27,-1
 494 1239 l 1,28,-1
 494 1493 l 1,29,-1
 696 1493 l 1,30,-1
 696 1239 l 1,27,-1
EndSplineSet
EndChar

StartChar: Aring
Encoding: 197 197 119
Width: 1401
GlyphClass: 2
Flags: W
LayerCount: 2
Fore
SplineSet
700 1475 m 0,0,1
 764 1475 764 1475 808 1518.5 c 128,-1,2
 852 1562 852 1562 852 1626 c 128,-1,3
 852 1690 852 1690 807 1734 c 128,-1,4
 762 1778 762 1778 700 1778 c 0,5,6
 636 1778 636 1778 592.5 1735.5 c 128,-1,7
 549 1693 549 1693 549 1626 c 0,8,9
 549 1562 549 1562 593 1518.5 c 128,-1,10
 637 1475 637 1475 700 1475 c 0,0,1
700 1294 m 1,11,-1
 428 551 l 1,12,-1
 973 551 l 1,13,-1
 700 1294 l 1,11,-1
975 1626 m 0,14,15
 975 1481 975 1481 852 1397 c 1,16,-1
 1384 0 l 1,17,-1
 1174 0 l 1,18,-1
 1038 383 l 1,19,-1
 365 383 l 1,20,-1
 229 0 l 1,21,-1
 16 0 l 1,22,-1
 549 1397 l 1,23,24
 426 1480 426 1480 426 1626 c 0,25,26
 426 1744 426 1744 505.5 1822.5 c 128,-1,27
 585 1901 585 1901 700 1901 c 128,-1,28
 815 1901 815 1901 895 1821 c 128,-1,29
 975 1741 975 1741 975 1626 c 0,14,15
EndSplineSet
EndChar

StartChar: AE
Encoding: 198 198 120
Width: 1995
GlyphClass: 2
Flags: W
LayerCount: 2
Fore
SplineSet
1845 1493 m 1,0,-1
 1845 1323 l 1,1,-1
 1104 1323 l 1,2,-1
 1104 881 l 1,3,-1
 1815 881 l 1,4,-1
 1815 711 l 1,5,-1
 1104 711 l 1,6,-1
 1104 170 l 1,7,-1
 1864 170 l 1,8,-1
 1864 0 l 1,9,-1
 901 0 l 1,10,-1
 901 383 l 1,11,-1
 373 383 l 1,12,-1
 213 0 l 1,13,-1
 8 0 l 1,14,-1
 633 1493 l 1,15,-1
 1845 1493 l 1,0,-1
772 1335 m 1,16,-1
 442 551 l 1,17,-1
 901 551 l 1,18,-1
 901 1335 l 1,19,-1
 772 1335 l 1,16,-1
EndSplineSet
EndChar

StartChar: Eth
Encoding: 208 208 130
Width: 1587
GlyphClass: 2
Flags: W
LayerCount: 2
Fore
SplineSet
1466 748 m 0,0,1
 1466 354 1466 354 1257 177 c 128,-1,2
 1048 0 1048 0 627 0 c 2,3,-1
 211 0 l 1,4,-1
 211 700 l 1,5,-1
 10 700 l 1,6,-1
 10 844 l 1,7,-1
 211 844 l 1,8,-1
 211 1493 l 1,9,-1
 627 1493 l 2,10,11
 1048 1493 1048 1493 1257 1317 c 128,-1,12
 1466 1141 1466 1141 1466 748 c 0,0,1
1253 748 m 0,13,14
 1253 1050 1253 1050 1108 1188.5 c 128,-1,15
 963 1327 963 1327 657 1327 c 2,16,-1
 414 1327 l 1,17,-1
 414 844 l 1,18,-1
 750 844 l 1,19,-1
 750 700 l 1,20,-1
 414 700 l 1,21,-1
 414 166 l 1,22,-1
 657 166 l 2,23,24
 963 166 963 166 1108 305.5 c 128,-1,25
 1253 445 1253 445 1253 748 c 0,13,14
EndSplineSet
EndChar

StartChar: multiply
Encoding: 215 215 137
Width: 1716
GlyphClass: 2
Flags: W
LayerCount: 2
Fore
SplineSet
1436 1100 m 1,0,-1
 979 641 l 1,1,-1
 1436 184 l 1,2,-1
 1317 63 l 1,3,-1
 858 522 l 1,4,-1
 399 63 l 1,5,-1
 281 184 l 1,6,-1
 737 641 l 1,7,-1
 281 1100 l 1,8,-1
 399 1221 l 1,9,-1
 858 762 l 1,10,-1
 1317 1221 l 1,11,-1
 1436 1100 l 1,0,-1
EndSplineSet
EndChar

StartChar: Oslash
Encoding: 216 216 138
Width: 1612
GlyphClass: 2
Flags: W
LayerCount: 2
Fore
SplineSet
807 135 m 0,0,1
 961 135 961 135 1070 215 c 128,-1,2
 1179 295 1179 295 1231.5 431 c 128,-1,3
 1284 567 1284 567 1284 745 c 0,4,5
 1284 970 1284 970 1206 1112 c 1,6,-1
 489 266 l 1,7,8
 616 135 616 135 807 135 c 0,0,1
807 1356 m 0,9,10
 653 1356 653 1356 543.5 1276 c 128,-1,11
 434 1196 434 1196 381 1060 c 128,-1,12
 328 924 328 924 328 745 c 0,13,14
 328 512 328 512 406 377 c 1,15,-1
 1124 1225 l 1,16,17
 999 1356 999 1356 807 1356 c 0,9,10
807 -29 m 0,18,19
 550 -29 550 -29 367 121 c 1,20,-1
 205 -70 l 1,21,-1
 102 18 l 1,22,-1
 272 219 l 1,23,24
 115 423 115 423 115 745 c 0,25,26
 115 976 115 976 197 1151 c 128,-1,27
 279 1326 279 1326 436.5 1423 c 128,-1,28
 594 1520 594 1520 807 1520 c 0,29,30
 1068 1520 1068 1520 1245 1368 c 1,31,-1
 1407 1559 l 1,32,-1
 1509 1470 l 1,33,-1
 1339 1272 l 1,34,35
 1497 1065 1497 1065 1497 745 c 0,36,37
 1497 393 1497 393 1311.5 182 c 128,-1,38
 1126 -29 1126 -29 807 -29 c 0,18,19
EndSplineSet
EndChar

StartChar: Thorn
Encoding: 222 222 144
Width: 1239
GlyphClass: 2
Flags: W
LayerCount: 2
Fore
SplineSet
1165 784 m 256,0,1
 1165 559 1165 559 1033.5 448.5 c 128,-1,2
 902 338 902 338 657 338 c 2,3,-1
 403 338 l 1,4,-1
 403 0 l 1,5,-1
 201 0 l 1,6,-1
 201 1493 l 1,7,-1
 403 1493 l 1,8,-1
 403 1229 l 1,9,-1
 657 1229 l 2,10,11
 903 1229 903 1229 1034 1119 c 128,-1,12
 1165 1009 1165 1009 1165 784 c 256,0,1
952 784 m 256,13,14
 952 919 952 919 875.5 991 c 128,-1,15
 799 1063 799 1063 657 1063 c 2,16,-1
 403 1063 l 1,17,-1
 403 504 l 1,18,-1
 657 504 l 2,19,20
 798 504 798 504 875 576.5 c 128,-1,21
 952 649 952 649 952 784 c 256,13,14
EndSplineSet
EndChar

StartChar: germandbls
Encoding: 223 223 145
Width: 1290
GlyphClass: 2
Flags: W
LayerCount: 2
Fore
SplineSet
639 1403 m 0,0,1
 509 1403 509 1403 441 1333.5 c 128,-1,2
 373 1264 373 1264 373 1133 c 2,3,-1
 373 0 l 1,4,-1
 186 0 l 1,5,-1
 186 1137 l 2,6,7
 186 1340 186 1340 306 1448 c 128,-1,8
 426 1556 426 1556 643 1556 c 0,9,10
 854 1556 854 1556 962 1439 c 128,-1,11
 1070 1322 1070 1322 1073 1100 c 1,12,13
 923 1092 923 1092 838.5 1035 c 128,-1,14
 754 978 754 978 754 881 c 0,15,16
 754 832 754 832 784 792 c 128,-1,17
 814 752 814 752 877 711 c 2,18,-1
 934 674 l 2,19,20
 1082 580 1082 580 1139 508.5 c 128,-1,21
 1196 437 1196 437 1196 326 c 0,22,23
 1196 148 1196 148 1080 59.5 c 128,-1,24
 964 -29 964 -29 760 -29 c 0,25,26
 635 -29 635 -29 487 20 c 1,27,-1
 487 184 l 1,28,29
 645 125 645 125 772 125 c 0,30,31
 831 125 831 125 875 137.5 c 128,-1,32
 919 150 919 150 944 169 c 128,-1,33
 969 188 969 188 984 214 c 128,-1,34
 999 240 999 240 1003.5 263 c 128,-1,35
 1008 286 1008 286 1008 311 c 0,36,37
 1008 380 1008 380 973.5 422 c 128,-1,38
 939 464 939 464 848 520 c 2,39,-1
 756 575 l 2,40,41
 657 636 657 636 615 704 c 128,-1,42
 573 772 573 772 573 860 c 0,43,44
 573 995 573 995 661 1078 c 128,-1,45
 749 1161 749 1161 891 1188 c 1,46,47
 883 1291 883 1291 818 1347 c 128,-1,48
 753 1403 753 1403 639 1403 c 0,0,1
EndSplineSet
EndChar

StartChar: adieresis
Encoding: 228 228 150
Width: 1255
GlyphClass: 2
Flags: W
LayerCount: 2
Fore
SplineSet
688 1552 m 1
 891 1552 l 1
 891 1350 l 1
 688 1350 l 1
 688 1552 l 1
297 1552 m 1
 500 1552 l 1
 500 1350 l 1
 297 1350 l 1
 297 1552 l 1
EndSplineSet
Refer: 69 97 N 1 0 0 1 0 0 3
EndChar

StartChar: ae
Encoding: 230 230 152
Width: 2011
GlyphClass: 2
Flags: W
LayerCount: 2
Fore
SplineSet
1718 660 m 1,0,1
 1717 813 1717 813 1634.5 902 c 128,-1,2
 1552 991 1552 991 1415 991 c 0,3,4
 1259 991 1259 991 1168 903.5 c 128,-1,5
 1077 816 1077 816 1063 660 c 1,6,-1
 1718 660 l 1,0,1
586 1147 m 0,7,8
 722 1147 722 1147 830 1101 c 128,-1,9
 938 1055 938 1055 995 963 c 1,10,11
 1147 1147 1147 1147 1413 1147 c 0,12,13
 1642 1147 1642 1147 1772.5 1001 c 128,-1,14
 1903 855 1903 855 1903 606 c 2,15,-1
 1903 516 l 1,16,-1
 1057 516 l 1,17,18
 1069 328 1069 328 1169.5 226.5 c 128,-1,19
 1270 125 1270 125 1456 125 c 0,20,21
 1659 125 1659 125 1860 231 c 1,22,-1
 1860 57 l 1,23,24
 1655 -29 1655 -29 1446 -29 c 0,25,26
 1110 -29 1110 -29 954 211 c 1,27,28
 808 -29 808 -29 522 -29 c 0,29,30
 335 -29 335 -29 229 63 c 128,-1,31
 123 155 123 155 123 326 c 0,32,33
 123 707 123 707 627 707 c 2,34,-1
 885 707 l 1,35,-1
 885 725 l 2,36,37
 885 855 885 855 800 923 c 128,-1,38
 715 991 715 991 567 991 c 0,39,40
 374 991 374 991 205 899 c 1,41,-1
 205 1069 l 1,42,43
 409 1147 409 1147 586 1147 c 0,7,8
547 125 m 0,44,45
 700 125 700 125 792.5 232.5 c 128,-1,46
 885 340 885 340 885 522 c 2,47,-1
 885 563 l 1,48,-1
 702 563 l 2,49,50
 495 563 495 563 401 515 c 128,-1,51
 307 467 307 467 307 338 c 0,52,53
 307 238 307 238 372 181.5 c 128,-1,54
 437 125 437 125 547 125 c 0,44,45
EndSplineSet
EndChar

StartChar: edieresis
Encoding: 235 235 157
Width: 1260
GlyphClass: 2
Flags: W
LayerCount: 2
Fore
SplineSet
745 1552 m 1
 948 1552 l 1
 948 1350 l 1
 745 1350 l 1
 745 1552 l 1
354 1552 m 1
 557 1552 l 1
 557 1350 l 1
 354 1350 l 1
 354 1552 l 1
EndSplineSet
Refer: 73 101 N 1 0 0 1 0 0 3
EndChar

StartChar: idieresis
Encoding: 239 239 161
Width: 569
GlyphClass: 2
Flags: W
LayerCount: 2
Fore
SplineSet
379 1552 m 1
 582 1552 l 1
 582 1350 l 1
 379 1350 l 1
 379 1552 l 1
-12 1552 m 1
 191 1552 l 1
 191 1350 l 1
 -12 1350 l 1
 -12 1552 l 1
EndSplineSet
Refer: 186 305 N 1 0 0 1 0 0 3
EndChar

StartChar: eth
Encoding: 240 240 162
Width: 1253
GlyphClass: 2
Flags: W
LayerCount: 2
Fore
SplineSet
627 127 m 0,0,1
 776 127 776 127 861 239 c 128,-1,2
 946 351 946 351 946 537 c 0,3,4
 946 778 946 778 838 915 c 1,5,6
 737 948 737 948 659 948 c 0,7,8
 488 948 488 948 397.5 838.5 c 128,-1,9
 307 729 307 729 307 537 c 0,10,11
 307 355 307 355 390.5 241 c 128,-1,12
 474 127 474 127 627 127 c 0,0,1
113 537 m 0,13,14
 113 788 113 788 250 943 c 128,-1,15
 387 1098 387 1098 610 1098 c 0,16,17
 634 1098 634 1098 722 1088 c 1,18,-1
 563 1268 l 1,19,-1
 244 1161 l 1,20,-1
 211 1260 l 1,21,-1
 492 1352 l 1,22,-1
 311 1556 l 1,23,-1
 539 1556 l 1,24,-1
 666 1411 l 1,25,-1
 999 1522 l 1,26,-1
 1032 1425 l 1,27,-1
 737 1327 l 1,28,-1
 901 1141 l 2,29,30
 1024 1002 1024 1002 1082.5 858 c 128,-1,31
 1141 714 1141 714 1141 537 c 0,32,33
 1141 280 1141 280 1000 125.5 c 128,-1,34
 859 -29 859 -29 627 -29 c 128,-1,35
 395 -29 395 -29 254 125.5 c 128,-1,36
 113 280 113 280 113 537 c 0,13,14
EndSplineSet
EndChar

StartChar: odieresis
Encoding: 246 246 168
Width: 1253
GlyphClass: 2
Flags: W
LayerCount: 2
Fore
SplineSet
721 1552 m 1
 924 1552 l 1
 924 1350 l 1
 721 1350 l 1
 721 1552 l 1
330 1552 m 1
 533 1552 l 1
 533 1350 l 1
 330 1350 l 1
 330 1552 l 1
EndSplineSet
Refer: 83 111 N 1 0 0 1 0 0 3
EndChar

StartChar: divide
Encoding: 247 247 169
Width: 1716
GlyphClass: 2
Flags: W
LayerCount: 2
Fore
SplineSet
735 1135 m 1,0,-1
 981 1135 l 1,1,-1
 981 889 l 1,2,-1
 735 889 l 1,3,-1
 735 1135 l 1,0,-1
735 395 m 1,4,-1
 981 395 l 1,5,-1
 981 150 l 1,6,-1
 735 150 l 1,7,-1
 735 395 l 1,4,-1
217 727 m 1,8,-1
 1499 727 l 1,9,-1
 1499 557 l 1,10,-1
 217 557 l 1,11,-1
 217 727 l 1,8,-1
EndSplineSet
EndChar

StartChar: oslash
Encoding: 248 248 170
Width: 1253
GlyphClass: 2
Flags: W
LayerCount: 2
Fore
SplineSet
627 127 m 0,0,1
 782 127 782 127 864 247.5 c 128,-1,2
 946 368 946 368 946 559 c 0,3,4
 946 713 946 713 905 801 c 1,5,-1
 418 209 l 1,6,7
 498 127 498 127 627 127 c 0,0,1
627 991 m 0,8,9
 467 991 467 991 387 868 c 128,-1,10
 307 745 307 745 307 545 c 0,11,12
 307 406 307 406 346 317 c 1,13,-1
 834 909 l 1,14,15
 749 991 749 991 627 991 c 0,8,9
627 -29 m 0,16,17
 434 -29 434 -29 307 74 c 1,18,-1
 168 -94 l 1,19,-1
 72 -16 l 1,20,-1
 221 166 l 1,21,22
 113 321 113 321 113 559 c 0,23,24
 113 831 113 831 246.5 989 c 128,-1,25
 380 1147 380 1147 627 1147 c 0,26,27
 812 1147 812 1147 946 1044 c 1,28,-1
 1085 1212 l 1,29,-1
 1180 1133 l 1,30,-1
 1034 954 l 1,31,32
 1141 800 1141 800 1141 559 c 0,33,34
 1141 288 1141 288 1006.5 129.5 c 128,-1,35
 872 -29 872 -29 627 -29 c 0,16,17
EndSplineSet
EndChar

StartChar: udieresis
Encoding: 252 252 174
Width: 1298
GlyphClass: 2
Flags: W
LayerCount: 2
Fore
SplineSet
729 1552 m 1
 932 1552 l 1
 932 1350 l 1
 729 1350 l 1
 729 1552 l 1
338 1552 m 1
 541 1552 l 1
 541 1350 l 1
 338 1350 l 1
 338 1552 l 1
EndSplineSet
Refer: 89 117 N 1 0 0 1 0 0 3
EndChar

StartChar: thorn
Encoding: 254 254 176
Width: 1300
GlyphClass: 2
Flags: W
LayerCount: 2
Fore
SplineSet
729 -29 m 0,0,1
 485 -29 485 -29 371 168 c 1,2,-1
 371 -426 l 1,3,-1
 186 -426 l 1,4,-1
 186 1556 l 1,5,-1
 371 1556 l 1,6,-1
 371 950 l 1,7,8
 485 1147 485 1147 729 1147 c 0,9,10
 935 1147 935 1147 1061.5 985.5 c 128,-1,11
 1188 824 1188 824 1188 559 c 128,-1,12
 1188 294 1188 294 1061.5 132.5 c 128,-1,13
 935 -29 935 -29 729 -29 c 0,0,1
684 125 m 0,14,15
 763 125 763 125 823.5 158.5 c 128,-1,16
 884 192 884 192 921.5 251.5 c 128,-1,17
 959 311 959 311 978 388.5 c 128,-1,18
 997 466 997 466 997 559 c 0,19,20
 997 752 997 752 918 872.5 c 128,-1,21
 839 993 839 993 684 993 c 0,22,23
 605 993 605 993 544.5 959.5 c 128,-1,24
 484 926 484 926 446.5 866.5 c 128,-1,25
 409 807 409 807 390 729.5 c 128,-1,26
 371 652 371 652 371 559 c 0,27,28
 371 366 371 366 450 245.5 c 128,-1,29
 529 125 529 125 684 125 c 0,14,15
EndSplineSet
EndChar

StartChar: ydieresis
Encoding: 255 255 177
Width: 1212
GlyphClass: 2
Flags: W
LayerCount: 2
Fore
SplineSet
700 1552 m 1
 903 1552 l 1
 903 1350 l 1
 700 1350 l 1
 700 1552 l 1
309 1552 m 1
 512 1552 l 1
 512 1350 l 1
 309 1350 l 1
 309 1552 l 1
EndSplineSet
Refer: 93 121 N 1 0 0 1 0 0 3
EndChar

StartChar: dcroat
Encoding: 273 273 182
Width: 1300
GlyphClass: 2
Flags: W
LayerCount: 2
Fore
SplineSet
571 1147 m 0,0,1
 816 1147 816 1147 930 950 c 1,2,-1
 930 1284 l 1,3,-1
 604 1284 l 1,4,-1
 604 1409 l 1,5,-1
 930 1409 l 1,6,-1
 930 1556 l 1,7,-1
 1114 1556 l 1,8,-1
 1114 1409 l 1,9,-1
 1268 1409 l 1,10,-1
 1268 1284 l 1,11,-1
 1114 1284 l 1,12,-1
 1114 0 l 1,13,-1
 930 0 l 1,14,-1
 930 168 l 1,15,16
 815 -29 815 -29 571 -29 c 0,17,18
 365 -29 365 -29 239 133 c 128,-1,19
 113 295 113 295 113 559 c 128,-1,20
 113 823 113 823 239 985 c 128,-1,21
 365 1147 365 1147 571 1147 c 0,0,1
616 993 m 0,22,23
 537 993 537 993 476.5 959.5 c 128,-1,24
 416 926 416 926 378.5 866.5 c 128,-1,25
 341 807 341 807 322 729.5 c 128,-1,26
 303 652 303 652 303 559 c 0,27,28
 303 366 303 366 382 245.5 c 128,-1,29
 461 125 461 125 616 125 c 0,30,31
 695 125 695 125 756 158.5 c 128,-1,32
 817 192 817 192 854.5 251.5 c 128,-1,33
 892 311 892 311 911 388.5 c 128,-1,34
 930 466 930 466 930 559 c 0,35,36
 930 756 930 756 849 874.5 c 128,-1,37
 768 993 768 993 616 993 c 0,22,23
EndSplineSet
EndChar

StartChar: dotlessi
Encoding: 305 305 186
Width: 569
GlyphClass: 2
Flags: W
LayerCount: 2
Fore
SplineSet
193 1120 m 1,0,-1
 377 1120 l 1,1,-1
 377 0 l 1,2,-1
 193 0 l 1,3,-1
 193 1120 l 1,0,-1
EndSplineSet
EndChar

StartChar: Lslash
Encoding: 321 321 187
Width: 1151
GlyphClass: 2
Flags: W
LayerCount: 2
Fore
SplineSet
211 1493 m 1,0,-1
 414 1493 l 1,1,-1
 414 877 l 1,2,-1
 727 1096 l 1,3,-1
 807 985 l 1,4,-1
 414 711 l 1,5,-1
 414 170 l 1,6,-1
 1141 170 l 1,7,-1
 1141 0 l 1,8,-1
 211 0 l 1,9,-1
 211 571 l 1,10,-1
 63 465 l 1,11,-1
 -14 575 l 1,12,-1
 211 733 l 1,13,-1
 211 1493 l 1,0,-1
EndSplineSet
EndChar

StartChar: lslash
Encoding: 322 322 188
Width: 582
GlyphClass: 2
Flags: W
LayerCount: 2
Fore
SplineSet
199 1556 m 1,0,-1
 383 1556 l 1,1,-1
 383 954 l 1,2,-1
 508 1044 l 1,3,-1
 584 938 l 1,4,-1
 383 797 l 1,5,-1
 383 0 l 1,6,-1
 199 0 l 1,7,-1
 199 666 l 1,8,-1
 76 578 l 1,9,-1
 2 684 l 1,10,-1
 199 825 l 1,11,-1
 199 1556 l 1,0,-1
EndSplineSet
EndChar

StartChar: OE
Encoding: 338 338 189
Width: 2191
GlyphClass: 2
Flags: W
LayerCount: 2
Fore
SplineSet
115 748 m 0,0,1
 115 816 115 816 122.5 879 c 128,-1,2
 130 942 130 942 153.5 1019 c 128,-1,3
 177 1096 177 1096 215.5 1160.5 c 128,-1,4
 254 1225 254 1225 322 1288.5 c 128,-1,5
 390 1352 390 1352 479.5 1395.5 c 128,-1,6
 569 1439 569 1439 701.5 1466 c 128,-1,7
 834 1493 834 1493 995 1493 c 2,8,-1
 2042 1493 l 1,9,-1
 2042 1323 l 1,10,-1
 1300 1323 l 1,11,-1
 1300 881 l 1,12,-1
 2011 881 l 1,13,-1
 2011 711 l 1,14,-1
 1300 711 l 1,15,-1
 1300 170 l 1,16,-1
 2060 170 l 1,17,-1
 2060 0 l 1,18,-1
 995 0 l 2,19,20
 834 0 834 0 701.5 27 c 128,-1,21
 569 54 569 54 479.5 97.5 c 128,-1,22
 390 141 390 141 322 204.5 c 128,-1,23
 254 268 254 268 215.5 333 c 128,-1,24
 177 398 177 398 153.5 475.5 c 128,-1,25
 130 553 130 553 122.5 616 c 128,-1,26
 115 679 115 679 115 748 c 0,0,1
328 748 m 0,27,28
 328 170 328 170 969 170 c 2,29,-1
 1098 170 l 1,30,-1
 1098 1323 l 1,31,-1
 969 1323 l 2,32,33
 328 1323 328 1323 328 748 c 0,27,28
EndSplineSet
EndChar

StartChar: oe
Encoding: 339 339 190
Width: 2095
GlyphClass: 2
Flags: W
LayerCount: 2
Fore
SplineSet
1802 660 m 1,0,1
 1800 814 1800 814 1718 902.5 c 128,-1,2
 1636 991 1636 991 1499 991 c 0,3,4
 1343 991 1343 991 1252 903.5 c 128,-1,5
 1161 816 1161 816 1147 660 c 1,6,-1
 1802 660 l 1,0,1
1497 1147 m 0,7,8
 1726 1147 1726 1147 1856.5 1001 c 128,-1,9
 1987 855 1987 855 1987 606 c 2,10,-1
 1987 516 l 1,11,-1
 1141 516 l 1,12,13
 1153 328 1153 328 1253.5 227.5 c 128,-1,14
 1354 127 1354 127 1540 127 c 0,15,16
 1749 127 1749 127 1944 231 c 1,17,-1
 1944 57 l 1,18,19
 1739 -29 1739 -29 1530 -29 c 0,20,21
 1210 -29 1210 -29 1047 190 c 1,22,23
 905 -29 905 -29 627 -29 c 0,24,25
 381 -29 381 -29 247 129 c 128,-1,26
 113 287 113 287 113 559 c 128,-1,27
 113 831 113 831 246.5 989 c 128,-1,28
 380 1147 380 1147 627 1147 c 0,29,30
 910 1147 910 1147 1044 928 c 1,31,32
 1123 1035 1123 1035 1238.5 1091 c 128,-1,33
 1354 1147 1354 1147 1497 1147 c 0,7,8
946 559 m 0,34,35
 946 754 946 754 862.5 872.5 c 128,-1,36
 779 991 779 991 627 991 c 0,37,38
 471 991 471 991 389 871 c 128,-1,39
 307 751 307 751 307 559 c 128,-1,40
 307 367 307 367 388.5 247 c 128,-1,41
 470 127 470 127 627 127 c 0,42,43
 782 127 782 127 864 247.5 c 128,-1,44
 946 368 946 368 946 559 c 0,34,35
EndSplineSet
EndChar

StartChar: florin
Encoding: 402 402 198
Width: 1303
GlyphClass: 2
Flags: W
LayerCount: 2
Fore
SplineSet
1083 1556 m 0,0,1
 1189 1556 1189 1556 1282 1520 c 1,2,-1
 1282 1356 l 1,3,4
 1207 1413 1207 1413 1120 1413 c 0,5,6
 1019 1413 1019 1413 963.5 1348 c 128,-1,7
 908 1283 908 1283 885 1159 c 2,8,-1
 825 848 l 1,9,-1
 1112 848 l 1,10,-1
 1112 705 l 1,11,-1
 795 705 l 1,12,-1
 668 70 l 2,13,14
 640 -69 640 -69 606 -159 c 128,-1,15
 572 -249 572 -249 521.5 -311 c 128,-1,16
 471 -373 471 -373 402.5 -399.5 c 128,-1,17
 334 -426 334 -426 236 -426 c 0,18,19
 122 -426 122 -426 31 -383 c 1,20,-1
 31 -217 l 1,21,22
 136 -283 136 -283 227 -283 c 0,23,24
 329 -283 329 -283 382.5 -209 c 128,-1,25
 436 -135 436 -135 467 20 c 2,26,-1
 604 705 l 1,27,-1
 356 705 l 1,28,-1
 356 848 l 1,29,-1
 635 848 l 1,30,-1
 698 1178 l 2,31,32
 703 1202 703 1202 707.5 1222 c 128,-1,33
 712 1242 712 1242 726.5 1283.5 c 128,-1,34
 741 1325 741 1325 758.5 1357.5 c 128,-1,35
 776 1390 776 1390 807 1429 c 128,-1,36
 838 1468 838 1468 874.5 1494 c 128,-1,37
 911 1520 911 1520 965.5 1538 c 128,-1,38
 1020 1556 1020 1556 1083 1556 c 0,0,1
EndSplineSet
EndChar

StartChar: dotlessj
Encoding: 567 567 199
Width: 569
GlyphClass: 2
Flags: W
LayerCount: 2
Fore
SplineSet
12 -270 m 2,0,1
 118 -270 118 -270 155.5 -218 c 128,-1,2
 193 -166 193 -166 193 -20 c 2,3,-1
 193 1120 l 1,4,-1
 377 1120 l 1,5,-1
 377 -20 l 2,6,7
 377 -226 377 -226 298.5 -326 c 128,-1,8
 220 -426 220 -426 33 -426 c 2,9,-1
 -37 -426 l 1,10,-1
 -37 -270 l 1,11,-1
 12 -270 l 2,0,1
EndSplineSet
EndChar

StartChar: circumflex
Encoding: 710 710 200
Width: 1024
GlyphClass: 2
Flags: W
LayerCount: 2
Fore
SplineSet
438 1638 m 1,0,-1
 586 1638 l 1,1,-1
 831 1262 l 1,2,-1
 692 1262 l 1,3,-1
 512 1507 l 1,4,-1
 332 1262 l 1,5,-1
 193 1262 l 1,6,-1
 438 1638 l 1,0,-1
EndSplineSet
EndChar

StartChar: caron
Encoding: 711 711 201
Width: 1024
GlyphClass: 2
Flags: W
LayerCount: 2
Fore
SplineSet
438 1262 m 1,0,-1
 193 1638 l 1,1,-1
 332 1638 l 1,2,-1
 512 1393 l 1,3,-1
 692 1638 l 1,4,-1
 831 1638 l 1,5,-1
 586 1262 l 1,6,-1
 438 1262 l 1,0,-1
EndSplineSet
EndChar

StartChar: breve
Encoding: 728 728 202
Width: 1024
GlyphClass: 2
Flags: W
LayerCount: 2
Fore
SplineSet
825 1608 m 1,0,1
 805 1321 805 1321 512 1321 c 128,-1,2
 219 1321 219 1321 199 1608 c 1,3,-1
 317 1608 l 1,4,5
 340 1458 340 1458 512 1458 c 0,6,7
 682 1458 682 1458 707 1608 c 1,8,-1
 825 1608 l 1,0,1
EndSplineSet
EndChar

StartChar: dotaccent
Encoding: 729 729 203
Width: 1024
GlyphClass: 2
Flags: W
LayerCount: 2
Fore
SplineSet
410 1552 m 1,0,-1
 614 1552 l 1,1,-1
 614 1348 l 1,2,-1
 410 1348 l 1,3,-1
 410 1552 l 1,0,-1
EndSplineSet
EndChar

StartChar: ring
Encoding: 730 730 204
Width: 1024
GlyphClass: 2
Flags: W
LayerCount: 2
Fore
SplineSet
512 1372 m 0,0,1
 578 1372 578 1372 621 1416.5 c 128,-1,2
 664 1461 664 1461 664 1524 c 128,-1,3
 664 1587 664 1587 621 1631 c 128,-1,4
 578 1675 578 1675 512 1675 c 0,5,6
 445 1675 445 1675 402.5 1631.5 c 128,-1,7
 360 1588 360 1588 360 1524 c 0,8,9
 360 1458 360 1458 403.5 1415 c 128,-1,10
 447 1372 447 1372 512 1372 c 0,0,1
512 1798 m 0,11,12
 629 1798 629 1798 707.5 1718.5 c 128,-1,13
 786 1639 786 1639 786 1524 c 0,14,15
 786 1406 786 1406 706.5 1327.5 c 128,-1,16
 627 1249 627 1249 512 1249 c 0,17,18
 394 1249 394 1249 316 1330 c 128,-1,19
 238 1411 238 1411 238 1524 c 0,20,21
 238 1641 238 1641 317.5 1719.5 c 128,-1,22
 397 1798 397 1798 512 1798 c 0,11,12
EndSplineSet
EndChar

StartChar: ogonek
Encoding: 731 731 205
Width: 1024
GlyphClass: 2
Flags: W
LayerCount: 2
Fore
SplineSet
332 -215 m 0,0,1
 332 -121 332 -121 440 0 c 1,2,-1
 559 0 l 1,3,4
 471 -119 471 -119 471 -180 c 0,5,6
 471 -272 471 -272 580 -272 c 0,7,8
 641 -272 641 -272 705 -242 c 1,9,-1
 705 -375 l 1,10,11
 627 -395 627 -395 569 -395 c 0,12,13
 440 -395 440 -395 386 -348.5 c 128,-1,14
 332 -302 332 -302 332 -215 c 0,0,1
EndSplineSet
EndChar

StartChar: tilde
Encoding: 732 732 206
Width: 1024
GlyphClass: 2
Flags: W
LayerCount: 2
Fore
SplineSet
842 1591 m 1,0,1
 840 1466 840 1466 792.5 1387.5 c 128,-1,2
 745 1309 745 1309 647 1309 c 0,3,4
 577 1309 577 1309 508 1370 c 1,5,-1
 451 1425 l 2,6,7
 408 1464 408 1464 383 1464 c 0,8,9
 347 1464 347 1464 328 1429 c 128,-1,10
 309 1394 309 1394 307 1309 c 1,11,-1
 182 1309 l 1,12,13
 184 1434 184 1434 231.5 1512.5 c 128,-1,14
 279 1591 279 1591 377 1591 c 0,15,16
 447 1591 447 1591 516 1530 c 1,17,-1
 573 1475 l 2,18,19
 616 1436 616 1436 641 1436 c 0,20,21
 677 1436 677 1436 696 1471 c 128,-1,22
 715 1506 715 1506 717 1591 c 1,23,-1
 842 1591 l 1,0,1
EndSplineSet
EndChar

StartChar: hungarumlaut
Encoding: 733 733 207
Width: 1024
GlyphClass: 2
Flags: W
LayerCount: 2
Fore
SplineSet
764 1638 m 1,0,-1
 942 1638 l 1,1,-1
 694 1262 l 1,2,-1
 559 1262 l 1,3,-1
 764 1638 l 1,0,-1
430 1638 m 1,4,-1
 600 1638 l 1,5,-1
 377 1262 l 1,6,-1
 240 1262 l 1,7,-1
 430 1638 l 1,4,-1
EndSplineSet
EndChar

StartChar: Omega
Encoding: 937 937 208
Width: 1565
GlyphClass: 2
Flags: W
LayerCount: 2
Fore
SplineSet
1470 809 m 0,0,1
 1470 697 1470 697 1447 601.5 c 128,-1,2
 1424 506 1424 506 1379.5 430 c 128,-1,3
 1335 354 1335 354 1285.5 296 c 128,-1,4
 1236 238 1236 238 1167 178 c 1,5,-1
 1487 178 l 1,6,-1
 1487 0 l 1,7,-1
 887 0 l 1,8,-1
 887 178 l 1,9,10
 1056 270 1056 270 1159 433 c 128,-1,11
 1262 596 1262 596 1262 809 c 0,12,13
 1262 1051 1262 1051 1130.5 1195 c 128,-1,14
 999 1339 999 1339 782 1339 c 128,-1,15
 565 1339 565 1339 433 1194.5 c 128,-1,16
 301 1050 301 1050 301 809 c 0,17,18
 301 595 301 595 405 432.5 c 128,-1,19
 509 270 509 270 678 178 c 1,20,-1
 678 0 l 1,21,-1
 78 0 l 1,22,-1
 78 178 l 1,23,-1
 397 178 l 1,24,25
 241 315 241 315 167.5 464.5 c 128,-1,26
 94 614 94 614 94 799 c 0,27,28
 94 958 94 958 144.5 1091.5 c 128,-1,29
 195 1225 195 1225 285.5 1317 c 128,-1,30
 376 1409 376 1409 503.5 1460 c 128,-1,31
 631 1511 631 1511 782 1511 c 0,32,33
 935 1511 935 1511 1063.5 1458.5 c 128,-1,34
 1192 1406 1192 1406 1281 1314 c 128,-1,35
 1370 1222 1370 1222 1420 1091.5 c 128,-1,36
 1470 961 1470 961 1470 809 c 0,0,1
EndSplineSet
EndChar

StartChar: pi
Encoding: 960 960 209
Width: 1206
GlyphClass: 2
Flags: W
LayerCount: 2
Fore
SplineSet
-31 780 m 1,0,1
 -4 943 -4 943 68 1007 c 128,-1,2
 140 1071 140 1071 305 1071 c 2,3,-1
 1194 1071 l 1,4,-1
 1159 913 l 1,5,-1
 977 913 l 1,6,-1
 872 426 l 2,7,8
 842 273 842 273 842 238 c 0,9,10
 842 182 842 182 865.5 156.5 c 128,-1,11
 889 131 889 131 944 131 c 0,12,13
 969 131 969 131 1044 141 c 1,14,-1
 1014 0 l 1,15,16
 952 -16 952 -16 903 -16 c 0,17,18
 664 -16 664 -16 664 186 c 0,19,20
 664 271 664 271 719 537 c 2,21,-1
 799 913 l 1,22,-1
 473 913 l 1,23,-1
 279 0 l 1,24,-1
 98 0 l 1,25,-1
 293 913 l 1,26,-1
 252 913 l 2,27,28
 197 913 197 913 167.5 880.5 c 128,-1,29
 138 848 138 848 129 780 c 1,30,-1
 -31 780 l 1,0,1
EndSplineSet
EndChar

StartChar: uni0E01
Encoding: 3585 3585 210
Width: 1340
GlyphClass: 2
Flags: W
LayerCount: 2
Fore
SplineSet
134 1056 m 1,0,1
 349 1232 349 1232 666 1232 c 0,2,3
 733 1232 733 1232 795.5 1219.5 c 128,-1,4
 858 1207 858 1207 923 1173.5 c 128,-1,5
 988 1140 988 1140 1036.5 1088.5 c 128,-1,6
 1085 1037 1085 1037 1115.5 951.5 c 128,-1,7
 1146 866 1146 866 1146 756 c 2,8,-1
 1146 0 l 1,9,-1
 964 0 l 1,10,-1
 964 740 l 2,11,12
 964 812 964 812 949.5 868.5 c 128,-1,13
 935 925 935 925 901.5 972.5 c 128,-1,14
 868 1020 868 1020 804.5 1046 c 128,-1,15
 741 1072 741 1072 651 1072 c 0,16,17
 549 1072 549 1072 455 1037.5 c 128,-1,18
 361 1003 361 1003 291 950 c 1,19,-1
 542 836 l 1,20,-1
 542 688 l 1,21,22
 472 661 472 661 428 603.5 c 128,-1,23
 384 546 384 546 384 465 c 2,24,-1
 384 0 l 1,25,-1
 200 0 l 1,26,-1
 200 472 l 2,27,28
 200 513 200 513 214.5 563 c 128,-1,29
 229 613 229 613 270.5 671.5 c 128,-1,30
 312 730 312 730 372 760 c 1,31,-1
 134 862 l 1,32,-1
 134 1056 l 1,0,1
EndSplineSet
EndChar

StartChar: uni0E02
Encoding: 3586 3586 211
Width: 1220
GlyphClass: 2
Flags: W
LayerCount: 2
Fore
SplineSet
376 1220 m 0,0,1
 457 1220 457 1220 523 1191 c 128,-1,2
 589 1162 589 1162 628 1116 c 128,-1,3
 667 1070 667 1070 688 1017.5 c 128,-1,4
 709 965 709 965 709 912 c 0,5,6
 709 825 709 825 646 716 c 2,7,-1
 594 623 l 2,8,9
 530 510 530 510 530 402 c 2,10,-1
 530 154 l 1,11,-1
 745 154 l 2,12,13
 846 154 846 154 846 258 c 2,14,-1
 846 1202 l 1,15,-1
 1028 1202 l 1,16,-1
 1028 196 l 2,17,18
 1028 0 1028 0 740 0 c 2,19,-1
 341 0 l 1,20,-1
 341 452 l 2,21,22
 341 564 341 564 404 658 c 2,23,-1
 458 735 l 2,24,25
 526 828 526 828 526 910 c 0,26,27
 526 986 526 986 481.5 1034.5 c 128,-1,28
 437 1083 437 1083 374 1085 c 1,29,30
 404 1065 404 1065 417.5 1051 c 128,-1,31
 431 1037 431 1037 440.5 1010 c 128,-1,32
 450 983 450 983 450 938 c 0,33,34
 450 874 450 874 394 817.5 c 128,-1,35
 338 761 338 761 271 761 c 0,36,37
 189 761 189 761 130.5 812 c 128,-1,38
 72 863 72 863 72 953 c 0,39,40
 72 1062 72 1062 158.5 1141 c 128,-1,41
 245 1220 245 1220 376 1220 c 0,0,1
338 945 m 0,42,43
 338 975 338 975 316.5 995.5 c 128,-1,44
 295 1016 295 1016 263 1016 c 0,45,46
 230 1016 230 1016 208 992 c 128,-1,47
 186 968 186 968 186 940 c 0,48,49
 186 909 186 909 209 888 c 128,-1,50
 232 867 232 867 265 867 c 0,51,52
 294 867 294 867 316 888 c 128,-1,53
 338 909 338 909 338 945 c 0,42,43
EndSplineSet
EndChar

StartChar: uni0E03
Encoding: 3587 3587 212
Width: 1310
GlyphClass: 2
Flags: W
LayerCount: 2
Fore
SplineSet
211 817 m 0,0,1
 211 792 211 792 230.5 768.5 c 128,-1,2
 250 745 250 745 290 745 c 0,3,4
 323 745 323 745 342.5 767 c 128,-1,5
 362 789 362 789 362 820 c 0,6,7
 362 850 362 850 343.5 872 c 128,-1,8
 325 894 325 894 291 894 c 0,9,10
 255 894 255 894 233 870.5 c 128,-1,11
 211 847 211 847 211 817 c 0,0,1
294 1001 m 0,12,13
 382 1001 382 1001 428 944 c 128,-1,14
 474 887 474 887 474 816 c 0,15,16
 474 749 474 749 416.5 693 c 128,-1,17
 359 637 359 637 282 637 c 0,18,19
 261 637 261 637 238.5 641.5 c 128,-1,20
 216 646 216 646 184.5 663 c 128,-1,21
 153 680 153 680 129.5 707.5 c 128,-1,22
 106 735 106 735 89 788 c 128,-1,23
 72 841 72 841 72 910 c 0,24,25
 72 951 72 951 85 996 c 128,-1,26
 98 1041 98 1041 124.5 1087 c 128,-1,27
 151 1133 151 1133 201 1171 c 128,-1,28
 251 1209 251 1209 316 1226 c 1,29,-1
 434 1159 l 1,30,-1
 554 1221 l 1,31,32
 673 1199 673 1199 747.5 1106 c 128,-1,33
 822 1013 822 1013 822 903 c 0,34,35
 822 812 822 812 756 711 c 2,36,-1
 700 623 l 1,37,38
 634 511 634 511 634 408 c 2,39,-1
 634 154 l 1,40,-1
 843 154 l 2,41,42
 949 154 949 154 949 258 c 2,43,-1
 949 1202 l 1,44,-1
 1131 1202 l 1,45,-1
 1131 196 l 2,46,47
 1131 0 1131 0 843 0 c 2,48,-1
 444 0 l 1,49,-1
 444 458 l 2,50,51
 444 570 444 570 512 659 c 2,52,-1
 568 730 l 2,53,54
 642 822 642 822 642 923 c 0,55,56
 642 978 642 978 619.5 1022.5 c 128,-1,57
 597 1067 597 1067 562 1086 c 1,58,-1
 430 1026 l 1,59,-1
 300 1088 l 1,60,61
 228 1054 228 1054 221 987 c 1,62,63
 289 1001 289 1001 294 1001 c 0,12,13
EndSplineSet
EndChar

StartChar: uni0E04
Encoding: 3588 3588 213
Width: 1340
GlyphClass: 2
Flags: W
LayerCount: 2
Fore
SplineSet
845 665 m 128,-1,1
 845 580 845 580 785.5 520.5 c 128,-1,2
 726 461 726 461 641 461 c 0,3,4
 557 461 557 461 497 521 c 1,5,-1
 398 0 l 1,6,-1
 205 0 l 1,7,-1
 148 686 l 2,8,9
 145 718 145 718 145 753 c 0,10,11
 145 820 145 820 156 880.5 c 128,-1,12
 167 941 167 941 200.5 1007.5 c 128,-1,13
 234 1074 234 1074 288.5 1121.5 c 128,-1,14
 343 1169 343 1169 437.5 1200.5 c 128,-1,15
 532 1232 532 1232 656 1232 c 0,16,17
 762 1232 762 1232 849 1203.5 c 128,-1,18
 936 1175 936 1175 992.5 1126 c 128,-1,19
 1049 1077 1049 1077 1084.5 1022 c 128,-1,20
 1120 967 1120 967 1138 904 c 0,21,22
 1157 831 1157 831 1157 689 c 2,23,-1
 1157 0 l 1,24,-1
 973 0 l 1,25,-1
 973 751 l 2,26,27
 973 803 973 803 964.5 847 c 128,-1,28
 956 891 956 891 934.5 933.5 c 128,-1,29
 913 976 913 976 878.5 1006 c 128,-1,30
 844 1036 844 1036 788.5 1054 c 128,-1,31
 733 1072 733 1072 660 1072 c 0,32,33
 536 1072 536 1072 451.5 1022 c 128,-1,34
 367 972 367 972 338 880 c 0,35,36
 322 829 322 829 322 745 c 2,37,-1
 323 168 l 1,38,39
 344 344 344 344 386 543.5 c 128,-1,40
 428 743 428 743 478 800 c 0,41,42
 540 869 540 869 641 869 c 0,43,44
 726 869 726 869 785.5 809.5 c 128,-1,0
 845 750 845 750 845 665 c 128,-1,1
641 737 m 0,45,46
 610 737 610 737 589.5 715.5 c 128,-1,47
 569 694 569 694 569 665 c 0,48,49
 569 634 569 634 590.5 613.5 c 128,-1,50
 612 593 612 593 641 593 c 0,51,52
 672 593 672 593 692.5 614.5 c 128,-1,53
 713 636 713 636 713 665 c 0,54,55
 713 696 713 696 691.5 716.5 c 128,-1,56
 670 737 670 737 641 737 c 0,45,46
EndSplineSet
EndChar

StartChar: uni0E05
Encoding: 3589 3589 214
Width: 1340
GlyphClass: 2
Flags: W
LayerCount: 2
Fore
SplineSet
651 726 m 0,0,1
 620 726 620 726 599.5 704.5 c 128,-1,2
 579 683 579 683 579 654 c 0,3,4
 579 623 579 623 600.5 602.5 c 128,-1,5
 622 582 622 582 651 582 c 0,6,7
 682 582 682 582 702.5 603.5 c 128,-1,8
 723 625 723 625 723 654 c 0,9,10
 723 685 723 685 701.5 705.5 c 128,-1,11
 680 726 680 726 651 726 c 0,0,1
855 654 m 128,-1,13
 855 569 855 569 795.5 509.5 c 128,-1,14
 736 450 736 450 651 450 c 0,15,16
 567 450 567 450 507 510 c 1,17,18
 432 334 432 334 408 0 c 1,19,-1
 225 0 l 1,20,-1
 146 800 l 2,21,22
 144 824 144 824 144 837 c 0,23,24
 144 918 144 918 177 994.5 c 128,-1,25
 210 1071 210 1071 286.5 1139.5 c 128,-1,26
 363 1208 363 1208 473 1243 c 1,27,-1
 664 1092 l 1,28,-1
 847 1243 l 1,29,30
 986 1197 986 1197 1075 1083 c 128,-1,31
 1164 969 1164 969 1164 801 c 2,32,-1
 1164 0 l 1,33,-1
 981 0 l 1,34,-1
 981 785 l 2,35,36
 981 1007 981 1007 848 1072 c 1,37,-1
 700 958 l 1,38,-1
 633 958 l 1,39,-1
 481 1072 l 1,40,41
 420 1040 420 1040 374.5 974.5 c 128,-1,42
 329 909 329 909 329 808 c 0,43,44
 329 789 329 789 330 779 c 2,45,-1
 354 447 l 2,46,47
 354 469 354 469 363 513 c 128,-1,48
 372 557 372 557 395 617 c 128,-1,49
 418 677 418 677 450.5 730.5 c 128,-1,50
 483 784 483 784 536 821 c 128,-1,51
 589 858 589 858 651 858 c 0,52,53
 736 858 736 858 795.5 798.5 c 128,-1,12
 855 739 855 739 855 654 c 128,-1,13
EndSplineSet
EndChar

StartChar: uni0E06
Encoding: 3590 3590 215
Width: 1360
GlyphClass: 2
Flags: W
LayerCount: 2
Fore
SplineSet
274 1001 m 0,0,1
 362 1001 362 1001 408 944 c 128,-1,2
 454 887 454 887 454 816 c 0,3,4
 454 749 454 749 396.5 693 c 128,-1,5
 339 637 339 637 262 637 c 128,-1,6
 185 637 185 637 119 699 c 0,7,8
 52 762 52 762 52 910 c 0,9,10
 52 951 52 951 65 996 c 128,-1,11
 78 1041 78 1041 104.5 1087 c 128,-1,12
 131 1133 131 1133 181 1171 c 128,-1,13
 231 1209 231 1209 296 1226 c 1,14,-1
 414 1159 l 1,15,-1
 534 1221 l 1,16,17
 653 1199 653 1199 727.5 1106 c 128,-1,18
 802 1013 802 1013 802 903 c 0,19,20
 802 812 802 812 736 711 c 2,21,-1
 682 626 l 2,22,23
 614 512 614 512 614 408 c 2,24,-1
 614 379 l 1,25,26
 820 321 820 321 988 215 c 1,27,-1
 988 1202 l 1,28,-1
 1170 1202 l 1,29,-1
 1170 0 l 1,30,-1
 980 0 l 1,31,32
 815 147 815 147 614 224 c 1,33,34
 614 185 614 185 601 147 c 128,-1,35
 588 109 588 109 560 72.5 c 128,-1,36
 532 36 532 36 478 13 c 128,-1,37
 424 -10 424 -10 352 -10 c 0,38,39
 269 -10 269 -10 208.5 48.5 c 128,-1,40
 148 107 148 107 148 204 c 0,41,42
 148 291 148 291 208 355 c 128,-1,43
 268 419 268 419 356 419 c 0,44,45
 397 419 397 419 424 414 c 1,46,-1
 424 458 l 2,47,48
 424 570 424 570 492 659 c 2,49,-1
 548 730 l 2,50,51
 622 822 622 822 622 923 c 0,52,53
 622 978 622 978 599.5 1022.5 c 128,-1,54
 577 1067 577 1067 542 1086 c 1,55,-1
 410 1026 l 1,56,-1
 280 1088 l 1,57,58
 208 1054 208 1054 201 987 c 1,59,60
 269 1001 269 1001 274 1001 c 0,0,1
191 817 m 0,61,62
 191 792 191 792 210.5 768.5 c 128,-1,63
 230 745 230 745 270 745 c 0,64,65
 303 745 303 745 322.5 767 c 128,-1,66
 342 789 342 789 342 820 c 0,67,68
 342 850 342 850 323.5 872 c 128,-1,69
 305 894 305 894 271 894 c 0,70,71
 235 894 235 894 213 870.5 c 128,-1,72
 191 847 191 847 191 817 c 0,61,62
352 276 m 0,73,74
 321 276 321 276 300.5 254.5 c 128,-1,75
 280 233 280 233 280 204 c 0,76,77
 280 173 280 173 301.5 152.5 c 128,-1,78
 323 132 323 132 352 132 c 0,79,80
 383 132 383 132 403.5 153.5 c 128,-1,81
 424 175 424 175 424 204 c 0,82,83
 424 235 424 235 402.5 255.5 c 128,-1,84
 381 276 381 276 352 276 c 0,73,74
EndSplineSet
EndChar

StartChar: uni0E07
Encoding: 3591 3591 216
Width: 1050
GlyphClass: 2
Flags: W
LayerCount: 2
Fore
SplineSet
590 1080 m 0,0,1
 559 1080 559 1080 538.5 1058.5 c 128,-1,2
 518 1037 518 1037 518 1008 c 0,3,4
 518 977 518 977 539.5 956.5 c 128,-1,5
 561 936 561 936 590 936 c 0,6,7
 621 936 621 936 641.5 957.5 c 128,-1,8
 662 979 662 979 662 1008 c 0,9,10
 662 1039 662 1039 640.5 1059.5 c 128,-1,11
 619 1080 619 1080 590 1080 c 0,0,1
590 1212 m 0,12,13
 706 1212 706 1212 768 1138 c 128,-1,14
 830 1064 830 1064 830 963 c 2,15,-1
 830 0 l 1,16,-1
 604 0 l 1,17,18
 549 92 549 92 500.5 166.5 c 128,-1,19
 452 241 452 241 385 332.5 c 128,-1,20
 318 424 318 424 243 503 c 128,-1,21
 168 582 168 582 92 641 c 1,22,-1
 151 761 l 1,23,24
 475 541 475 541 644 300 c 1,25,-1
 644 807 l 2,26,27
 642 804 642 804 590 804 c 0,28,29
 505 804 505 804 445.5 863.5 c 128,-1,30
 386 923 386 923 386 1008 c 128,-1,31
 386 1093 386 1093 445.5 1152.5 c 128,-1,32
 505 1212 505 1212 590 1212 c 0,12,13
EndSplineSet
EndChar

StartChar: uni0E08
Encoding: 3592 3592 217
Width: 1140
GlyphClass: 2
Flags: W
LayerCount: 2
Fore
SplineSet
394 449 m 0,0,1
 310 449 310 449 248.5 500 c 128,-1,2
 187 551 187 551 187 649 c 0,3,4
 187 743 187 743 249.5 796.5 c 128,-1,5
 312 850 312 850 401 850 c 0,6,7
 473 850 473 850 539 813.5 c 128,-1,8
 605 777 605 777 643 707 c 0,9,10
 673 652 673 652 703.5 548 c 128,-1,11
 734 444 734 444 751 326 c 1,12,-1
 782 810 l 2,13,14
 782 813 782 813 782.5 819.5 c 128,-1,15
 783 826 783 826 783 829 c 0,16,17
 783 946 783 946 694 1011 c 128,-1,18
 605 1076 605 1076 464 1076 c 0,19,20
 271 1076 271 1076 102 984 c 1,21,-1
 102 1154 l 1,22,23
 306 1232 306 1232 483 1232 c 0,24,25
 582 1232 582 1232 665 1207.5 c 128,-1,26
 748 1183 748 1183 803.5 1142 c 128,-1,27
 859 1101 859 1101 897.5 1047 c 128,-1,28
 936 993 936 993 953.5 935.5 c 128,-1,29
 971 878 971 878 971 818 c 0,30,31
 971 790 971 790 966 753 c 2,32,-1
 866 0 l 1,33,-1
 680 0 l 1,34,35
 664 164 664 164 634.5 288.5 c 128,-1,36
 605 413 605 413 550 526 c 1,37,38
 533 490 533 490 490 469.5 c 128,-1,39
 447 449 447 449 394 449 c 0,0,1
316 648 m 128,-1,41
 316 618 316 618 337.5 596.5 c 128,-1,42
 359 575 359 575 391 575 c 0,43,44
 424 575 424 575 446 596.5 c 128,-1,45
 468 618 468 618 468 648 c 0,46,47
 468 682 468 682 446 703 c 128,-1,48
 424 724 424 724 392 724 c 0,49,50
 358 724 358 724 337 701 c 128,-1,40
 316 678 316 678 316 648 c 128,-1,41
EndSplineSet
EndChar

StartChar: uni0E09
Encoding: 3593 3593 218
Width: 1300
GlyphClass: 2
Flags: W
AnchorPoint: "Anchor-1" 1084 1340 basechar 0
LayerCount: 2
Fore
SplineSet
288 832 m 0,0,1
 404 832 404 832 466 758 c 128,-1,2
 528 684 528 684 528 583 c 2,3,-1
 528 207 l 1,4,5
 689 358 689 358 898 391 c 1,6,-1
 898 810 l 2,7,8
 898 846 898 846 891 879 c 128,-1,9
 884 912 884 912 863 949 c 128,-1,10
 842 986 842 986 807.5 1013 c 128,-1,11
 773 1040 773 1040 712 1058 c 128,-1,12
 651 1076 651 1076 570 1076 c 0,13,14
 367 1076 367 1076 178 964 c 1,15,-1
 178 1134 l 1,16,17
 311 1196 311 1196 401.5 1214 c 128,-1,18
 492 1232 492 1232 589 1232 c 0,19,20
 674 1232 674 1232 743.5 1218.5 c 128,-1,21
 813 1205 813 1205 877.5 1170 c 128,-1,22
 942 1135 942 1135 986 1078.5 c 128,-1,23
 1030 1022 1030 1022 1056 932 c 128,-1,24
 1082 842 1082 842 1082 723 c 2,25,-1
 1082 388 l 1,26,27
 1130 374 1130 374 1168.5 323.5 c 128,-1,28
 1207 273 1207 273 1207 204 c 0,29,30
 1207 119 1207 119 1147.5 59.5 c 128,-1,31
 1088 0 1088 0 1003 0 c 128,-1,32
 918 0 918 0 858.5 59.5 c 128,-1,33
 799 119 799 119 799 204 c 1,34,35
 612 130 612 130 524 0 c 1,36,-1
 342 0 l 1,37,-1
 342 427 l 2,38,39
 340 424 340 424 288 424 c 0,40,41
 203 424 203 424 143.5 483.5 c 128,-1,42
 84 543 84 543 84 628 c 128,-1,43
 84 713 84 713 143.5 772.5 c 128,-1,44
 203 832 203 832 288 832 c 0,0,1
1003 276 m 0,45,46
 972 276 972 276 951.5 254.5 c 128,-1,47
 931 233 931 233 931 204 c 0,48,49
 931 173 931 173 952.5 152.5 c 128,-1,50
 974 132 974 132 1003 132 c 0,51,52
 1034 132 1034 132 1054.5 153.5 c 128,-1,53
 1075 175 1075 175 1075 204 c 0,54,55
 1075 235 1075 235 1053.5 255.5 c 128,-1,56
 1032 276 1032 276 1003 276 c 0,45,46
288 700 m 0,57,58
 257 700 257 700 236.5 678.5 c 128,-1,59
 216 657 216 657 216 628 c 0,60,61
 216 597 216 597 237.5 576.5 c 128,-1,62
 259 556 259 556 288 556 c 0,63,64
 319 556 319 556 339.5 577.5 c 128,-1,65
 360 599 360 599 360 628 c 0,66,67
 360 659 360 659 338.5 679.5 c 128,-1,68
 317 700 317 700 288 700 c 0,57,58
EndSplineSet
EndChar

StartChar: uni0E0A
Encoding: 3594 3594 219
Width: 1260
GlyphClass: 2
Flags: W
LayerCount: 2
Fore
SplineSet
386 1220 m 0,0,1
 467 1220 467 1220 533 1191 c 128,-1,2
 599 1162 599 1162 638 1116 c 128,-1,3
 677 1070 677 1070 698 1017.5 c 128,-1,4
 719 965 719 965 719 912 c 0,5,6
 719 825 719 825 656 716 c 2,7,-1
 604 623 l 2,8,9
 540 511 540 511 540 402 c 2,10,-1
 540 154 l 1,11,-1
 755 154 l 2,12,13
 856 154 856 154 856 258 c 2,14,-1
 856 709 l 2,15,16
 856 842 856 842 770 898 c 1,17,-1
 770 1024 l 1,18,19
 968 1070 968 1070 968 1392 c 1,20,-1
 1148 1392 l 1,21,22
 1148 1184 1148 1184 1082 1084 c 0,23,24
 1018 986 1018 986 940 940 c 1,25,26
 1038 871 1038 871 1038 709 c 2,27,-1
 1038 196 l 2,28,29
 1038 0 1038 0 750 0 c 2,30,-1
 351 0 l 1,31,-1
 351 452 l 2,32,33
 351 564 351 564 414 658 c 2,34,-1
 468 735 l 2,35,36
 536 829 536 829 536 914 c 0,37,38
 536 983 536 983 492.5 1034 c 128,-1,39
 449 1085 449 1085 384 1085 c 1,40,41
 460 1055 460 1055 460 944 c 0,42,43
 460 877 460 877 411.5 819 c 128,-1,44
 363 761 363 761 276 761 c 0,45,46
 193 761 193 761 137.5 814 c 128,-1,47
 82 867 82 867 82 953 c 0,48,49
 82 1062 82 1062 168 1141 c 128,-1,50
 254 1220 254 1220 386 1220 c 0,0,1
348 945 m 0,51,52
 348 975 348 975 326.5 995.5 c 128,-1,53
 305 1016 305 1016 273 1016 c 0,54,55
 240 1016 240 1016 218 992 c 128,-1,56
 196 968 196 968 196 940 c 0,57,58
 196 909 196 909 219 888 c 128,-1,59
 242 867 242 867 275 867 c 0,60,61
 304 867 304 867 326 888 c 128,-1,62
 348 909 348 909 348 945 c 0,51,52
EndSplineSet
EndChar

StartChar: uni0E0B
Encoding: 3595 3595 220
Width: 1370
GlyphClass: 2
Flags: W
LayerCount: 2
Fore
SplineSet
1052 930 m 1,0,1
 1150 860 1150 860 1150 699 c 2,2,-1
 1150 196 l 2,3,4
 1150 0 1150 0 862 0 c 2,5,-1
 454 0 l 1,6,-1
 454 458 l 2,7,8
 454 570 454 570 522 659 c 2,9,-1
 578 730 l 2,10,11
 652 822 652 822 652 923 c 0,12,13
 652 978 652 978 629.5 1022.5 c 128,-1,14
 607 1067 607 1067 572 1086 c 1,15,-1
 440 1026 l 1,16,-1
 310 1088 l 1,17,18
 238 1054 238 1054 231 987 c 1,19,20
 299 1001 299 1001 304 1001 c 0,21,22
 392 1001 392 1001 438 944 c 128,-1,23
 484 887 484 887 484 816 c 0,24,25
 484 749 484 749 426.5 693 c 128,-1,26
 369 637 369 637 292 637 c 0,27,28
 271 637 271 637 248.5 641.5 c 128,-1,29
 226 646 226 646 194.5 663 c 128,-1,30
 163 680 163 680 139.5 707.5 c 128,-1,31
 116 735 116 735 99 788 c 128,-1,32
 82 841 82 841 82 910 c 0,33,34
 82 951 82 951 95 996 c 128,-1,35
 108 1041 108 1041 134.5 1087 c 128,-1,36
 161 1133 161 1133 211 1170.5 c 128,-1,37
 261 1208 261 1208 326 1226 c 1,38,-1
 444 1159 l 1,39,-1
 564 1221 l 1,40,41
 683 1199 683 1199 757.5 1106 c 128,-1,42
 832 1013 832 1013 832 903 c 0,43,44
 832 812 832 812 766 711 c 2,45,-1
 710 623 l 1,46,47
 644 511 644 511 644 408 c 2,48,-1
 644 154 l 1,49,-1
 862 154 l 2,50,51
 968 154 968 154 968 258 c 2,52,-1
 968 699 l 2,53,54
 968 807 968 807 881 888 c 1,55,-1
 881 1014 l 1,56,57
 1078 1060 1078 1060 1078 1382 c 1,58,-1
 1258 1382 l 1,59,60
 1258 1175 1258 1175 1194 1074 c 0,61,62
 1128 975 1128 975 1052 930 c 1,0,1
373 822 m 0,63,64
 373 849 373 849 352 871.5 c 128,-1,65
 331 894 331 894 301 894 c 0,66,67
 265 894 265 894 243 870.5 c 128,-1,68
 221 847 221 847 221 817 c 0,69,70
 221 792 221 792 240.5 768.5 c 128,-1,71
 260 745 260 745 300 745 c 0,72,73
 329 745 329 745 351 766.5 c 128,-1,74
 373 788 373 788 373 822 c 0,63,64
EndSplineSet
EndChar

StartChar: uni0E0C
Encoding: 3596 3596 221
Width: 1800
GlyphClass: 2
Flags: W
LayerCount: 2
Fore
SplineSet
954 740 m 2,0,1
 954 812 954 812 940 868 c 128,-1,2
 926 924 926 924 892.5 972 c 128,-1,3
 859 1020 859 1020 795.5 1046 c 128,-1,4
 732 1072 732 1072 642 1072 c 0,5,6
 540 1072 540 1072 445.5 1037.5 c 128,-1,7
 351 1003 351 1003 281 950 c 1,8,-1
 531 836 l 1,9,-1
 531 688 l 1,10,11
 469 664 469 664 421.5 609 c 128,-1,12
 374 554 374 554 374 464 c 2,13,-1
 374 395 l 2,14,15
 376 398 376 398 429 398 c 0,16,17
 514 398 514 398 573.5 338.5 c 128,-1,18
 633 279 633 279 633 194 c 128,-1,19
 633 109 633 109 573.5 49.5 c 128,-1,20
 514 -10 514 -10 429 -10 c 0,21,22
 313 -10 313 -10 251 64 c 128,-1,23
 189 138 189 138 189 239 c 2,24,-1
 189 465 l 2,25,26
 189 548 189 548 235 633.5 c 128,-1,27
 281 719 281 719 363 760 c 1,28,-1
 125 862 l 1,29,-1
 125 1056 l 1,30,31
 337 1232 337 1232 653 1232 c 0,32,33
 721 1232 721 1232 784 1219.5 c 128,-1,34
 847 1207 847 1207 913 1173.5 c 128,-1,35
 979 1140 979 1140 1027.5 1088.5 c 128,-1,36
 1076 1037 1076 1037 1106.5 951.5 c 128,-1,37
 1137 866 1137 866 1137 756 c 2,38,-1
 1137 383 l 1,39,40
 1296 351 1296 351 1430 216 c 1,41,-1
 1430 1203 l 1,42,-1
 1612 1203 l 1,43,-1
 1612 0 l 1,44,-1
 1431 0 l 1,45,46
 1287 207 1287 207 1147 251 c 1,47,48
 1155 222 1155 222 1155 186 c 0,49,50
 1155 99 1155 99 1096.5 44 c 128,-1,51
 1038 -11 1038 -11 942 -11 c 0,52,53
 844 -11 844 -11 792.5 44.5 c 128,-1,54
 741 100 741 100 741 180 c 0,55,56
 741 264 741 264 796.5 329 c 128,-1,57
 852 394 852 394 944 394 c 2,58,-1
 954 394 l 1,59,-1
 954 740 l 2,0,1
431 122 m 0,60,61
 462 122 462 122 482.5 143.5 c 128,-1,62
 503 165 503 165 503 194 c 0,63,64
 503 225 503 225 481.5 245.5 c 128,-1,65
 460 266 460 266 431 266 c 0,66,67
 400 266 400 266 379.5 244.5 c 128,-1,68
 359 223 359 223 359 194 c 0,69,70
 359 163 359 163 380.5 142.5 c 128,-1,71
 402 122 402 122 431 122 c 0,60,61
1028 188 m 0,72,73
 1028 218 1028 218 1006.5 239.5 c 128,-1,74
 985 261 985 261 953 261 c 0,75,76
 920 261 920 261 898 239.5 c 128,-1,77
 876 218 876 218 876 188 c 0,78,79
 876 154 876 154 898 133 c 128,-1,80
 920 112 920 112 952 112 c 0,81,82
 983 112 983 112 1005.5 135.5 c 128,-1,83
 1028 159 1028 159 1028 188 c 0,72,73
EndSplineSet
EndChar

StartChar: uni0E0D
Encoding: 3597 3597 222
Width: 1800
GlyphClass: 2
Flags: W
LayerCount: 2
Fore
SplineSet
642 1232 m 0,0,1
 710 1232 710 1232 771.5 1219.5 c 128,-1,2
 833 1207 833 1207 896 1173.5 c 128,-1,3
 959 1140 959 1140 1004 1088.5 c 128,-1,4
 1049 1037 1049 1037 1077.5 951.5 c 128,-1,5
 1106 866 1106 866 1106 756 c 2,6,-1
 1106 156 l 1,7,-1
 1433 156 l 1,8,-1
 1433 1204 l 1,9,-1
 1618 1204 l 1,10,-1
 1618 0 l 1,11,-1
 923 0 l 1,12,-1
 923 740 l 2,13,14
 923 799 923 799 916 845.5 c 128,-1,15
 909 892 909 892 890 935.5 c 128,-1,16
 871 979 871 979 840.5 1008 c 128,-1,17
 810 1037 810 1037 759.5 1054.5 c 128,-1,18
 709 1072 709 1072 642 1072 c 0,19,20
 543 1072 543 1072 445.5 1037 c 128,-1,21
 348 1002 348 1002 280 950 c 1,22,-1
 531 836 l 1,23,-1
 531 688 l 1,24,25
 469 664 469 664 421 608.5 c 128,-1,26
 373 553 373 553 373 464 c 2,27,-1
 373 395 l 2,28,29
 374 398 374 398 428 398 c 0,30,31
 513 398 513 398 572.5 338.5 c 128,-1,32
 632 279 632 279 632 194 c 128,-1,33
 632 109 632 109 572.5 49.5 c 128,-1,34
 513 -10 513 -10 428 -10 c 0,35,36
 312 -10 312 -10 250 64 c 128,-1,37
 188 138 188 138 188 239 c 2,38,-1
 188 465 l 2,39,40
 188 548 188 548 234 633.5 c 128,-1,41
 280 719 280 719 362 760 c 1,42,-1
 124 862 l 1,43,-1
 124 1056 l 1,44,45
 334 1232 334 1232 642 1232 c 0,0,1
430 122 m 0,46,47
 461 122 461 122 481.5 143.5 c 128,-1,48
 502 165 502 165 502 194 c 0,49,50
 502 225 502 225 480.5 245.5 c 128,-1,51
 459 266 459 266 430 266 c 0,52,53
 399 266 399 266 378.5 244.5 c 128,-1,54
 358 223 358 223 358 194 c 0,55,56
 358 163 358 163 379.5 142.5 c 128,-1,57
 401 122 401 122 430 122 c 0,46,47
1107 -138 m 0,58,59
 1076 -138 1076 -138 1060 -156 c 128,-1,60
 1044 -174 1044 -174 1044 -197 c 0,61,62
 1044 -222 1044 -222 1062 -236.5 c 128,-1,63
 1080 -251 1080 -251 1105 -251 c 0,64,65
 1134 -251 1134 -251 1149.5 -235 c 128,-1,66
 1165 -219 1165 -219 1165 -196 c 128,-1,67
 1165 -173 1165 -173 1149 -155.5 c 128,-1,68
 1133 -138 1133 -138 1107 -138 c 0,58,59
1106 -50 m 0,69,70
 1170 -50 1170 -50 1214 -91.5 c 128,-1,71
 1258 -133 1258 -133 1258 -199 c 0,72,73
 1258 -266 1258 -266 1215 -296 c 1,74,-1
 1222 -296 l 2,75,76
 1312 -296 1312 -296 1406.5 -229 c 128,-1,77
 1501 -162 1501 -162 1559 -86 c 1,78,-1
 1592 -235 l 1,79,80
 1523 -300 1523 -300 1424.5 -348 c 128,-1,81
 1326 -396 1326 -396 1225 -396 c 0,82,83
 1156 -396 1156 -396 1104.5 -381 c 128,-1,84
 1053 -366 1053 -366 1025 -344.5 c 128,-1,85
 997 -323 997 -323 980 -294 c 128,-1,86
 963 -265 963 -265 958.5 -243 c 128,-1,87
 954 -221 954 -221 954 -199 c 0,88,89
 954 -137 954 -137 997.5 -93.5 c 128,-1,90
 1041 -50 1041 -50 1106 -50 c 0,69,70
EndSplineSet
Substitution2: "Single Substitution lookup 5 subtable" uni0E0D.descless
Substitution2: "'ccmp' Glyph Composition/Decomposition in Thai lookup 3 subtable" uni0E0D.descless
EndChar

StartChar: uni0E0E
Encoding: 3598 3598 223
Width: 1440
GlyphClass: 2
Flags: W
AnchorPoint: "Anchor-0" 1249 -478 basechar 0
LayerCount: 2
Fore
SplineSet
544 -201 m 0,0,1
 544 -229 544 -229 560.5 -245.5 c 128,-1,2
 577 -262 577 -262 601 -262 c 0,3,4
 697 -262 697 -262 727 -133 c 1,5,6
 693 -116 693 -116 656 -116 c 0,7,8
 610 -116 610 -116 577 -141 c 128,-1,9
 544 -166 544 -166 544 -201 c 0,0,1
1062 740 m 2,10,11
 1062 812 1062 812 1048 868 c 128,-1,12
 1034 924 1034 924 1001 972 c 128,-1,13
 968 1020 968 1020 904.5 1046 c 128,-1,14
 841 1072 841 1072 751 1072 c 0,15,16
 650 1072 650 1072 555 1037.5 c 128,-1,17
 460 1003 460 1003 390 950 c 1,18,-1
 641 836 l 1,19,-1
 641 688 l 1,20,21
 584 663 584 663 548.5 621.5 c 128,-1,22
 513 580 513 580 513 506 c 2,23,-1
 513 239 l 2,24,25
 513 135 513 135 450 62.5 c 128,-1,26
 387 -10 387 -10 273 -10 c 0,27,28
 188 -10 188 -10 128.5 49.5 c 128,-1,29
 69 109 69 109 69 194 c 128,-1,30
 69 279 69 279 128.5 338.5 c 128,-1,31
 188 398 188 398 273 398 c 0,32,33
 325 398 325 398 326 394 c 2,34,-1
 326 506 l 2,35,36
 326 538 326 538 332 572 c 128,-1,37
 338 606 338 606 352.5 645 c 128,-1,38
 367 684 367 684 398 715.5 c 128,-1,39
 429 747 429 747 472 760 c 1,40,-1
 234 862 l 1,41,-1
 234 1056 l 1,42,43
 446 1232 446 1232 762 1232 c 0,44,45
 830 1232 830 1232 893 1219.5 c 128,-1,46
 956 1207 956 1207 1022 1173.5 c 128,-1,47
 1088 1140 1088 1140 1136.5 1088.5 c 128,-1,48
 1185 1037 1185 1037 1215.5 951.5 c 128,-1,49
 1246 866 1246 866 1246 756 c 2,50,-1
 1246 -410 l 1,51,-1
 1061 -410 l 1,52,53
 966 -270 966 -270 876 -201 c 1,54,55
 811 -410 811 -410 601 -410 c 0,56,57
 501 -410 501 -410 445 -352 c 128,-1,58
 389 -294 389 -294 389 -217 c 0,59,60
 389 -111 389 -111 465.5 -44 c 128,-1,61
 542 23 542 23 653 23 c 0,62,63
 714 23 714 23 761 9 c 1,64,-1
 779 99 l 1,65,-1
 939 42 l 1,66,-1
 917 -52 l 1,67,68
 984 -96 984 -96 1062 -186 c 1,69,-1
 1062 740 l 2,10,11
273 266 m 0,70,71
 242 266 242 266 221.5 244.5 c 128,-1,72
 201 223 201 223 201 194 c 0,73,74
 201 163 201 163 222.5 142.5 c 128,-1,75
 244 122 244 122 273 122 c 0,76,77
 304 122 304 122 324.5 143.5 c 128,-1,78
 345 165 345 165 345 194 c 0,79,80
 345 225 345 225 323.5 245.5 c 128,-1,81
 302 266 302 266 273 266 c 0,70,71
EndSplineSet
EndChar

StartChar: uni0E0F
Encoding: 3599 3599 224
Width: 1440
GlyphClass: 2
Flags: W
AnchorPoint: "Anchor-0" 1249 -478 basechar 0
LayerCount: 2
Fore
SplineSet
273 266 m 0,0,1
 242 266 242 266 221.5 244.5 c 128,-1,2
 201 223 201 223 201 194 c 0,3,4
 201 163 201 163 222.5 142.5 c 128,-1,5
 244 122 244 122 273 122 c 0,6,7
 304 122 304 122 324.5 143.5 c 128,-1,8
 345 165 345 165 345 194 c 0,9,10
 345 225 345 225 323.5 245.5 c 128,-1,11
 302 266 302 266 273 266 c 0,0,1
1062 740 m 2,12,13
 1062 812 1062 812 1048 868 c 128,-1,14
 1034 924 1034 924 1001 972 c 128,-1,15
 968 1020 968 1020 904.5 1046 c 128,-1,16
 841 1072 841 1072 751 1072 c 0,17,18
 649 1072 649 1072 554.5 1037.5 c 128,-1,19
 460 1003 460 1003 390 950 c 1,20,-1
 641 836 l 1,21,-1
 641 688 l 1,22,23
 584 663 584 663 548.5 621.5 c 128,-1,24
 513 580 513 580 513 506 c 2,25,-1
 513 239 l 2,26,27
 513 135 513 135 450 62.5 c 128,-1,28
 387 -10 387 -10 273 -10 c 0,29,30
 188 -10 188 -10 128.5 49.5 c 128,-1,31
 69 109 69 109 69 194 c 128,-1,32
 69 279 69 279 128.5 338.5 c 128,-1,33
 188 398 188 398 273 398 c 0,34,35
 325 398 325 398 326 394 c 2,36,-1
 326 506 l 2,37,38
 326 538 326 538 332 572 c 128,-1,39
 338 606 338 606 352.5 645 c 128,-1,40
 367 684 367 684 398 715.5 c 128,-1,41
 429 747 429 747 472 760 c 1,42,-1
 234 862 l 1,43,-1
 234 1056 l 1,44,45
 446 1232 446 1232 762 1232 c 0,46,47
 829 1232 829 1232 892.5 1219.5 c 128,-1,48
 956 1207 956 1207 1022 1173.5 c 128,-1,49
 1088 1140 1088 1140 1136 1088.5 c 128,-1,50
 1184 1037 1184 1037 1215 951.5 c 128,-1,51
 1246 866 1246 866 1246 756 c 2,52,-1
 1246 -410 l 1,53,-1
 1040 -410 l 1,54,-1
 969 -271 l 1,55,-1
 904 -410 l 1,56,-1
 810 -410 l 1,57,58
 798 -295 798 -295 740 -221 c 1,59,60
 721 -316 721 -316 661.5 -363 c 128,-1,61
 602 -410 602 -410 534 -410 c 0,62,63
 433 -410 433 -410 379 -358.5 c 128,-1,64
 325 -307 325 -307 325 -231 c 0,65,66
 325 -201 325 -201 336 -167 c 128,-1,67
 347 -133 347 -133 371.5 -96 c 128,-1,68
 396 -59 396 -59 445.5 -35.5 c 128,-1,69
 495 -12 495 -12 561 -12 c 0,70,71
 615 -12 615 -12 655 -32 c 1,72,-1
 668 49 l 1,73,-1
 794 33 l 1,74,-1
 768 -87 l 1,75,76
 832 -126 832 -126 870 -224 c 1,77,-1
 928 -104 l 1,78,-1
 1002 -104 l 1,79,-1
 1062 -229 l 1,80,-1
 1062 740 l 2,12,13
527 -282 m 0,81,82
 603 -282 603 -282 629 -155 c 1,83,84
 589 -132 589 -132 553 -132 c 0,85,86
 512 -132 512 -132 487 -158.5 c 128,-1,87
 462 -185 462 -185 462 -220 c 0,88,89
 462 -282 462 -282 527 -282 c 0,81,82
EndSplineSet
EndChar

StartChar: uni0E10
Encoding: 3600 3600 225
Width: 1170
GlyphClass: 2
Flags: W
LayerCount: 2
Fore
SplineSet
316 468 m 128,-1,1
 316 438 316 438 337.5 416.5 c 128,-1,2
 359 395 359 395 391 395 c 0,3,4
 424 395 424 395 446 416.5 c 128,-1,5
 468 438 468 438 468 468 c 0,6,7
 468 502 468 502 446 523 c 128,-1,8
 424 544 424 544 392 544 c 0,9,10
 358 544 358 544 337 521 c 128,-1,0
 316 498 316 498 316 468 c 128,-1,1
408 669 m 0,11,12
 476 669 476 669 535 634 c 128,-1,13
 594 599 594 599 634.5 541.5 c 128,-1,14
 675 484 675 484 702.5 419.5 c 128,-1,15
 730 355 730 355 744 286 c 1,16,-1
 790 566 l 2,17,18
 792 576 792 576 792 593 c 0,19,20
 792 698 792 698 642 722 c 2,21,-1
 134 802 l 1,22,-1
 134 1046 l 1,23,24
 353 1222 353 1222 662 1222 c 0,25,26
 754 1222 754 1222 832.5 1200 c 128,-1,27
 911 1178 911 1178 962.5 1142 c 128,-1,28
 1014 1106 1014 1106 1046 1070.5 c 128,-1,29
 1078 1035 1078 1035 1097 999 c 1,30,-1
 945 887 l 1,31,32
 928 960 928 960 846.5 1012 c 128,-1,33
 765 1064 765 1064 648 1064 c 0,34,35
 549 1064 549 1064 452 1026.5 c 128,-1,36
 355 989 355 989 291 940 c 1,37,-1
 712 878 l 2,38,39
 980 838 980 838 980 657 c 0,40,41
 980 631 980 631 976 608 c 2,42,-1
 869 0 l 1,43,-1
 683 0 l 1,44,45
 675 52 675 52 640.5 159 c 128,-1,46
 606 266 606 266 558 348 c 1,47,48
 543 313 543 313 497.5 291.5 c 128,-1,49
 452 270 452 270 396 270 c 0,50,51
 311 270 311 270 250.5 320 c 128,-1,52
 190 370 190 370 190 470 c 0,53,54
 190 566 190 566 253.5 617.5 c 128,-1,55
 317 669 317 669 408 669 c 0,11,12
775 -44 m 0,56,57
 864 -44 864 -44 912 -103 c 128,-1,58
 960 -162 960 -162 960 -237 c 2,59,-1
 960 -540 l 1,60,-1
 780 -540 l 1,61,62
 740 -482 740 -482 700 -451 c 1,63,64
 661 -482 661 -482 625 -538 c 1,65,-1
 559 -538 l 1,66,67
 551 -476 551 -476 502 -419 c 1,68,69
 444 -542 444 -542 309 -542 c 0,70,71
 268 -542 268 -542 228.5 -528 c 128,-1,72
 189 -514 189 -514 158 -477.5 c 128,-1,73
 127 -441 127 -441 127 -390 c 0,74,75
 127 -365 127 -365 136.5 -337.5 c 128,-1,76
 146 -310 146 -310 166 -281 c 128,-1,77
 186 -252 186 -252 225.5 -233.5 c 128,-1,78
 265 -215 265 -215 317 -215 c 0,79,80
 402 -215 402 -215 451 -255 c 1,81,-1
 478 -184 l 1,82,-1
 570 -252 l 1,83,-1
 540 -318 l 1,84,85
 582 -353 582 -353 600 -406 c 1,86,87
 641 -351 641 -351 700 -320 c 1,88,89
 747 -347 747 -347 798 -403 c 1,90,-1
 798 -283 l 1,91,92
 787 -290 787 -290 753 -290 c 0,93,94
 700 -290 700 -290 668.5 -254 c 128,-1,95
 637 -218 637 -218 637 -169 c 0,96,97
 637 -118 637 -118 672.5 -81 c 128,-1,98
 708 -44 708 -44 775 -44 c 0,56,57
815 -169 m 0,99,100
 815 -148 815 -148 800.5 -133.5 c 128,-1,101
 786 -119 786 -119 766 -119 c 0,102,103
 743 -119 743 -119 727.5 -134 c 128,-1,104
 712 -149 712 -149 712 -170 c 128,-1,105
 712 -191 712 -191 727 -206 c 128,-1,106
 742 -221 742 -221 764 -221 c 0,107,108
 785 -221 785 -221 800 -206 c 128,-1,109
 815 -191 815 -191 815 -169 c 0,99,100
321 -320 m 0,110,111
 290 -320 290 -320 271 -334 c 128,-1,112
 252 -348 252 -348 248 -360.5 c 128,-1,113
 244 -373 244 -373 244 -385 c 0,114,115
 244 -409 244 -409 263 -425.5 c 128,-1,116
 282 -442 282 -442 310 -442 c 0,117,118
 379 -442 379 -442 417 -355 c 1,119,120
 374 -320 374 -320 321 -320 c 0,110,111
EndSplineSet
Substitution2: "Single Substitution lookup 5 subtable" uni0E10.descless
Substitution2: "'ccmp' Glyph Composition/Decomposition in Thai lookup 3 subtable" uni0E10.descless
EndChar

StartChar: uni0E11
Encoding: 3601 3601 226
Width: 1560
GlyphClass: 2
Flags: W
LayerCount: 2
Fore
SplineSet
1152 1222 m 0,0,1
 1245 1222 1245 1222 1303 1158.5 c 128,-1,2
 1361 1095 1361 1095 1361 997 c 2,3,-1
 1361 0 l 1,4,-1
 1178 0 l 1,5,-1
 1178 980 l 2,6,7
 1178 1060 1178 1060 1122 1060 c 0,8,9
 1097 1060 1097 1060 1080 1048 c 128,-1,10
 1063 1036 1063 1036 1045 1007 c 0,11,12
 973 891 973 891 909 559 c 0,13,14
 843 226 843 226 607 0 c 1,15,-1
 424 0 l 1,16,-1
 424 458 l 2,17,18
 424 570 424 570 492 659 c 2,19,-1
 548 730 l 2,20,21
 622 822 622 822 622 923 c 0,22,23
 622 978 622 978 599.5 1022.5 c 128,-1,24
 577 1067 577 1067 542 1086 c 1,25,-1
 410 1026 l 1,26,-1
 280 1088 l 1,27,28
 208 1054 208 1054 201 987 c 1,29,30
 269 1001 269 1001 274 1001 c 0,31,32
 362 1001 362 1001 408 944 c 128,-1,33
 454 887 454 887 454 816 c 0,34,35
 454 749 454 749 396.5 693 c 128,-1,36
 339 637 339 637 263 637 c 128,-1,37
 187 637 187 637 119 699 c 0,38,39
 52 762 52 762 52 910 c 0,40,41
 52 951 52 951 65 996 c 128,-1,42
 78 1041 78 1041 104.5 1087 c 128,-1,43
 131 1133 131 1133 181 1171 c 128,-1,44
 231 1209 231 1209 296 1226 c 1,45,-1
 414 1159 l 1,46,-1
 534 1221 l 1,47,48
 653 1199 653 1199 727.5 1106 c 128,-1,49
 802 1013 802 1013 802 903 c 0,50,51
 802 813 802 813 736 711 c 2,52,-1
 680 623 l 2,53,54
 614 514 614 514 614 408 c 2,55,-1
 614 243 l 1,56,57
 685 320 685 320 731 421.5 c 128,-1,58
 777 523 777 523 800 622.5 c 128,-1,59
 823 722 823 722 844 819 c 128,-1,60
 865 916 865 916 903 1009.5 c 128,-1,61
 941 1103 941 1103 999 1168 c 0,62,63
 1048 1222 1048 1222 1152 1222 c 0,0,1
267 744 m 0,64,65
 298 744 298 744 320.5 765.5 c 128,-1,66
 343 787 343 787 343 820 c 0,67,68
 343 854 343 854 320.5 873 c 128,-1,69
 298 892 298 892 268 892 c 0,70,71
 236 892 236 892 213.5 872.5 c 128,-1,72
 191 853 191 853 191 818 c 0,73,74
 191 788 191 788 213 766 c 128,-1,75
 235 744 235 744 267 744 c 0,64,65
EndSplineSet
EndChar

StartChar: uni0E12
Encoding: 3602 3602 227
Width: 1790
GlyphClass: 2
Flags: W
LayerCount: 2
Fore
SplineSet
952 -10 m 128,-1,1
 867 -10 867 -10 807.5 49.5 c 128,-1,2
 748 109 748 109 748 194 c 128,-1,3
 748 279 748 279 807.5 338.5 c 128,-1,4
 867 398 867 398 952 398 c 1,5,-1
 952 763 l 2,6,7
 952 987 952 987 818 1053 c 1,8,-1
 670 939 l 1,9,-1
 603 939 l 1,10,-1
 451 1053 l 1,11,12
 391 1021 391 1021 345 956 c 128,-1,13
 299 891 299 891 299 795 c 0,14,15
 299 783 299 783 301 757 c 2,16,-1
 357 220 l 1,17,18
 433 257 433 257 506.5 318.5 c 128,-1,19
 580 380 580 380 624 442 c 1,20,21
 534 442 534 442 477 499.5 c 128,-1,22
 420 557 420 557 420 641 c 0,23,24
 420 726 420 726 479.5 785.5 c 128,-1,25
 539 845 539 845 624 845 c 128,-1,26
 709 845 709 845 768.5 785.5 c 128,-1,27
 828 726 828 726 828 641 c 0,28,29
 828 588 828 588 809.5 531 c 128,-1,30
 791 474 791 474 745 396 c 128,-1,31
 699 318 699 318 606 217.5 c 128,-1,32
 513 117 513 117 378 0 c 1,33,-1
 195 0 l 1,34,-1
 117 778 l 2,35,36
 115 793 115 793 115 822 c 0,37,38
 115 901 115 901 144 970 c 128,-1,39
 173 1039 173 1039 221.5 1087.5 c 128,-1,40
 270 1136 270 1136 326 1170.5 c 128,-1,41
 382 1205 382 1205 443 1224 c 1,42,-1
 634 1073 l 1,43,-1
 817 1224 l 1,44,45
 954 1178 954 1178 1044.5 1064 c 128,-1,46
 1135 950 1135 950 1135 779 c 2,47,-1
 1135 367 l 1,48,49
 1294 323 1294 323 1418 216 c 1,50,-1
 1418 1202 l 1,51,-1
 1598 1202 l 1,52,-1
 1598 0 l 1,53,-1
 1420 0 l 1,54,55
 1295 157 1295 157 1156 194 c 1,56,57
 1156 109 1156 109 1096.5 49.5 c 128,-1,0
 1037 -10 1037 -10 952 -10 c 128,-1,1
952 122 m 0,58,59
 981 122 981 122 1002.5 142.5 c 128,-1,60
 1024 163 1024 163 1024 194 c 0,61,62
 1024 223 1024 223 1003.5 244.5 c 128,-1,63
 983 266 983 266 952 266 c 0,64,65
 923 266 923 266 901.5 245.5 c 128,-1,66
 880 225 880 225 880 194 c 0,67,68
 880 165 880 165 900.5 143.5 c 128,-1,69
 921 122 921 122 952 122 c 0,58,59
624 569 m 0,70,71
 653 569 653 569 674.5 589.5 c 128,-1,72
 696 610 696 610 696 641 c 0,73,74
 696 670 696 670 675.5 691.5 c 128,-1,75
 655 713 655 713 624 713 c 0,76,77
 595 713 595 713 573.5 692.5 c 128,-1,78
 552 672 552 672 552 641 c 0,79,80
 552 612 552 612 572.5 590.5 c 128,-1,81
 593 569 593 569 624 569 c 0,70,71
EndSplineSet
EndChar

StartChar: uni0E13
Encoding: 3603 3603 228
Width: 1850
GlyphClass: 2
Flags: W
AnchorPoint: "Anchor-1" 1626 1340 basechar 0
LayerCount: 2
Fore
SplineSet
924 740 m 2,0,1
 924 1072 924 1072 661 1072 c 0,2,3
 441 1072 441 1072 281 950 c 1,4,-1
 532 836 l 1,5,-1
 532 688 l 1,6,7
 470 664 470 664 422 608.5 c 128,-1,8
 374 553 374 553 374 464 c 2,9,-1
 374 395 l 2,10,11
 376 398 376 398 429 398 c 0,12,13
 514 398 514 398 573.5 338.5 c 128,-1,14
 633 279 633 279 633 194 c 128,-1,15
 633 109 633 109 573.5 49.5 c 128,-1,16
 514 -10 514 -10 429 -10 c 0,17,18
 313 -10 313 -10 251 64 c 128,-1,19
 189 138 189 138 189 239 c 2,20,-1
 189 465 l 2,21,22
 189 548 189 548 235 633.5 c 128,-1,23
 281 719 281 719 363 760 c 1,24,-1
 125 862 l 1,25,-1
 125 1056 l 1,26,27
 232 1145 232 1145 365 1188.5 c 128,-1,28
 498 1232 498 1232 673 1232 c 0,29,30
 724 1232 724 1232 776 1221.5 c 128,-1,31
 828 1211 828 1211 890 1179.5 c 128,-1,32
 952 1148 952 1148 998 1098 c 128,-1,33
 1044 1048 1044 1048 1075.5 959.5 c 128,-1,34
 1107 871 1107 871 1107 756 c 2,35,-1
 1107 216 l 1,36,37
 1240 324 1240 324 1443 387 c 1,38,-1
 1443 1202 l 1,39,-1
 1624 1202 l 1,40,-1
 1624 398 l 1,41,42
 1668 398 1668 398 1723 339 c 128,-1,43
 1778 280 1778 280 1778 194 c 0,44,45
 1778 109 1778 109 1718.5 49.5 c 128,-1,46
 1659 -10 1659 -10 1574 -10 c 0,47,48
 1491 -10 1491 -10 1430.5 48.5 c 128,-1,49
 1370 107 1370 107 1370 204 c 1,50,51
 1239 167 1239 167 1105 0 c 1,52,-1
 924 0 l 1,53,-1
 924 740 l 2,0,1
431 122 m 0,54,55
 462 122 462 122 482.5 143.5 c 128,-1,56
 503 165 503 165 503 194 c 0,57,58
 503 225 503 225 481.5 245.5 c 128,-1,59
 460 266 460 266 431 266 c 0,60,61
 400 266 400 266 379.5 244.5 c 128,-1,62
 359 223 359 223 359 194 c 0,63,64
 359 163 359 163 380.5 142.5 c 128,-1,65
 402 122 402 122 431 122 c 0,54,55
1574 122 m 0,66,67
 1605 122 1605 122 1625.5 143.5 c 128,-1,68
 1646 165 1646 165 1646 194 c 0,69,70
 1646 225 1646 225 1624.5 245.5 c 128,-1,71
 1603 266 1603 266 1574 266 c 0,72,73
 1543 266 1543 266 1522.5 244.5 c 128,-1,74
 1502 223 1502 223 1502 194 c 0,75,76
 1502 163 1502 163 1523.5 142.5 c 128,-1,77
 1545 122 1545 122 1574 122 c 0,66,67
EndSplineSet
EndChar

StartChar: uni0E14
Encoding: 3604 3604 229
Width: 1330
GlyphClass: 2
Flags: W
LayerCount: 2
Fore
SplineSet
660 1072 m 0,0,1
 581 1072 581 1072 519 1051.5 c 128,-1,2
 457 1031 457 1031 420.5 1000 c 128,-1,3
 384 969 384 969 361 927.5 c 128,-1,4
 338 886 338 886 329.5 849 c 128,-1,5
 321 812 321 812 321 775 c 0,6,7
 321 755 321 755 322 745 c 2,8,-1
 377 177 l 1,9,10
 502 277 502 277 646 450 c 1,11,-1
 644 450 l 2,12,13
 555 450 555 450 498.5 508 c 128,-1,14
 442 566 442 566 442 648 c 0,15,16
 442 736 442 736 502.5 794.5 c 128,-1,17
 563 853 563 853 646 853 c 0,18,19
 731 853 731 853 790.5 793.5 c 128,-1,20
 850 734 850 734 850 649 c 0,21,22
 850 529 850 529 796 448 c 0,23,24
 632 201 632 201 398 0 c 1,25,-1
 215 0 l 1,26,-1
 148 686 l 2,27,28
 143 732 143 732 143 786 c 0,29,30
 143 874 143 874 175.5 953 c 128,-1,31
 208 1032 208 1032 269.5 1095 c 128,-1,32
 331 1158 331 1158 431 1195 c 128,-1,33
 531 1232 531 1232 656 1232 c 0,34,35
 737 1232 737 1232 806 1217.5 c 128,-1,36
 875 1203 875 1203 941.5 1165.5 c 128,-1,37
 1008 1128 1008 1128 1054.5 1068 c 128,-1,38
 1101 1008 1101 1008 1129 911.5 c 128,-1,39
 1157 815 1157 815 1157 689 c 2,40,-1
 1157 0 l 1,41,-1
 973 0 l 1,42,-1
 973 751 l 2,43,44
 973 803 973 803 964.5 847 c 128,-1,45
 956 891 956 891 934.5 933.5 c 128,-1,46
 913 976 913 976 878.5 1006 c 128,-1,47
 844 1036 844 1036 788.5 1054 c 128,-1,48
 733 1072 733 1072 660 1072 c 0,0,1
646 721 m 0,49,50
 615 721 615 721 594.5 699.5 c 128,-1,51
 574 678 574 678 574 649 c 0,52,53
 574 618 574 618 595.5 597.5 c 128,-1,54
 617 577 617 577 646 577 c 0,55,56
 677 577 677 577 697.5 598.5 c 128,-1,57
 718 620 718 620 718 649 c 0,58,59
 718 680 718 680 696.5 700.5 c 128,-1,60
 675 721 675 721 646 721 c 0,49,50
EndSplineSet
EndChar

StartChar: uni0E15
Encoding: 3605 3605 230
Width: 1340
GlyphClass: 2
Flags: W
LayerCount: 2
Fore
SplineSet
847 1243 m 1,0,1
 986 1197 986 1197 1075 1083 c 128,-1,2
 1164 969 1164 969 1164 801 c 2,3,-1
 1164 0 l 1,4,-1
 981 0 l 1,5,-1
 981 785 l 2,6,7
 981 1007 981 1007 848 1072 c 1,8,-1
 700 958 l 1,9,-1
 633 958 l 1,10,-1
 481 1072 l 1,11,12
 413 1036 413 1036 370.5 968 c 128,-1,13
 328 900 328 900 328 812 c 0,14,15
 328 801 328 801 330 779 c 2,16,-1
 387 176 l 1,17,-1
 656 459 l 1,18,19
 566 459 566 459 509 516.5 c 128,-1,20
 452 574 452 574 452 658 c 0,21,22
 452 743 452 743 511.5 802.5 c 128,-1,23
 571 862 571 862 656 862 c 128,-1,24
 741 862 741 862 800.5 802.5 c 128,-1,25
 860 743 860 743 860 658 c 0,26,27
 860 540 860 540 806 457 c 0,28,29
 627 188 627 188 408 0 c 1,30,-1
 225 0 l 1,31,-1
 146 800 l 2,32,33
 144 824 144 824 144 837 c 0,34,35
 144 918 144 918 177 994.5 c 128,-1,36
 210 1071 210 1071 286.5 1139.5 c 128,-1,37
 363 1208 363 1208 473 1243 c 1,38,-1
 664 1092 l 1,39,-1
 847 1243 l 1,0,1
656 730 m 0,40,41
 625 730 625 730 604.5 708.5 c 128,-1,42
 584 687 584 687 584 658 c 0,43,44
 584 627 584 627 605.5 606.5 c 128,-1,45
 627 586 627 586 656 586 c 0,46,47
 687 586 687 586 707.5 607.5 c 128,-1,48
 728 629 728 629 728 658 c 0,49,50
 728 689 728 689 706.5 709.5 c 128,-1,51
 685 730 685 730 656 730 c 0,40,41
EndSplineSet
EndChar

StartChar: uni0E16
Encoding: 3606 3606 231
Width: 1340
GlyphClass: 2
Flags: W
LayerCount: 2
Fore
SplineSet
442 122 m 0,0,1
 473 122 473 122 493.5 143.5 c 128,-1,2
 514 165 514 165 514 194 c 0,3,4
 514 225 514 225 492.5 245.5 c 128,-1,5
 471 266 471 266 442 266 c 0,6,7
 411 266 411 266 390.5 244.5 c 128,-1,8
 370 223 370 223 370 194 c 0,9,10
 370 163 370 163 391.5 142.5 c 128,-1,11
 413 122 413 122 442 122 c 0,0,1
666 1232 m 0,12,13
 734 1232 734 1232 797 1219.5 c 128,-1,14
 860 1207 860 1207 926 1173.5 c 128,-1,15
 992 1140 992 1140 1040.5 1088.5 c 128,-1,16
 1089 1037 1089 1037 1119.5 951.5 c 128,-1,17
 1150 866 1150 866 1150 756 c 2,18,-1
 1150 0 l 1,19,-1
 968 0 l 1,20,-1
 968 740 l 2,21,22
 968 1072 968 1072 666 1072 c 0,23,24
 560 1072 560 1072 462.5 1038 c 128,-1,25
 365 1004 365 1004 294 950 c 1,26,-1
 545 836 l 1,27,-1
 545 688 l 1,28,29
 483 664 483 664 435 608.5 c 128,-1,30
 387 553 387 553 387 464 c 2,31,-1
 387 395 l 2,32,33
 388 398 388 398 442 398 c 0,34,35
 527 398 527 398 586.5 338.5 c 128,-1,36
 646 279 646 279 646 194 c 128,-1,37
 646 109 646 109 586.5 49.5 c 128,-1,38
 527 -10 527 -10 442 -10 c 0,39,40
 326 -10 326 -10 264 64 c 128,-1,41
 202 138 202 138 202 239 c 2,42,-1
 202 465 l 2,43,44
 202 548 202 548 248 633.5 c 128,-1,45
 294 719 294 719 376 760 c 1,46,-1
 138 862 l 1,47,-1
 138 1056 l 1,48,49
 350 1232 350 1232 666 1232 c 0,12,13
EndSplineSet
EndChar

StartChar: uni0E17
Encoding: 3607 3607 232
Width: 1420
GlyphClass: 2
Flags: W
LayerCount: 2
Fore
SplineSet
290 1080 m 0,0,1
 259 1080 259 1080 238.5 1058.5 c 128,-1,2
 218 1037 218 1037 218 1008 c 0,3,4
 218 977 218 977 239.5 956.5 c 128,-1,5
 261 936 261 936 290 936 c 0,6,7
 321 936 321 936 341.5 957.5 c 128,-1,8
 362 979 362 979 362 1008 c 0,9,10
 362 1039 362 1039 340.5 1059.5 c 128,-1,11
 319 1080 319 1080 290 1080 c 0,0,1
986 1222 m 0,12,13
 1084 1222 1084 1222 1153.5 1153.5 c 128,-1,14
 1223 1085 1223 1085 1223 988 c 2,15,-1
 1223 0 l 1,16,-1
 1040 0 l 1,17,-1
 1040 961 l 2,18,19
 1040 1070 1040 1070 956 1070 c 0,20,21
 876 1070 876 1070 842 988 c 0,22,23
 689 619 689 619 525 0 c 1,24,-1
 344 0 l 1,25,-1
 344 807 l 2,26,27
 342 804 342 804 290 804 c 0,28,29
 205 804 205 804 145.5 863.5 c 128,-1,30
 86 923 86 923 86 1008 c 128,-1,31
 86 1093 86 1093 145.5 1152.5 c 128,-1,32
 205 1212 205 1212 290 1212 c 0,33,34
 407 1212 407 1212 468.5 1137 c 128,-1,35
 530 1062 530 1062 530 963 c 2,36,-1
 530 454 l 1,37,38
 628 824 628 824 719 1033 c 0,39,40
 803 1222 803 1222 986 1222 c 0,12,13
EndSplineSet
EndChar

StartChar: uni0E18
Encoding: 3608 3608 233
Width: 1200
GlyphClass: 2
Flags: W
LayerCount: 2
Fore
SplineSet
662 1222 m 0,0,1
 754 1222 754 1222 832.5 1200 c 128,-1,2
 911 1178 911 1178 962.5 1142 c 128,-1,3
 1014 1106 1014 1106 1046 1070.5 c 128,-1,4
 1078 1035 1078 1035 1097 999 c 1,5,-1
 945 887 l 1,6,7
 941 904 941 904 931.5 923 c 128,-1,8
 922 942 922 942 899.5 968 c 128,-1,9
 877 994 877 994 846.5 1014 c 128,-1,10
 816 1034 816 1034 764.5 1048 c 128,-1,11
 713 1062 713 1062 651 1062 c 0,12,13
 549 1062 549 1062 455 1027.5 c 128,-1,14
 361 993 361 993 291 940 c 1,15,-1
 743 858 l 2,16,17
 1003 811 1003 811 1003 588 c 2,18,-1
 1003 196 l 2,19,20
 1003 0 1003 0 715 0 c 2,21,-1
 228 0 l 1,22,-1
 228 674 l 1,23,-1
 407 674 l 1,24,-1
 407 154 l 1,25,-1
 715 154 l 2,26,27
 821 154 821 154 821 258 c 2,28,-1
 821 547 l 2,29,30
 821 675 821 675 673 702 c 2,31,-1
 134 802 l 1,32,-1
 134 1046 l 1,33,34
 347 1222 347 1222 662 1222 c 0,0,1
EndSplineSet
EndChar

StartChar: uni0E19
Encoding: 3609 3609 234
Width: 1430
GlyphClass: 2
Flags: W
AnchorPoint: "Anchor-1" 1166 1340 basechar 0
LayerCount: 2
Fore
SplineSet
284 1080 m 0,0,1
 253 1080 253 1080 232.5 1058.5 c 128,-1,2
 212 1037 212 1037 212 1008 c 0,3,4
 212 977 212 977 233.5 956.5 c 128,-1,5
 255 936 255 936 284 936 c 0,6,7
 315 936 315 936 335.5 957.5 c 128,-1,8
 356 979 356 979 356 1008 c 0,9,10
 356 1039 356 1039 334.5 1059.5 c 128,-1,11
 313 1080 313 1080 284 1080 c 0,0,1
1124 -20 m 0,12,13
 1041 -20 1041 -20 980.5 38.5 c 128,-1,14
 920 97 920 97 920 194 c 1,15,16
 765 164 765 164 521 0 c 1,17,-1
 338 0 l 1,18,-1
 338 807 l 2,19,20
 336 804 336 804 284 804 c 0,21,22
 199 804 199 804 139.5 863.5 c 128,-1,23
 80 923 80 923 80 1008 c 128,-1,24
 80 1093 80 1093 139.5 1152.5 c 128,-1,25
 199 1212 199 1212 284 1212 c 0,26,27
 400 1212 400 1212 462 1138 c 128,-1,28
 524 1064 524 1064 524 963 c 2,29,-1
 524 171 l 1,30,31
 700 310 700 310 983 374 c 1,32,-1
 983 1202 l 1,33,-1
 1164 1202 l 1,34,-1
 1164 379 l 1,35,36
 1217 378 1217 378 1272.5 324.5 c 128,-1,37
 1328 271 1328 271 1328 184 c 0,38,39
 1328 99 1328 99 1268.5 39.5 c 128,-1,40
 1209 -20 1209 -20 1124 -20 c 0,12,13
1124 256 m 0,41,42
 1093 256 1093 256 1072.5 234.5 c 128,-1,43
 1052 213 1052 213 1052 184 c 0,44,45
 1052 153 1052 153 1073.5 132.5 c 128,-1,46
 1095 112 1095 112 1124 112 c 0,47,48
 1155 112 1155 112 1175.5 133.5 c 128,-1,49
 1196 155 1196 155 1196 184 c 0,50,51
 1196 215 1196 215 1174.5 235.5 c 128,-1,52
 1153 256 1153 256 1124 256 c 0,41,42
EndSplineSet
EndChar

StartChar: uni0E1A
Encoding: 3610 3610 235
Width: 1400
GlyphClass: 2
Flags: W
LayerCount: 2
Fore
SplineSet
284 1080 m 0,0,1
 253 1080 253 1080 232.5 1058.5 c 128,-1,2
 212 1037 212 1037 212 1008 c 0,3,4
 212 977 212 977 233.5 956.5 c 128,-1,5
 255 936 255 936 284 936 c 0,6,7
 315 936 315 936 335.5 957.5 c 128,-1,8
 356 979 356 979 356 1008 c 0,9,10
 356 1039 356 1039 334.5 1059.5 c 128,-1,11
 313 1080 313 1080 284 1080 c 0,0,1
284 1212 m 0,12,13
 400 1212 400 1212 462 1138 c 128,-1,14
 524 1064 524 1064 524 963 c 2,15,-1
 524 154 l 1,16,-1
 1032 154 l 1,17,-1
 1032 1202 l 1,18,-1
 1214 1202 l 1,19,-1
 1214 0 l 1,20,-1
 338 0 l 1,21,-1
 338 807 l 2,22,23
 336 804 336 804 284 804 c 0,24,25
 199 804 199 804 139.5 863.5 c 128,-1,26
 80 923 80 923 80 1008 c 128,-1,27
 80 1093 80 1093 139.5 1152.5 c 128,-1,28
 199 1212 199 1212 284 1212 c 0,12,13
EndSplineSet
EndChar

StartChar: uni0E1B
Encoding: 3611 3611 236
Width: 1400
GlyphClass: 2
Flags: W
AnchorPoint: "Anchor-1" 942 1340 basechar 0
LayerCount: 2
Fore
SplineSet
284 1080 m 0,0,1
 253 1080 253 1080 232.5 1058.5 c 128,-1,2
 212 1037 212 1037 212 1008 c 0,3,4
 212 977 212 977 233.5 956.5 c 128,-1,5
 255 936 255 936 284 936 c 0,6,7
 315 936 315 936 335.5 957.5 c 128,-1,8
 356 979 356 979 356 1008 c 0,9,10
 356 1039 356 1039 334.5 1059.5 c 128,-1,11
 313 1080 313 1080 284 1080 c 0,0,1
284 1212 m 0,12,13
 400 1212 400 1212 462 1138 c 128,-1,14
 524 1064 524 1064 524 963 c 2,15,-1
 524 154 l 1,16,-1
 1032 154 l 1,17,-1
 1032 1638 l 1,18,-1
 1214 1638 l 1,19,-1
 1214 0 l 1,20,-1
 338 0 l 1,21,-1
 338 807 l 2,22,23
 336 804 336 804 284 804 c 0,24,25
 199 804 199 804 139.5 863.5 c 128,-1,26
 80 923 80 923 80 1008 c 128,-1,27
 80 1093 80 1093 139.5 1152.5 c 128,-1,28
 199 1212 199 1212 284 1212 c 0,12,13
EndSplineSet
EndChar

StartChar: uni0E1C
Encoding: 3612 3612 237
Width: 1350
GlyphClass: 2
Flags: W
LayerCount: 2
Fore
SplineSet
416 936 m 0,0,1
 447 936 447 936 467.5 957.5 c 128,-1,2
 488 979 488 979 488 1008 c 0,3,4
 488 1039 488 1039 466.5 1059.5 c 128,-1,5
 445 1080 445 1080 416 1080 c 0,6,7
 385 1080 385 1080 364.5 1058.5 c 128,-1,8
 344 1037 344 1037 344 1008 c 0,9,10
 344 977 344 977 365.5 956.5 c 128,-1,11
 387 936 387 936 416 936 c 0,0,1
620 1008 m 128,-1,13
 620 923 620 923 560.5 863.5 c 128,-1,14
 501 804 501 804 416 804 c 0,15,16
 364 804 364 804 363 807 c 2,17,-1
 363 299 l 1,18,-1
 581 704 l 1,19,-1
 755 704 l 1,20,-1
 977 303 l 1,21,-1
 977 1202 l 1,22,-1
 1160 1202 l 1,23,-1
 1160 0 l 1,24,-1
 956 0 l 1,25,-1
 662 542 l 1,26,-1
 367 0 l 1,27,-1
 176 0 l 1,28,-1
 176 963 l 2,29,30
 176 1064 176 1064 238 1138 c 128,-1,31
 300 1212 300 1212 416 1212 c 0,32,33
 501 1212 501 1212 560.5 1152.5 c 128,-1,12
 620 1093 620 1093 620 1008 c 128,-1,13
EndSplineSet
EndChar

StartChar: uni0E1D
Encoding: 3613 3613 238
Width: 1350
GlyphClass: 2
Flags: W
AnchorPoint: "Anchor-1" 900 1340 basechar 0
LayerCount: 2
Fore
SplineSet
416 936 m 0,0,1
 447 936 447 936 467.5 957.5 c 128,-1,2
 488 979 488 979 488 1008 c 0,3,4
 488 1039 488 1039 466.5 1059.5 c 128,-1,5
 445 1080 445 1080 416 1080 c 0,6,7
 385 1080 385 1080 364.5 1058.5 c 128,-1,8
 344 1037 344 1037 344 1008 c 0,9,10
 344 977 344 977 365.5 956.5 c 128,-1,11
 387 936 387 936 416 936 c 0,0,1
620 1008 m 128,-1,13
 620 923 620 923 560.5 863.5 c 128,-1,14
 501 804 501 804 416 804 c 0,15,16
 364 804 364 804 363 807 c 2,17,-1
 363 299 l 1,18,-1
 581 704 l 1,19,-1
 755 704 l 1,20,-1
 977 303 l 1,21,-1
 977 1638 l 1,22,-1
 1160 1638 l 1,23,-1
 1160 0 l 1,24,-1
 956 0 l 1,25,-1
 662 542 l 1,26,-1
 367 0 l 1,27,-1
 176 0 l 1,28,-1
 176 963 l 2,29,30
 176 1064 176 1064 238 1138 c 128,-1,31
 300 1212 300 1212 416 1212 c 0,32,33
 501 1212 501 1212 560.5 1152.5 c 128,-1,12
 620 1093 620 1093 620 1008 c 128,-1,13
EndSplineSet
EndChar

StartChar: uni0E1E
Encoding: 3614 3614 239
Width: 1460
GlyphClass: 2
Flags: W
LayerCount: 2
Fore
SplineSet
274 1080 m 0,0,1
 243 1080 243 1080 222.5 1058.5 c 128,-1,2
 202 1037 202 1037 202 1008 c 0,3,4
 202 977 202 977 223.5 956.5 c 128,-1,5
 245 936 245 936 274 936 c 0,6,7
 305 936 305 936 325.5 957.5 c 128,-1,8
 346 979 346 979 346 1008 c 0,9,10
 346 1039 346 1039 324.5 1059.5 c 128,-1,11
 303 1080 303 1080 274 1080 c 0,0,1
70 1008 m 128,-1,13
 70 1093 70 1093 129.5 1152.5 c 128,-1,14
 189 1212 189 1212 274 1212 c 0,15,16
 389 1212 389 1212 451.5 1138.5 c 128,-1,17
 514 1065 514 1065 514 963 c 2,18,-1
 514 372 l 1,19,-1
 708 1108 l 1,20,-1
 884 1108 l 1,21,-1
 1077 376 l 1,22,-1
 1077 1202 l 1,23,-1
 1260 1202 l 1,24,-1
 1260 0 l 1,25,-1
 1055 0 l 1,26,-1
 791 926 l 1,27,-1
 521 0 l 1,28,-1
 328 0 l 1,29,-1
 328 807 l 2,30,31
 326 804 326 804 274 804 c 0,32,33
 189 804 189 804 129.5 863.5 c 128,-1,12
 70 923 70 923 70 1008 c 128,-1,13
EndSplineSet
EndChar

StartChar: uni0E1F
Encoding: 3615 3615 240
Width: 1460
GlyphClass: 2
Flags: W
AnchorPoint: "Anchor-1" 1016 1340 basechar 0
LayerCount: 2
Fore
SplineSet
274 1080 m 0,0,1
 243 1080 243 1080 222.5 1058.5 c 128,-1,2
 202 1037 202 1037 202 1008 c 0,3,4
 202 977 202 977 223.5 956.5 c 128,-1,5
 245 936 245 936 274 936 c 0,6,7
 305 936 305 936 325.5 957.5 c 128,-1,8
 346 979 346 979 346 1008 c 0,9,10
 346 1039 346 1039 324.5 1059.5 c 128,-1,11
 303 1080 303 1080 274 1080 c 0,0,1
70 1008 m 128,-1,13
 70 1093 70 1093 129.5 1152.5 c 128,-1,14
 189 1212 189 1212 274 1212 c 0,15,16
 389 1212 389 1212 451.5 1138.5 c 128,-1,17
 514 1065 514 1065 514 963 c 2,18,-1
 514 372 l 1,19,-1
 708 1108 l 1,20,-1
 884 1108 l 1,21,-1
 1077 376 l 1,22,-1
 1077 1638 l 1,23,-1
 1260 1638 l 1,24,-1
 1260 0 l 1,25,-1
 1055 0 l 1,26,-1
 791 926 l 1,27,-1
 521 0 l 1,28,-1
 328 0 l 1,29,-1
 328 807 l 2,30,31
 326 804 326 804 274 804 c 0,32,33
 189 804 189 804 129.5 863.5 c 128,-1,12
 70 923 70 923 70 1008 c 128,-1,13
EndSplineSet
EndChar

StartChar: uni0E20
Encoding: 3616 3616 241
Width: 1440
GlyphClass: 2
Flags: W
LayerCount: 2
Fore
SplineSet
273 266 m 0,0,1
 242 266 242 266 221.5 244.5 c 128,-1,2
 201 223 201 223 201 194 c 0,3,4
 201 163 201 163 222.5 142.5 c 128,-1,5
 244 122 244 122 273 122 c 0,6,7
 304 122 304 122 324.5 143.5 c 128,-1,8
 345 165 345 165 345 194 c 0,9,10
 345 225 345 225 323.5 245.5 c 128,-1,11
 302 266 302 266 273 266 c 0,0,1
1061 740 m 2,12,13
 1061 908 1061 908 986.5 990 c 128,-1,14
 912 1072 912 1072 752 1072 c 0,15,16
 650 1072 650 1072 555 1037.5 c 128,-1,17
 460 1003 460 1003 390 950 c 1,18,-1
 641 836 l 1,19,-1
 641 688 l 1,20,21
 584 663 584 663 548.5 621 c 128,-1,22
 513 579 513 579 513 506 c 2,23,-1
 513 239 l 2,24,25
 513 138 513 138 450.5 64 c 128,-1,26
 388 -10 388 -10 273 -10 c 0,27,28
 188 -10 188 -10 128.5 49.5 c 128,-1,29
 69 109 69 109 69 194 c 128,-1,30
 69 279 69 279 128.5 338.5 c 128,-1,31
 188 398 188 398 273 398 c 0,32,33
 325 398 325 398 326 394 c 2,34,-1
 326 506 l 2,35,36
 326 538 326 538 332 572 c 128,-1,37
 338 606 338 606 352.5 645 c 128,-1,38
 367 684 367 684 398 715 c 128,-1,39
 429 746 429 746 472 760 c 1,40,-1
 234 862 l 1,41,-1
 234 1056 l 1,42,43
 334 1139 334 1139 471 1186 c 128,-1,44
 608 1233 608 1233 746 1233 c 0,45,46
 818 1233 818 1233 884 1220.5 c 128,-1,47
 950 1208 950 1208 1018 1174.5 c 128,-1,48
 1086 1141 1086 1141 1135 1089.5 c 128,-1,49
 1184 1038 1184 1038 1215 952 c 128,-1,50
 1246 866 1246 866 1246 756 c 2,51,-1
 1246 0 l 1,52,-1
 1061 0 l 1,53,-1
 1061 740 l 2,12,13
EndSplineSet
EndChar

StartChar: uni0E21
Encoding: 3617 3617 242
Width: 1370
GlyphClass: 2
Flags: W
LayerCount: 2
Fore
SplineSet
325 1212 m 0,0,1
 441 1212 441 1212 503 1138 c 128,-1,2
 565 1064 565 1064 565 963 c 2,3,-1
 565 389 l 1,4,5
 788 345 788 345 1008 209 c 1,6,-1
 1008 1202 l 1,7,-1
 1192 1202 l 1,8,-1
 1192 0 l 1,9,-1
 1002 0 l 1,10,11
 806 153 806 153 565 212 c 1,12,13
 565 170 565 170 553 132.5 c 128,-1,14
 541 95 541 95 513.5 59 c 128,-1,15
 486 23 486 23 433 1.5 c 128,-1,16
 380 -20 380 -20 307 -20 c 0,17,18
 224 -20 224 -20 163.5 39 c 128,-1,19
 103 98 103 98 103 204 c 0,20,21
 103 301 103 301 169 359.5 c 128,-1,22
 235 418 235 418 307 418 c 128,-1,23
 379 418 379 418 379 417 c 2,24,-1
 379 807 l 2,25,26
 378 804 378 804 325 804 c 0,27,28
 240 804 240 804 180.5 863.5 c 128,-1,29
 121 923 121 923 121 1008 c 128,-1,30
 121 1093 121 1093 180.5 1152.5 c 128,-1,31
 240 1212 240 1212 325 1212 c 0,0,1
307 276 m 0,32,33
 276 276 276 276 255.5 254.5 c 128,-1,34
 235 233 235 233 235 204 c 0,35,36
 235 173 235 173 256.5 152.5 c 128,-1,37
 278 132 278 132 307 132 c 0,38,39
 338 132 338 132 358.5 153.5 c 128,-1,40
 379 175 379 175 379 204 c 0,41,42
 379 235 379 235 357.5 255.5 c 128,-1,43
 336 276 336 276 307 276 c 0,32,33
325 1080 m 0,44,45
 294 1080 294 1080 273.5 1058.5 c 128,-1,46
 253 1037 253 1037 253 1008 c 0,47,48
 253 977 253 977 274.5 956.5 c 128,-1,49
 296 936 296 936 325 936 c 0,50,51
 356 936 356 936 376.5 957.5 c 128,-1,52
 397 979 397 979 397 1008 c 0,53,54
 397 1039 397 1039 375.5 1059.5 c 128,-1,55
 354 1080 354 1080 325 1080 c 0,44,45
EndSplineSet
EndChar

StartChar: uni0E22
Encoding: 3618 3618 243
Width: 1290
GlyphClass: 2
Flags: W
LayerCount: 2
Fore
SplineSet
434 936 m 0,0,1
 465 936 465 936 485.5 957.5 c 128,-1,2
 506 979 506 979 506 1008 c 0,3,4
 506 1039 506 1039 484.5 1059.5 c 128,-1,5
 463 1080 463 1080 434 1080 c 0,6,7
 403 1080 403 1080 382.5 1058.5 c 128,-1,8
 362 1037 362 1037 362 1008 c 0,9,10
 362 977 362 977 383.5 956.5 c 128,-1,11
 405 936 405 936 434 936 c 0,0,1
638 1008 m 128,-1,13
 638 923 638 923 578.5 863.5 c 128,-1,14
 519 804 519 804 434 804 c 0,15,16
 378 804 378 804 316 848 c 1,17,18
 320 831 320 831 328 815 c 128,-1,19
 336 799 336 799 359.5 775.5 c 128,-1,20
 383 752 383 752 417 735.5 c 128,-1,21
 451 719 451 719 512.5 706.5 c 128,-1,22
 574 694 574 694 653 694 c 1,23,-1
 653 509 l 1,24,25
 360 509 360 509 360 302 c 2,26,-1
 360 154 l 1,27,-1
 924 154 l 1,28,-1
 924 1202 l 1,29,-1
 1108 1202 l 1,30,-1
 1108 0 l 1,31,-1
 162 0 l 1,32,-1
 162 304 l 2,33,34
 162 538 162 538 384 606 c 1,35,36
 342 620 342 620 303 643.5 c 128,-1,37
 264 667 264 667 227 704 c 128,-1,38
 190 741 190 741 167.5 797 c 128,-1,39
 145 853 145 853 145 920 c 0,40,41
 145 1051 145 1051 226.5 1131.5 c 128,-1,42
 308 1212 308 1212 434 1212 c 0,43,44
 519 1212 519 1212 578.5 1152.5 c 128,-1,12
 638 1093 638 1093 638 1008 c 128,-1,13
EndSplineSet
EndChar

StartChar: uni0E23
Encoding: 3619 3619 244
Width: 1150
GlyphClass: 2
Flags: W
LayerCount: 2
Fore
SplineSet
656 256 m 0,0,1
 625 256 625 256 604.5 234.5 c 128,-1,2
 584 213 584 213 584 184 c 0,3,4
 584 153 584 153 605.5 132.5 c 128,-1,5
 627 112 627 112 656 112 c 0,6,7
 687 112 687 112 707.5 133.5 c 128,-1,8
 728 155 728 155 728 184 c 0,9,10
 728 215 728 215 706.5 235.5 c 128,-1,11
 685 256 685 256 656 256 c 0,0,1
124 1046 m 1,12,13
 343 1222 343 1222 652 1222 c 0,14,15
 744 1222 744 1222 822.5 1200 c 128,-1,16
 901 1178 901 1178 952.5 1142 c 128,-1,17
 1004 1106 1004 1106 1036 1070.5 c 128,-1,18
 1068 1035 1068 1035 1087 999 c 1,19,-1
 935 887 l 1,20,21
 916 967 916 967 831.5 1015 c 128,-1,22
 747 1063 747 1063 632 1063 c 0,23,24
 443 1063 443 1063 281 940 c 1,25,-1
 632 858 l 2,26,27
 896 796 896 796 896 588 c 2,28,-1
 896 229 l 2,29,30
 896 127 896 127 833.5 53.5 c 128,-1,31
 771 -20 771 -20 656 -20 c 0,32,33
 571 -20 571 -20 511.5 39.5 c 128,-1,34
 452 99 452 99 452 184 c 128,-1,35
 452 269 452 269 511.5 328.5 c 128,-1,36
 571 388 571 388 656 388 c 0,37,38
 708 388 708 388 710 385 c 2,39,-1
 710 546 l 2,40,41
 710 668 710 668 562 702 c 2,42,-1
 124 802 l 1,43,-1
 124 1046 l 1,12,13
EndSplineSet
EndChar

StartChar: uni0E24
Encoding: 3620 3620 245
Width: 1340
GlyphClass: 2
Flags: W
LayerCount: 2
Fore
SplineSet
442 122 m 0,0,1
 473 122 473 122 493.5 143.5 c 128,-1,2
 514 165 514 165 514 194 c 0,3,4
 514 225 514 225 492.5 245.5 c 128,-1,5
 471 266 471 266 442 266 c 0,6,7
 411 266 411 266 390.5 244.5 c 128,-1,8
 370 223 370 223 370 194 c 0,9,10
 370 163 370 163 391.5 142.5 c 128,-1,11
 413 122 413 122 442 122 c 0,0,1
666 1232 m 0,12,13
 734 1232 734 1232 797 1219.5 c 128,-1,14
 860 1207 860 1207 926 1173.5 c 128,-1,15
 992 1140 992 1140 1040.5 1088.5 c 128,-1,16
 1089 1037 1089 1037 1119.5 951.5 c 128,-1,17
 1150 866 1150 866 1150 756 c 2,18,-1
 1150 -410 l 1,19,-1
 967 -410 l 1,20,-1
 967 740 l 2,21,22
 967 1072 967 1072 666 1072 c 0,23,24
 560 1072 560 1072 462.5 1038 c 128,-1,25
 365 1004 365 1004 294 950 c 1,26,-1
 545 836 l 1,27,-1
 545 688 l 1,28,29
 507 673 507 673 474 648.5 c 128,-1,30
 441 624 441 624 414 575 c 128,-1,31
 387 526 387 526 387 464 c 2,32,-1
 387 395 l 2,33,34
 388 398 388 398 442 398 c 0,35,36
 527 398 527 398 586.5 338.5 c 128,-1,37
 646 279 646 279 646 194 c 128,-1,38
 646 109 646 109 586.5 49.5 c 128,-1,39
 527 -10 527 -10 442 -10 c 0,40,41
 326 -10 326 -10 264 64 c 128,-1,42
 202 138 202 138 202 239 c 2,43,-1
 202 465 l 2,44,45
 202 548 202 548 248 633.5 c 128,-1,46
 294 719 294 719 376 760 c 1,47,-1
 138 862 l 1,48,-1
 138 1056 l 1,49,50
 350 1232 350 1232 666 1232 c 0,12,13
EndSplineSet
EndChar

StartChar: uni0E25
Encoding: 3621 3621 246
Width: 1290
GlyphClass: 2
Flags: W
LayerCount: 2
Fore
SplineSet
181 486 m 2,0,1
 181 532 181 532 192.5 582 c 128,-1,2
 204 632 204 632 230.5 683.5 c 128,-1,3
 257 735 257 735 294.5 775.5 c 128,-1,4
 332 816 332 816 390 842 c 128,-1,5
 448 868 448 868 517 868 c 0,6,7
 591 868 591 868 658 836 c 128,-1,8
 725 804 725 804 771 742 c 0,9,10
 862 618 862 618 930 406 c 1,11,-1
 930 740 l 2,12,13
 930 892 930 892 842.5 982 c 128,-1,14
 755 1072 755 1072 610 1072 c 0,15,16
 380 1072 380 1072 152 972 c 1,17,-1
 152 1142 l 1,18,19
 341 1232 341 1232 610 1232 c 0,20,21
 685 1232 685 1232 752.5 1219.5 c 128,-1,22
 820 1207 820 1207 887.5 1173.5 c 128,-1,23
 955 1140 955 1140 1003.5 1088.5 c 128,-1,24
 1052 1037 1052 1037 1082.5 951.5 c 128,-1,25
 1113 866 1113 866 1113 756 c 2,26,-1
 1113 0 l 1,27,-1
 909 1 l 1,28,29
 801 383 801 383 714 544 c 128,-1,30
 627 705 627 705 513 705 c 0,31,32
 367 705 367 705 367 477 c 2,33,-1
 367 384 l 1,34,35
 391 396 391 396 429 396 c 0,36,37
 459 396 459 396 491.5 386.5 c 128,-1,38
 524 377 524 377 558 356.5 c 128,-1,39
 592 336 592 336 613.5 294 c 128,-1,40
 635 252 635 252 635 196 c 0,41,42
 635 139 635 139 613 96.5 c 128,-1,43
 591 54 591 54 555.5 32 c 128,-1,44
 520 10 520 10 485 0 c 128,-1,45
 450 -10 450 -10 415 -10 c 0,46,47
 181 -10 181 -10 181 290 c 2,48,-1
 181 486 l 2,0,1
502 194 m 0,49,50
 502 224 502 224 480.5 245.5 c 128,-1,51
 459 267 459 267 427 267 c 0,52,53
 394 267 394 267 372 245.5 c 128,-1,54
 350 224 350 224 350 194 c 0,55,56
 350 162 350 162 372.5 140 c 128,-1,57
 395 118 395 118 426 118 c 0,58,59
 458 118 458 118 480 140.5 c 128,-1,60
 502 163 502 163 502 194 c 0,49,50
EndSplineSet
EndChar

StartChar: uni0E26
Encoding: 3622 3622 247
Width: 1420
GlyphClass: 2
Flags: W
LayerCount: 2
Fore
SplineSet
273 266 m 0,0,1
 242 266 242 266 221.5 244.5 c 128,-1,2
 201 223 201 223 201 194 c 0,3,4
 201 163 201 163 222.5 142.5 c 128,-1,5
 244 122 244 122 273 122 c 0,6,7
 304 122 304 122 324.5 143.5 c 128,-1,8
 345 165 345 165 345 194 c 0,9,10
 345 225 345 225 323.5 245.5 c 128,-1,11
 302 266 302 266 273 266 c 0,0,1
1061 740 m 2,12,13
 1061 908 1061 908 986.5 990 c 128,-1,14
 912 1072 912 1072 752 1072 c 0,15,16
 650 1072 650 1072 555 1037.5 c 128,-1,17
 460 1003 460 1003 390 950 c 1,18,-1
 641 836 l 1,19,-1
 641 688 l 1,20,21
 584 663 584 663 548.5 621 c 128,-1,22
 513 579 513 579 513 506 c 2,23,-1
 513 239 l 2,24,25
 513 137 513 137 450.5 63.5 c 128,-1,26
 388 -10 388 -10 273 -10 c 0,27,28
 188 -10 188 -10 128.5 49.5 c 128,-1,29
 69 109 69 109 69 194 c 128,-1,30
 69 279 69 279 128.5 338.5 c 128,-1,31
 188 398 188 398 273 398 c 0,32,33
 325 398 325 398 326 394 c 2,34,-1
 326 506 l 2,35,36
 326 538 326 538 332 572 c 128,-1,37
 338 606 338 606 352.5 645 c 128,-1,38
 367 684 367 684 398 715 c 128,-1,39
 429 746 429 746 472 760 c 1,40,-1
 234 862 l 1,41,-1
 234 1056 l 1,42,43
 334 1139 334 1139 471 1186 c 128,-1,44
 608 1233 608 1233 746 1233 c 0,45,46
 818 1233 818 1233 884 1220.5 c 128,-1,47
 950 1208 950 1208 1018 1174.5 c 128,-1,48
 1086 1141 1086 1141 1135 1089.5 c 128,-1,49
 1184 1038 1184 1038 1215 952 c 128,-1,50
 1246 866 1246 866 1246 756 c 2,51,-1
 1246 -409 l 1,52,-1
 1061 -409 l 1,53,-1
 1061 740 l 2,12,13
EndSplineSet
EndChar

StartChar: uni0E27
Encoding: 3623 3623 248
Width: 1140
GlyphClass: 2
Flags: W
LayerCount: 2
Fore
SplineSet
704 256 m 0,0,1
 673 256 673 256 652.5 234.5 c 128,-1,2
 632 213 632 213 632 184 c 0,3,4
 632 153 632 153 653.5 132.5 c 128,-1,5
 675 112 675 112 704 112 c 0,6,7
 735 112 735 112 755.5 133.5 c 128,-1,8
 776 155 776 155 776 184 c 0,9,10
 776 215 776 215 754.5 235.5 c 128,-1,11
 733 256 733 256 704 256 c 0,0,1
500 184 m 128,-1,13
 500 269 500 269 559.5 328.5 c 128,-1,14
 619 388 619 388 704 388 c 0,15,16
 755 388 755 388 758 385 c 2,17,-1
 758 796 l 2,18,19
 758 930 758 930 674 998 c 128,-1,20
 590 1066 590 1066 442 1066 c 0,21,22
 249 1066 249 1066 80 974 c 1,23,-1
 80 1144 l 1,24,25
 284 1222 284 1222 461 1222 c 0,26,27
 573 1222 573 1222 659 1194.5 c 128,-1,28
 745 1167 745 1167 798 1121 c 128,-1,29
 851 1075 851 1075 884.5 1008.5 c 128,-1,30
 918 942 918 942 931 871 c 128,-1,31
 944 800 944 800 944 714 c 2,32,-1
 944 229 l 2,33,34
 944 128 944 128 881.5 54 c 128,-1,35
 819 -20 819 -20 704 -20 c 0,36,37
 619 -20 619 -20 559.5 39.5 c 128,-1,12
 500 99 500 99 500 184 c 128,-1,13
EndSplineSet
EndChar

StartChar: uni0E28
Encoding: 3624 3624 249
Width: 1350
GlyphClass: 2
Flags: W
LayerCount: 2
Fore
SplineSet
636 1224 m 0,0,1
 836 1224 836 1224 959 1128 c 1,2,3
 1028 1197 1028 1197 1102 1315 c 1,4,-1
 1212 1150 l 1,5,6
 1147 1066 1147 1066 1072 1001 c 1,7,8
 1137 891 1137 891 1137 681 c 2,9,-1
 1137 0 l 1,10,-1
 953 0 l 1,11,-1
 953 743 l 2,12,13
 953 825 953 825 930 891 c 1,14,15
 877 853 877 853 810 818 c 1,16,-1
 735 922 l 1,17,18
 790 961 790 961 841 1012 c 1,19,20
 765 1064 765 1064 640 1064 c 0,21,22
 473 1064 473 1064 387 981 c 128,-1,23
 301 898 301 898 301 766 c 0,24,25
 301 747 301 747 302 737 c 2,26,-1
 324 428 l 2,27,28
 324 483 324 483 368 609.5 c 128,-1,29
 412 736 412 736 468 790 c 0,30,31
 537 859 537 859 621 859 c 0,32,33
 706 859 706 859 765.5 799.5 c 128,-1,34
 825 740 825 740 825 655 c 128,-1,35
 825 570 825 570 765.5 510.5 c 128,-1,36
 706 451 706 451 621 451 c 0,37,38
 537 451 537 451 477 511 c 1,39,40
 387 324 387 324 378 0 c 1,41,-1
 195 0 l 1,42,-1
 128 678 l 2,43,44
 123 730 123 730 123 766 c 0,45,46
 123 848 123 848 144 916.5 c 128,-1,47
 165 985 165 985 198.5 1031 c 128,-1,48
 232 1077 232 1077 278 1113 c 128,-1,49
 324 1149 324 1149 370.5 1169.5 c 128,-1,50
 417 1190 417 1190 469 1202.5 c 128,-1,51
 521 1215 521 1215 560 1219.5 c 128,-1,52
 599 1224 599 1224 636 1224 c 0,0,1
621 727 m 0,53,54
 590 727 590 727 569.5 705.5 c 128,-1,55
 549 684 549 684 549 655 c 0,56,57
 549 624 549 624 570.5 603.5 c 128,-1,58
 592 583 592 583 621 583 c 0,59,60
 652 583 652 583 672.5 604.5 c 128,-1,61
 693 626 693 626 693 655 c 0,62,63
 693 686 693 686 671.5 706.5 c 128,-1,64
 650 727 650 727 621 727 c 0,53,54
EndSplineSet
EndChar

StartChar: uni0E29
Encoding: 3625 3625 250
Width: 1420
GlyphClass: 2
Flags: W
AnchorPoint: "Anchor-1" 1218 1340 basechar 0
LayerCount: 2
Fore
SplineSet
286 1080 m 0,0,1
 255 1080 255 1080 234.5 1058.5 c 128,-1,2
 214 1037 214 1037 214 1008 c 0,3,4
 214 977 214 977 235.5 956.5 c 128,-1,5
 257 936 257 936 286 936 c 0,6,7
 317 936 317 936 337.5 957.5 c 128,-1,8
 358 979 358 979 358 1008 c 0,9,10
 358 1039 358 1039 336.5 1059.5 c 128,-1,11
 315 1080 315 1080 286 1080 c 0,0,1
772 810 m 0,12,13
 791 810 791 810 812.5 805.5 c 128,-1,14
 834 801 834 801 861 788.5 c 128,-1,15
 888 776 888 776 909 756.5 c 128,-1,16
 930 737 930 737 944.5 703.5 c 128,-1,17
 959 670 959 670 959 628 c 0,18,19
 959 584 959 584 948 558 c 1,20,-1
 1034 597 l 1,21,-1
 1034 1202 l 1,22,-1
 1216 1202 l 1,23,-1
 1216 693 l 1,24,-1
 1312 768 l 1,25,-1
 1339 606 l 1,26,-1
 1216 535 l 1,27,-1
 1216 0 l 1,28,-1
 340 0 l 1,29,-1
 340 807 l 2,30,31
 338 804 338 804 286 804 c 0,32,33
 201 804 201 804 141.5 863.5 c 128,-1,34
 82 923 82 923 82 1008 c 128,-1,35
 82 1093 82 1093 141.5 1152.5 c 128,-1,36
 201 1212 201 1212 286 1212 c 0,37,38
 402 1212 402 1212 464 1138 c 128,-1,39
 526 1064 526 1064 526 963 c 2,40,-1
 526 154 l 1,41,-1
 1034 154 l 1,42,-1
 1034 467 l 1,43,44
 866 416 866 416 784 416 c 0,45,46
 682 416 682 416 626.5 474.5 c 128,-1,47
 571 533 571 533 571 613 c 128,-1,48
 571 693 571 693 624.5 751.5 c 128,-1,49
 678 810 678 810 772 810 c 0,12,13
765 696 m 0,50,51
 734 696 734 696 713.5 674.5 c 128,-1,52
 693 653 693 653 693 624 c 0,53,54
 693 593 693 593 714.5 572.5 c 128,-1,55
 736 552 736 552 765 552 c 0,56,57
 796 552 796 552 816.5 573.5 c 128,-1,58
 837 595 837 595 837 624 c 0,59,60
 837 655 837 655 815.5 675.5 c 128,-1,61
 794 696 794 696 765 696 c 0,50,51
EndSplineSet
EndChar

StartChar: uni0E2A
Encoding: 3626 3626 251
Width: 1290
GlyphClass: 2
Flags: W
LayerCount: 2
Fore
SplineSet
181 486 m 2,0,1
 181 534 181 534 193 585 c 128,-1,2
 205 636 205 636 231.5 687 c 128,-1,3
 258 738 258 738 296 778 c 128,-1,4
 334 818 334 818 391 843 c 128,-1,5
 448 868 448 868 516 868 c 0,6,7
 590 868 590 868 657.5 836 c 128,-1,8
 725 804 725 804 771 742 c 0,9,10
 862 618 862 618 930 406 c 1,11,-1
 930 740 l 2,12,13
 930 821 930 821 904 887 c 1,14,-1
 790 818 l 1,15,-1
 715 922 l 1,16,17
 766 959 766 959 816 1005 c 1,18,19
 734 1072 734 1072 610 1072 c 0,20,21
 380 1072 380 1072 152 972 c 1,22,-1
 152 1142 l 1,23,24
 332 1232 332 1232 610 1232 c 0,25,26
 818 1232 818 1232 946 1139 c 1,27,28
 1004 1209 1004 1209 1082 1315 c 1,29,-1
 1192 1150 l 1,30,31
 1136 1075 1136 1075 1060 1006 c 1,32,33
 1113 902 1113 902 1113 756 c 2,34,-1
 1113 0 l 1,35,-1
 909 0 l 1,36,37
 854 194 854 194 810 319.5 c 128,-1,38
 766 445 766 445 718.5 535.5 c 128,-1,39
 671 626 671 626 621.5 665.5 c 128,-1,40
 572 705 572 705 513 705 c 0,41,42
 367 705 367 705 367 477 c 2,43,-1
 367 384 l 1,44,45
 391 396 391 396 430 396 c 0,46,47
 453 396 453 396 478 391 c 128,-1,48
 503 386 503 386 532 371.5 c 128,-1,49
 561 357 561 357 583 335.5 c 128,-1,50
 605 314 605 314 620 278 c 128,-1,51
 635 242 635 242 635 196 c 0,52,53
 635 139 635 139 613 96.5 c 128,-1,54
 591 54 591 54 555.5 32 c 128,-1,55
 520 10 520 10 485 0 c 128,-1,56
 450 -10 450 -10 415 -10 c 0,57,58
 181 -10 181 -10 181 290 c 2,59,-1
 181 486 l 2,0,1
502 194 m 0,60,61
 502 224 502 224 480.5 245.5 c 128,-1,62
 459 267 459 267 427 267 c 0,63,64
 394 267 394 267 372 245.5 c 128,-1,65
 350 224 350 224 350 194 c 0,66,67
 350 162 350 162 372.5 140 c 128,-1,68
 395 118 395 118 426 118 c 0,69,70
 458 118 458 118 480 140.5 c 128,-1,71
 502 163 502 163 502 194 c 0,60,61
EndSplineSet
EndChar

StartChar: uni0E2B
Encoding: 3627 3627 252
Width: 1410
GlyphClass: 2
Flags: W
LayerCount: 2
Fore
SplineSet
1015 1080 m 0,0,1
 984 1080 984 1080 963.5 1058.5 c 128,-1,2
 943 1037 943 1037 943 1008 c 0,3,4
 943 977 943 977 964.5 956.5 c 128,-1,5
 986 936 986 936 1015 936 c 0,6,7
 1046 936 1046 936 1066.5 957.5 c 128,-1,8
 1087 979 1087 979 1087 1008 c 0,9,10
 1087 1039 1087 1039 1065.5 1059.5 c 128,-1,11
 1044 1080 1044 1080 1015 1080 c 0,0,1
290 1080 m 0,12,13
 259 1080 259 1080 238.5 1058.5 c 128,-1,14
 218 1037 218 1037 218 1008 c 0,15,16
 218 977 218 977 239.5 956.5 c 128,-1,17
 261 936 261 936 290 936 c 0,18,19
 321 936 321 936 341.5 957.5 c 128,-1,20
 362 979 362 979 362 1008 c 0,21,22
 362 1039 362 1039 340.5 1059.5 c 128,-1,23
 319 1080 319 1080 290 1080 c 0,12,13
1015 1212 m 128,-1,25
 1100 1212 1100 1212 1159.5 1152.5 c 128,-1,26
 1219 1093 1219 1093 1219 1008 c 0,27,28
 1219 905 1219 905 1123 839 c 1,29,30
 1225 784 1225 784 1225 658 c 2,31,-1
 1225 0 l 1,32,-1
 1042 0 l 1,33,-1
 1042 631 l 2,34,35
 1042 740 1042 740 948 740 c 0,36,37
 894 740 894 740 834 658 c 0,38,39
 716 496 716 496 642 338 c 128,-1,40
 568 180 568 180 526 0 c 1,41,-1
 344 0 l 1,42,-1
 344 807 l 2,43,44
 342 804 342 804 290 804 c 0,45,46
 205 804 205 804 145.5 863.5 c 128,-1,47
 86 923 86 923 86 1008 c 128,-1,48
 86 1093 86 1093 145.5 1152.5 c 128,-1,49
 205 1212 205 1212 290 1212 c 0,50,51
 407 1212 407 1212 468.5 1137 c 128,-1,52
 530 1062 530 1062 530 963 c 2,53,-1
 530 454 l 1,54,55
 596 559 596 559 699.5 689 c 128,-1,56
 803 819 803 819 871 864 c 1,57,58
 811 924 811 924 811 1008 c 0,59,60
 811 1093 811 1093 870.5 1152.5 c 128,-1,24
 930 1212 930 1212 1015 1212 c 128,-1,25
EndSplineSet
EndChar

StartChar: uni0E2C
Encoding: 3628 3628 253
Width: 1480
GlyphClass: 2
Flags: W
AnchorPoint: "Anchor-1" 741 1262 basechar 0
LayerCount: 2
Fore
SplineSet
274 1212 m 0,0,1
 390 1212 390 1212 452 1138 c 128,-1,2
 514 1064 514 1064 514 963 c 2,3,-1
 514 372 l 1,4,-1
 708 988 l 1,5,-1
 884 988 l 1,6,-1
 1077 376 l 1,7,-1
 1077 1000 l 1,8,9
 1063 998 1063 998 1055 998 c 0,10,11
 970 998 970 998 910.5 1057.5 c 128,-1,12
 851 1117 851 1117 851 1202 c 128,-1,13
 851 1287 851 1287 910.5 1346.5 c 128,-1,14
 970 1406 970 1406 1055 1406 c 0,15,16
 1133 1406 1133 1406 1187 1358 c 128,-1,17
 1241 1310 1241 1310 1254 1249 c 1,18,-1
 1362 1300 l 1,19,-1
 1431 1156 l 1,20,-1
 1260 1074 l 1,21,-1
 1260 0 l 1,22,-1
 1055 0 l 1,23,-1
 791 826 l 1,24,-1
 521 0 l 1,25,-1
 328 0 l 1,26,-1
 328 807 l 2,27,28
 326 804 326 804 274 804 c 0,29,30
 189 804 189 804 129.5 863.5 c 128,-1,31
 70 923 70 923 70 1008 c 128,-1,32
 70 1093 70 1093 129.5 1152.5 c 128,-1,33
 189 1212 189 1212 274 1212 c 0,0,1
1055 1274 m 0,34,35
 1024 1274 1024 1274 1003.5 1252.5 c 128,-1,36
 983 1231 983 1231 983 1202 c 0,37,38
 983 1171 983 1171 1004.5 1150.5 c 128,-1,39
 1026 1130 1026 1130 1055 1130 c 0,40,41
 1086 1130 1086 1130 1106.5 1151.5 c 128,-1,42
 1127 1173 1127 1173 1127 1202 c 0,43,44
 1127 1233 1127 1233 1105.5 1253.5 c 128,-1,45
 1084 1274 1084 1274 1055 1274 c 0,34,35
274 1080 m 0,46,47
 243 1080 243 1080 222.5 1058.5 c 128,-1,48
 202 1037 202 1037 202 1008 c 0,49,50
 202 977 202 977 223.5 956.5 c 128,-1,51
 245 936 245 936 274 936 c 0,52,53
 305 936 305 936 325.5 957.5 c 128,-1,54
 346 979 346 979 346 1008 c 0,55,56
 346 1039 346 1039 324.5 1059.5 c 128,-1,57
 303 1080 303 1080 274 1080 c 0,46,47
EndSplineSet
EndChar

StartChar: uni0E2D
Encoding: 3629 3629 254
Width: 1220
GlyphClass: 2
Flags: W
LayerCount: 2
Fore
SplineSet
422 581 m 0,0,1
 453 581 453 581 473.5 602.5 c 128,-1,2
 494 624 494 624 494 653 c 0,3,4
 494 684 494 684 472.5 704.5 c 128,-1,5
 451 725 451 725 422 725 c 0,6,7
 391 725 391 725 370.5 703.5 c 128,-1,8
 350 682 350 682 350 653 c 0,9,10
 350 622 350 622 371.5 601.5 c 128,-1,11
 393 581 393 581 422 581 c 0,0,1
626 653 m 128,-1,13
 626 568 626 568 566.5 508.5 c 128,-1,14
 507 449 507 449 422 449 c 0,15,16
 370 449 370 449 369 452 c 2,17,-1
 369 154 l 1,18,-1
 861 154 l 1,19,-1
 861 795 l 2,20,21
 861 930 861 930 777.5 998 c 128,-1,22
 694 1066 694 1066 545 1066 c 0,23,24
 352 1066 352 1066 183 974 c 1,25,-1
 183 1144 l 1,26,27
 387 1222 387 1222 564 1222 c 0,28,29
 676 1222 676 1222 762 1194.5 c 128,-1,30
 848 1167 848 1167 901 1121 c 128,-1,31
 954 1075 954 1075 987.5 1008.5 c 128,-1,32
 1021 942 1021 942 1034 871 c 128,-1,33
 1047 800 1047 800 1047 714 c 2,34,-1
 1047 0 l 1,35,-1
 182 0 l 1,36,-1
 182 608 l 2,37,38
 182 709 182 709 244 783 c 128,-1,39
 306 857 306 857 422 857 c 0,40,41
 507 857 507 857 566.5 797.5 c 128,-1,12
 626 738 626 738 626 653 c 128,-1,13
EndSplineSet
EndChar

StartChar: uni0E2E
Encoding: 3630 3630 255
Width: 1220
GlyphClass: 2
Flags: W
LayerCount: 2
Fore
SplineSet
141 1017 m 0,0,1
 141 1086 141 1086 200 1136.5 c 128,-1,2
 259 1187 259 1187 344.5 1210 c 128,-1,3
 430 1233 430 1233 527 1233 c 0,4,5
 761 1233 761 1233 890 1105 c 1,6,-1
 1017 1240 l 1,7,-1
 1083 1067 l 1,8,-1
 978 972 l 1,9,10
 1017 878 1017 878 1017 756 c 2,11,-1
 1017 0 l 1,12,-1
 149 0 l 1,13,-1
 149 478 l 2,14,15
 149 579 149 579 211 653 c 128,-1,16
 273 727 273 727 389 727 c 0,17,18
 474 727 474 727 533.5 667.5 c 128,-1,19
 593 608 593 608 593 523 c 128,-1,20
 593 438 593 438 533.5 378.5 c 128,-1,21
 474 319 474 319 389 319 c 0,22,23
 338 319 338 319 336 322 c 2,24,-1
 336 154 l 1,25,-1
 838 154 l 1,26,-1
 838 740 l 2,27,28
 838 806 838 806 820 876 c 1,29,30
 688 781 688 781 500 781 c 0,31,32
 330 781 330 781 235.5 854 c 128,-1,33
 141 927 141 927 141 1017 c 0,0,1
493 1092 m 0,34,35
 425 1092 425 1092 369 1072 c 128,-1,36
 313 1052 313 1052 313 1021 c 0,37,38
 313 982 313 982 369.5 955 c 128,-1,39
 426 928 426 928 511 928 c 0,40,41
 585 928 585 928 661.5 950.5 c 128,-1,42
 738 973 738 973 758 1002 c 1,43,44
 664 1092 664 1092 493 1092 c 0,34,35
389 451 m 0,45,46
 420 451 420 451 440.5 472.5 c 128,-1,47
 461 494 461 494 461 523 c 0,48,49
 461 554 461 554 439.5 574.5 c 128,-1,50
 418 595 418 595 389 595 c 0,51,52
 358 595 358 595 337.5 573.5 c 128,-1,53
 317 552 317 552 317 523 c 0,54,55
 317 492 317 492 338.5 471.5 c 128,-1,56
 360 451 360 451 389 451 c 0,45,46
EndSplineSet
EndChar

StartChar: uni0E2F
Encoding: 3631 3631 256
Width: 1200
GlyphClass: 2
Flags: W
LayerCount: 2
Fore
SplineSet
305 1202 m 128,-1,1
 390 1202 390 1202 449.5 1142.5 c 128,-1,2
 509 1083 509 1083 509 998 c 0,3,4
 509 938 509 938 477 889 c 1,5,6
 692 934 692 934 816 1202 c 1,7,-1
 993 1026 l 1,8,-1
 993 0 l 1,9,-1
 810 0 l 1,10,-1
 810 909 l 1,11,12
 658 736 658 736 396 736 c 0,13,14
 321 736 321 736 261.5 761.5 c 128,-1,15
 202 787 202 787 168.5 828 c 128,-1,16
 135 869 135 869 118 912.5 c 128,-1,17
 101 956 101 956 101 998 c 0,18,19
 101 1083 101 1083 160.5 1142.5 c 128,-1,0
 220 1202 220 1202 305 1202 c 128,-1,1
305 1070 m 0,20,21
 274 1070 274 1070 253.5 1048.5 c 128,-1,22
 233 1027 233 1027 233 998 c 0,23,24
 233 967 233 967 254.5 946.5 c 128,-1,25
 276 926 276 926 305 926 c 0,26,27
 336 926 336 926 356.5 947.5 c 128,-1,28
 377 969 377 969 377 998 c 0,29,30
 377 1029 377 1029 355.5 1049.5 c 128,-1,31
 334 1070 334 1070 305 1070 c 0,20,21
EndSplineSet
EndChar

StartChar: uni0E30
Encoding: 3632 3632 257
Width: 1040
GlyphClass: 2
Flags: W
LayerCount: 2
Fore
SplineSet
348 946 m 128,-1,1
 348 975 348 975 328 997 c 128,-1,2
 308 1019 308 1019 273 1019 c 0,3,4
 240 1019 240 1019 218 997.5 c 128,-1,5
 196 976 196 976 196 946 c 0,6,7
 196 913 196 913 219 894.5 c 128,-1,8
 242 876 242 876 273 876 c 0,9,10
 309 876 309 876 328.5 896.5 c 128,-1,0
 348 917 348 917 348 946 c 128,-1,1
888 894 m 1,11,12
 867 871 867 871 823.5 838 c 128,-1,13
 780 805 780 805 716 767.5 c 128,-1,14
 652 730 652 730 567.5 704.5 c 128,-1,15
 483 679 483 679 403 679 c 0,16,17
 270 679 270 679 203 728 c 0,18,19
 161 760 161 760 138 784 c 128,-1,20
 115 808 115 808 97.5 851 c 128,-1,21
 80 894 80 894 80 953 c 0,22,23
 80 1021 80 1021 143 1076.5 c 128,-1,24
 206 1132 206 1132 280 1132 c 0,25,26
 358 1132 358 1132 413 1075.5 c 128,-1,27
 468 1019 468 1019 468 941 c 0,28,29
 468 905 468 905 449.5 870.5 c 128,-1,30
 431 836 431 836 403 817 c 1,31,32
 497 825 497 825 625 904.5 c 128,-1,33
 753 984 753 984 830 1098 c 1,34,-1
 888 894 l 1,11,12
348 279 m 128,-1,36
 348 308 348 308 327.5 330 c 128,-1,37
 307 352 307 352 271 352 c 0,38,39
 238 352 238 352 216.5 330.5 c 128,-1,40
 195 309 195 309 195 278 c 0,41,42
 195 246 195 246 218 227.5 c 128,-1,43
 241 209 241 209 272 209 c 0,44,45
 308 209 308 209 328 229.5 c 128,-1,35
 348 250 348 250 348 279 c 128,-1,36
278 465 m 0,46,47
 353 465 353 465 410 409.5 c 128,-1,48
 467 354 467 354 467 274 c 0,49,50
 467 238 467 238 448.5 203.5 c 128,-1,51
 430 169 430 169 402 150 c 1,52,53
 661 191 661 191 829 431 c 1,54,-1
 887 227 l 1,55,56
 825 158 825 158 684.5 85 c 128,-1,57
 544 12 544 12 403 12 c 0,58,59
 267 12 267 12 202 62 c 0,60,61
 173 83 173 83 157 97 c 128,-1,62
 141 111 141 111 120 138 c 128,-1,63
 99 165 99 165 89 202 c 128,-1,64
 79 239 79 239 79 287 c 0,65,66
 79 357 79 357 139.5 411 c 128,-1,67
 200 465 200 465 278 465 c 0,46,47
EndSplineSet
EndChar

StartChar: uni0E31
Encoding: 3633 3633 258
Width: 0
GlyphClass: 4
Flags: W
AnchorPoint: "Anchor-2" -322 1958 basemark 0
AnchorPoint: "Anchor-1" -252 1340 mark 0
LayerCount: 2
Fore
SplineSet
-704 1612 m 128,-1,1
 -704 1584 -704 1584 -684 1564 c 128,-1,2
 -664 1544 -664 1544 -634 1544 c 0,3,4
 -603 1544 -603 1544 -581.5 1562.5 c 128,-1,5
 -560 1581 -560 1581 -560 1609 c 0,6,7
 -560 1638 -560 1638 -581 1658 c 128,-1,8
 -602 1678 -602 1678 -630 1678 c 0,9,10
 -661 1678 -661 1678 -682.5 1659 c 128,-1,0
 -704 1640 -704 1640 -704 1612 c 128,-1,1
-502 1492 m 1,11,12
 -220 1492 -220 1492 12 1794 c 1,13,-1
 66 1592 l 1,14,15
 -179 1362 -179 1362 -492 1362 c 0,16,17
 -633 1362 -633 1362 -721.5 1423.5 c 128,-1,18
 -810 1485 -810 1485 -810 1603 c 0,19,20
 -810 1686 -810 1686 -753.5 1734 c 128,-1,21
 -697 1782 -697 1782 -624 1782 c 128,-1,22
 -551 1782 -551 1782 -501.5 1732.5 c 128,-1,23
 -452 1683 -452 1683 -452 1606 c 0,24,25
 -452 1526 -452 1526 -502 1492 c 1,11,12
EndSplineSet
EndChar

StartChar: uni0E32
Encoding: 3634 3634 259
Width: 1130
GlyphClass: 2
Flags: W
LayerCount: 2
Fore
SplineSet
442 1066 m 0,0,1
 248 1066 248 1066 80 974 c 1,2,-1
 80 1144 l 1,3,4
 284 1222 284 1222 461 1222 c 0,5,6
 706 1222 706 1222 825 1094.5 c 128,-1,7
 944 967 944 967 944 714 c 2,8,-1
 944 0 l 1,9,-1
 758 0 l 1,10,-1
 758 796 l 2,11,12
 758 930 758 930 674 998 c 128,-1,13
 590 1066 590 1066 442 1066 c 0,0,1
EndSplineSet
EndChar

StartChar: uni0E34
Encoding: 3636 3636 261
Width: 0
GlyphClass: 4
Flags: W
AnchorPoint: "Anchor-2" -275 1958 basemark 0
AnchorPoint: "Anchor-1" -177 1340 mark 0
LayerCount: 2
Fore
SplineSet
-333 1509 m 1,0,1
 -380 1577 -380 1577 -488.5 1642 c 128,-1,2
 -597 1707 -597 1707 -702 1707 c 0,3,4
 -782 1707 -782 1707 -843.5 1669 c 128,-1,5
 -905 1631 -905 1631 -945 1572 c 1,6,-1
 -675 1572 l 2,7,8
 -594 1572 -594 1572 -503 1552 c 2,9,-1
 -428 1534 l 2,10,11
 -397 1527 -397 1527 -373.5 1520.5 c 128,-1,12
 -350 1514 -350 1514 -342 1511.5 c 128,-1,13
 -334 1509 -334 1509 -333 1509 c 1,0,1
-1122 1593 m 1,14,15
 -1065 1700 -1065 1700 -941 1766.5 c 128,-1,16
 -817 1833 -817 1833 -693 1833 c 0,17,18
 -610 1833 -610 1833 -530.5 1807.5 c 128,-1,19
 -451 1782 -451 1782 -385.5 1738.5 c 128,-1,20
 -320 1695 -320 1695 -268.5 1646.5 c 128,-1,21
 -217 1598 -217 1598 -174 1542 c 1,22,-1
 -210 1344 l 1,23,24
 -241 1351 -241 1351 -330 1378.5 c 128,-1,25
 -419 1406 -419 1406 -506 1423 c 128,-1,26
 -593 1440 -593 1440 -684 1440 c 0,27,28
 -734 1440 -734 1440 -813 1440.5 c 128,-1,29
 -892 1441 -892 1441 -920 1441 c 0,30,31
 -1072 1441 -1072 1441 -1122 1432 c 1,32,-1
 -1122 1593 l 1,14,15
EndSplineSet
EndChar

StartChar: uni0E35
Encoding: 3637 3637 262
Width: 0
GlyphClass: 4
Flags: W
AnchorPoint: "Anchor-2" -316 1958 basemark 0
AnchorPoint: "Anchor-1" -189 1340 mark 0
LayerCount: 2
Fore
SplineSet
-345 1503 m 1,0,1
 -392 1571 -392 1571 -500.5 1636 c 128,-1,2
 -609 1701 -609 1701 -714 1701 c 0,3,4
 -794 1701 -794 1701 -855.5 1663 c 128,-1,5
 -917 1625 -917 1625 -957 1566 c 1,6,-1
 -687 1566 l 2,7,8
 -606 1566 -606 1566 -515 1546 c 2,9,-1
 -440 1528 l 2,10,11
 -409 1521 -409 1521 -385.5 1514.5 c 128,-1,12
 -362 1508 -362 1508 -354 1505.5 c 128,-1,13
 -346 1503 -346 1503 -345 1503 c 1,0,1
-1134 1587 m 1,14,15
 -1077 1694 -1077 1694 -953 1760.5 c 128,-1,16
 -829 1827 -829 1827 -705 1827 c 0,17,18
 -554 1827 -554 1827 -402 1733 c 1,19,-1
 -402 1857 l 1,20,-1
 -231 1857 l 1,21,-1
 -231 1590 l 1,22,23
 -207 1563 -207 1563 -186 1536 c 1,24,-1
 -222 1338 l 1,25,26
 -253 1345 -253 1345 -342 1372.5 c 128,-1,27
 -431 1400 -431 1400 -518 1417 c 128,-1,28
 -605 1434 -605 1434 -696 1434 c 2,29,-1
 -888 1434 l 2,30,31
 -1072 1434 -1072 1434 -1134 1422 c 1,32,-1
 -1134 1587 l 1,14,15
EndSplineSet
EndChar

StartChar: uni0E36
Encoding: 3638 3638 263
Width: 0
GlyphClass: 4
Flags: W
AnchorPoint: "Anchor-2" -272 1958 basemark 0
AnchorPoint: "Anchor-1" -189 1340 mark 0
LayerCount: 2
Fore
SplineSet
-345 1497 m 1,0,1
 -392 1565 -392 1565 -500.5 1630 c 128,-1,2
 -609 1695 -609 1695 -714 1695 c 0,3,4
 -794 1695 -794 1695 -855.5 1657 c 128,-1,5
 -917 1619 -917 1619 -957 1560 c 1,6,-1
 -687 1560 l 2,7,8
 -606 1560 -606 1560 -515 1540 c 2,9,-1
 -440 1522 l 2,10,11
 -409 1515 -409 1515 -385.5 1508.5 c 128,-1,12
 -362 1502 -362 1502 -354 1499.5 c 128,-1,13
 -346 1497 -346 1497 -345 1497 c 1,0,1
-88 1724 m 0,14,15
 -88 1660 -88 1660 -119.5 1615 c 128,-1,16
 -151 1570 -151 1570 -202 1552 c 1,17,-1
 -202 1551 l 2,18,19
 -201 1550 -201 1550 -199.5 1548 c 128,-1,20
 -198 1546 -198 1546 -196 1543.5 c 128,-1,21
 -194 1541 -194 1541 -191.5 1537.5 c 128,-1,22
 -189 1534 -189 1534 -186 1530 c 2,23,-1
 -222 1332 l 1,24,25
 -253 1339 -253 1339 -342 1366.5 c 128,-1,26
 -431 1394 -431 1394 -518 1411 c 128,-1,27
 -605 1428 -605 1428 -696 1428 c 0,28,29
 -746 1428 -746 1428 -825 1428.5 c 128,-1,30
 -904 1429 -904 1429 -932 1429 c 0,31,32
 -1084 1429 -1084 1429 -1134 1420 c 1,33,-1
 -1134 1581 l 1,34,35
 -1077 1688 -1077 1688 -953 1754.5 c 128,-1,36
 -829 1821 -829 1821 -705 1821 c 0,37,38
 -579 1821 -579 1821 -443 1750 c 1,39,40
 -440 1768 -440 1768 -432.5 1787.5 c 128,-1,41
 -425 1807 -425 1807 -407.5 1836.5 c 128,-1,42
 -390 1866 -390 1866 -355 1884.5 c 128,-1,43
 -320 1903 -320 1903 -272 1903 c 0,44,45
 -189 1903 -189 1903 -138.5 1851.5 c 128,-1,46
 -88 1800 -88 1800 -88 1724 c 0,14,15
-200 1720 m 128,-1,48
 -200 1749 -200 1749 -220.5 1769.5 c 128,-1,49
 -241 1790 -241 1790 -271 1790 c 0,50,51
 -302 1790 -302 1790 -323 1769.5 c 128,-1,52
 -344 1749 -344 1749 -344 1720 c 128,-1,53
 -344 1691 -344 1691 -323 1671 c 128,-1,54
 -302 1651 -302 1651 -271 1651 c 0,55,56
 -241 1651 -241 1651 -220.5 1671 c 128,-1,47
 -200 1691 -200 1691 -200 1720 c 128,-1,48
EndSplineSet
EndChar

StartChar: uni0E37
Encoding: 3639 3639 264
Width: 0
GlyphClass: 4
Flags: W
AnchorPoint: "Anchor-2" -425 1958 basemark 0
AnchorPoint: "Anchor-1" -189 1340 mark 0
LayerCount: 2
Fore
SplineSet
-345 1493 m 1,0,1
 -392 1563 -392 1563 -500.5 1628 c 128,-1,2
 -609 1693 -609 1693 -714 1693 c 0,3,4
 -794 1693 -794 1693 -855.5 1654.5 c 128,-1,5
 -917 1616 -917 1616 -957 1556 c 1,6,-1
 -687 1556 l 2,7,8
 -606 1556 -606 1556 -515 1536 c 2,9,-1
 -440 1518 l 2,10,11
 -409 1511 -409 1511 -385.5 1504.5 c 128,-1,12
 -362 1498 -362 1498 -354 1495.5 c 128,-1,13
 -346 1493 -346 1493 -345 1493 c 1,0,1
-1134 1579 m 1,14,15
 -1077 1686 -1077 1686 -953 1752.5 c 128,-1,16
 -829 1819 -829 1819 -705 1819 c 0,17,18
 -665 1819 -665 1819 -615 1809 c 1,19,-1
 -615 1888 l 1,20,-1
 -459 1888 l 1,21,-1
 -459 1759 l 1,22,23
 -455 1757 -455 1757 -438.5 1746.5 c 128,-1,24
 -422 1736 -422 1736 -407 1726.5 c 128,-1,25
 -392 1717 -392 1717 -391 1717 c 2,26,-1
 -391 1887 l 1,27,-1
 -235 1887 l 1,28,-1
 -235 1585 l 1,29,30
 -205 1552 -205 1552 -186 1528 c 1,31,-1
 -222 1330 l 1,32,33
 -253 1337 -253 1337 -342 1364.5 c 128,-1,34
 -431 1392 -431 1392 -518 1409 c 128,-1,35
 -605 1426 -605 1426 -696 1426 c 0,36,37
 -746 1426 -746 1426 -825 1426.5 c 128,-1,38
 -904 1427 -904 1427 -932 1427 c 0,39,40
 -1084 1427 -1084 1427 -1134 1418 c 1,41,-1
 -1134 1579 l 1,14,15
EndSplineSet
EndChar

StartChar: uni0E38
Encoding: 3640 3640 265
Width: 0
GlyphClass: 4
Flags: W
AnchorPoint: "Anchor-0" -191 -120 mark 0
LayerCount: 2
Fore
SplineSet
-386 -120 m 0,0,1
 -351 -120 -351 -120 -319 -129 c 128,-1,2
 -287 -138 -287 -138 -257 -159 c 128,-1,3
 -227 -180 -227 -180 -209 -221 c 128,-1,4
 -191 -262 -191 -262 -191 -319 c 2,5,-1
 -191 -523 l 1,6,-1
 -346 -523 l 1,7,-1
 -346 -416 l 1,8,9
 -360 -424 -360 -424 -394 -424 c 0,10,11
 -451 -424 -451 -424 -494.5 -381 c 128,-1,12
 -538 -338 -538 -338 -538 -276 c 0,13,14
 -538 -210 -538 -210 -493.5 -165 c 128,-1,15
 -449 -120 -449 -120 -386 -120 c 0,0,1
-338 -278 m 0,16,17
 -338 -257 -338 -257 -353.5 -241.5 c 128,-1,18
 -369 -226 -369 -226 -392 -226 c 0,19,20
 -416 -226 -416 -226 -433 -241 c 128,-1,21
 -450 -256 -450 -256 -450 -278 c 128,-1,22
 -450 -300 -450 -300 -433 -316 c 128,-1,23
 -416 -332 -416 -332 -392 -332 c 0,24,25
 -369 -332 -369 -332 -353.5 -316 c 128,-1,26
 -338 -300 -338 -300 -338 -278 c 0,16,17
EndSplineSet
Substitution2: "Single Substitution lookup 16 subtable" uni0E4D
Substitution2: "Single Substitution lookup 15 subtable" uni0E4C.low
Substitution2: "Single Substitution lookup 14 subtable" uni0E4B.low
Substitution2: "Single Substitution lookup 13 subtable" uni0E4A.low
Substitution2: "Single Substitution lookup 12 subtable" uni0E49.low
Substitution2: "Single Substitution lookup 11 subtable" uni0E48.low
EndChar

StartChar: uni0E39
Encoding: 3641 3641 266
Width: 0
GlyphClass: 4
Flags: W
AnchorPoint: "Anchor-0" -191 -120 mark 0
LayerCount: 2
Fore
SplineSet
-711 -120 m 0,0,1
 -676 -120 -676 -120 -644 -129 c 128,-1,2
 -612 -138 -612 -138 -582 -159 c 128,-1,3
 -552 -180 -552 -180 -534 -221 c 128,-1,4
 -516 -262 -516 -262 -516 -319 c 2,5,-1
 -516 -422 l 1,6,-1
 -375 -422 l 1,7,-1
 -375 -126 l 1,8,-1
 -220 -126 l 1,9,-1
 -220 -524 l 1,10,-1
 -670 -524 l 1,11,-1
 -670 -416 l 1,12,13
 -684 -424 -684 -424 -719 -424 c 0,14,15
 -776 -424 -776 -424 -819.5 -381 c 128,-1,16
 -863 -338 -863 -338 -863 -276 c 0,17,18
 -863 -210 -863 -210 -818.5 -165 c 128,-1,19
 -774 -120 -774 -120 -711 -120 c 0,0,1
-662 -278 m 0,20,21
 -662 -257 -662 -257 -677.5 -241.5 c 128,-1,22
 -693 -226 -693 -226 -717 -226 c 128,-1,23
 -741 -226 -741 -226 -757.5 -241 c 128,-1,24
 -774 -256 -774 -256 -774 -278 c 128,-1,25
 -774 -300 -774 -300 -757.5 -316 c 128,-1,26
 -741 -332 -741 -332 -717 -332 c 128,-1,27
 -693 -332 -693 -332 -677.5 -316 c 128,-1,28
 -662 -300 -662 -300 -662 -278 c 0,20,21
EndSplineSet
Substitution2: "Single Substitution lookup 22 subtable" uni0E4D
Substitution2: "Single Substitution lookup 21 subtable" uni0E4C.low
Substitution2: "Single Substitution lookup 20 subtable" uni0E4B.low
Substitution2: "Single Substitution lookup 19 subtable" uni0E4A.low
Substitution2: "Single Substitution lookup 18 subtable" uni0E49.low
Substitution2: "Single Substitution lookup 17 subtable" uni0E48.low
EndChar

StartChar: uni0E3A
Encoding: 3642 3642 267
Width: 0
GlyphClass: 4
Flags: W
AnchorPoint: "Anchor-0" -191 -120 mark 0
LayerCount: 2
Fore
SplineSet
-436 -246 m 128,-1,1
 -436 -191 -436 -191 -397 -151.5 c 128,-1,2
 -358 -112 -358 -112 -302 -112 c 128,-1,3
 -246 -112 -246 -112 -206 -153 c 128,-1,4
 -166 -194 -166 -194 -166 -246 c 0,5,6
 -166 -302 -166 -302 -206.5 -342 c 128,-1,7
 -247 -382 -247 -382 -302 -382 c 0,8,9
 -356 -382 -356 -382 -396 -341.5 c 128,-1,0
 -436 -301 -436 -301 -436 -246 c 128,-1,1
EndSplineSet
Substitution2: "Single Substitution lookup 29 subtable" uni0E4D
Substitution2: "Single Substitution lookup 28 subtable" uni0E4C.low
Substitution2: "Single Substitution lookup 27 subtable" uni0E4B.low
Substitution2: "Single Substitution lookup 26 subtable" uni0E4A.low
Substitution2: "Single Substitution lookup 25 subtable" uni0E49.low
Substitution2: "Single Substitution lookup 24 subtable" uni0E48.low
Substitution2: "Single Substitution lookup 23 subtable" uni0E47
EndChar

StartChar: uni0E3F
Encoding: 3647 3647 269
Width: 1250
GlyphClass: 2
Flags: W
LayerCount: 2
Fore
SplineSet
653 1489 m 1,0,1
 1092 1489 1092 1489 1092 1144 c 0,2,3
 1092 1069 1092 1069 1050 988.5 c 128,-1,4
 1008 908 1008 908 940 865 c 2,5,-1
 883 827 l 1,6,7
 960 805 960 805 1016 765 c 128,-1,8
 1072 725 1072 725 1102.5 674 c 128,-1,9
 1133 623 1133 623 1147 569.5 c 128,-1,10
 1161 516 1161 516 1161 457 c 0,11,12
 1161 318 1161 318 1089.5 212.5 c 128,-1,13
 1018 107 1018 107 903.5 53.5 c 128,-1,14
 789 0 789 0 653 0 c 1,15,-1
 653 -133 l 1,16,-1
 541 -133 l 1,17,-1
 541 0 l 1,18,-1
 152 0 l 1,19,-1
 152 1489 l 1,20,-1
 541 1489 l 1,21,-1
 541 1595 l 1,22,-1
 653 1595 l 1,23,-1
 653 1489 l 1,0,1
541 885 m 1,24,-1
 541 1321 l 1,25,-1
 348 1321 l 1,26,-1
 348 885 l 1,27,-1
 541 885 l 1,24,-1
653 887 m 1,28,29
 738 887 738 887 814 941 c 0,30,31
 885 994 885 994 885 1124 c 0,32,33
 885 1319 885 1319 653 1319 c 1,34,-1
 653 887 l 1,28,29
541 170 m 1,35,-1
 541 719 l 1,36,-1
 348 719 l 1,37,-1
 348 170 l 1,38,-1
 541 170 l 1,35,-1
653 174 m 1,39,40
 691 174 691 174 729.5 181 c 128,-1,41
 768 188 768 188 809.5 207.5 c 128,-1,42
 851 227 851 227 882 257 c 128,-1,43
 913 287 913 287 933.5 336.5 c 128,-1,44
 954 386 954 386 954 449 c 0,45,46
 954 552 954 552 926 599.5 c 128,-1,47
 898 647 898 647 827 683 c 0,48,49
 760 717 760 717 653 717 c 1,50,-1
 653 174 l 1,39,40
EndSplineSet
EndChar

StartChar: uni0E40
Encoding: 3648 3648 270
Width: 740
GlyphClass: 2
Flags: W
LayerCount: 2
Fore
SplineSet
625 194 m 128,-1,1
 625 109 625 109 565.5 49.5 c 128,-1,2
 506 -10 506 -10 421 -10 c 128,-1,3
 336 -10 336 -10 276.5 49.5 c 128,-1,4
 217 109 217 109 217 194 c 2,5,-1
 217 1202 l 1,6,-1
 401 1202 l 1,7,-1
 401 397 l 1,8,9
 407 398 407 398 421 398 c 0,10,11
 506 398 506 398 565.5 338.5 c 128,-1,0
 625 279 625 279 625 194 c 128,-1,1
421 122 m 0,12,13
 450 122 450 122 471.5 142.5 c 128,-1,14
 493 163 493 163 493 194 c 0,15,16
 493 223 493 223 472.5 244.5 c 128,-1,17
 452 266 452 266 421 266 c 0,18,19
 392 266 392 266 370.5 245.5 c 128,-1,20
 349 225 349 225 349 194 c 0,21,22
 349 165 349 165 369.5 143.5 c 128,-1,23
 390 122 390 122 421 122 c 0,12,13
EndSplineSet
EndChar

StartChar: uni0E41
Encoding: 3649 3649 271
Width: 1290
GlyphClass: 2
Flags: W
LayerCount: 2
Fore
SplineSet
1175 194 m 128,-1,1
 1175 109 1175 109 1115.5 49.5 c 128,-1,2
 1056 -10 1056 -10 971 -10 c 128,-1,3
 886 -10 886 -10 826.5 49.5 c 128,-1,4
 767 109 767 109 767 194 c 2,5,-1
 767 1202 l 1,6,-1
 951 1202 l 1,7,-1
 951 397 l 1,8,9
 957 398 957 398 971 398 c 0,10,11
 1056 398 1056 398 1115.5 338.5 c 128,-1,0
 1175 279 1175 279 1175 194 c 128,-1,1
971 122 m 0,12,13
 1000 122 1000 122 1021.5 142.5 c 128,-1,14
 1043 163 1043 163 1043 194 c 0,15,16
 1043 223 1043 223 1022.5 244.5 c 128,-1,17
 1002 266 1002 266 971 266 c 0,18,19
 942 266 942 266 920.5 245.5 c 128,-1,20
 899 225 899 225 899 194 c 0,21,22
 899 165 899 165 919.5 143.5 c 128,-1,23
 940 122 940 122 971 122 c 0,12,13
615 194 m 128,-1,25
 615 109 615 109 555.5 49.5 c 128,-1,26
 496 -10 496 -10 411 -10 c 128,-1,27
 326 -10 326 -10 266.5 49.5 c 128,-1,28
 207 109 207 109 207 194 c 2,29,-1
 207 1202 l 1,30,-1
 391 1202 l 1,31,-1
 391 397 l 1,32,33
 397 398 397 398 411 398 c 0,34,35
 496 398 496 398 555.5 338.5 c 128,-1,24
 615 279 615 279 615 194 c 128,-1,25
411 122 m 0,36,37
 440 122 440 122 461.5 142.5 c 128,-1,38
 483 163 483 163 483 194 c 0,39,40
 483 223 483 223 462.5 244.5 c 128,-1,41
 442 266 442 266 411 266 c 0,42,43
 382 266 382 266 360.5 245.5 c 128,-1,44
 339 225 339 225 339 194 c 0,45,46
 339 165 339 165 359.5 143.5 c 128,-1,47
 380 122 380 122 411 122 c 0,36,37
EndSplineSet
EndChar

StartChar: uni0E42
Encoding: 3650 3650 272
Width: 930
GlyphClass: 2
Flags: W
LayerCount: 2
Fore
SplineSet
-52 1764 m 1,0,1
 167 1940 167 1940 476 1940 c 0,2,3
 568 1940 568 1940 646.5 1918 c 128,-1,4
 725 1896 725 1896 776.5 1860 c 128,-1,5
 828 1824 828 1824 860 1788.5 c 128,-1,6
 892 1753 892 1753 911 1717 c 1,7,-1
 759 1605 l 1,8,9
 756 1616 756 1616 751.5 1628 c 128,-1,10
 747 1640 747 1640 725.5 1670.5 c 128,-1,11
 704 1701 704 1701 675 1722.5 c 128,-1,12
 646 1744 646 1744 590.5 1762 c 128,-1,13
 535 1780 535 1780 465 1780 c 0,14,15
 364 1780 364 1780 269 1745.5 c 128,-1,16
 174 1711 174 1711 105 1658 c 1,17,-1
 336 1576 l 2,18,19
 600 1482 600 1482 600 1306 c 2,20,-1
 600 397 l 1,21,22
 607 398 607 398 618 398 c 0,23,24
 703 398 703 398 762.5 338.5 c 128,-1,25
 822 279 822 279 822 194 c 128,-1,26
 822 109 822 109 762.5 49.5 c 128,-1,27
 703 -10 703 -10 618 -10 c 128,-1,28
 533 -10 533 -10 473.5 49.5 c 128,-1,29
 414 109 414 109 414 194 c 2,30,-1
 414 1264 l 2,31,32
 414 1374 414 1374 266 1420 c 2,33,-1
 -52 1520 l 1,34,-1
 -52 1764 l 1,0,1
617 266 m 0,35,36
 586 266 586 266 565.5 244.5 c 128,-1,37
 545 223 545 223 545 194 c 0,38,39
 545 163 545 163 566.5 142.5 c 128,-1,40
 588 122 588 122 617 122 c 0,41,42
 648 122 648 122 668.5 143.5 c 128,-1,43
 689 165 689 165 689 194 c 0,44,45
 689 225 689 225 667.5 245.5 c 128,-1,46
 646 266 646 266 617 266 c 0,35,36
EndSplineSet
EndChar

StartChar: uni0E43
Encoding: 3651 3651 273
Width: 830
GlyphClass: 2
Flags: W
LayerCount: 2
Fore
SplineSet
326 1910 m 0,0,1
 411 1910 411 1910 479 1880.5 c 128,-1,2
 547 1851 547 1851 586.5 1804 c 128,-1,3
 626 1757 626 1757 646 1705 c 128,-1,4
 666 1653 666 1653 666 1602 c 0,5,6
 666 1513 666 1513 603 1406 c 2,7,-1
 551 1313 l 2,8,9
 488 1199 488 1199 488 1092 c 2,10,-1
 488 397 l 1,11,12
 495 398 495 398 508 398 c 0,13,14
 593 398 593 398 652.5 338.5 c 128,-1,15
 712 279 712 279 712 194 c 128,-1,16
 712 109 712 109 652.5 49.5 c 128,-1,17
 593 -10 593 -10 508 -10 c 128,-1,18
 423 -10 423 -10 363.5 49.5 c 128,-1,19
 304 109 304 109 304 194 c 2,20,-1
 304 1142 l 2,21,22
 304 1255 304 1255 368 1349 c 2,23,-1
 421 1425 l 2,24,25
 484 1514 484 1514 484 1595 c 0,26,27
 484 1671 484 1671 441 1723.5 c 128,-1,28
 398 1776 398 1776 331 1776 c 1,29,30
 423 1717 423 1717 423 1605 c 0,31,32
 423 1510 423 1510 355.5 1436 c 128,-1,33
 288 1362 288 1362 183 1362 c 0,34,35
 82 1362 82 1362 7.5 1437.5 c 128,-1,36
 -67 1513 -67 1513 -67 1602 c 0,37,38
 -67 1696 -67 1696 -12 1767.5 c 128,-1,39
 43 1839 43 1839 131.5 1874.5 c 128,-1,40
 220 1910 220 1910 326 1910 c 0,0,1
505 266 m 0,41,42
 474 266 474 266 453.5 244.5 c 128,-1,43
 433 223 433 223 433 194 c 0,44,45
 433 163 433 163 454.5 142.5 c 128,-1,46
 476 122 476 122 505 122 c 0,47,48
 536 122 536 122 556.5 143.5 c 128,-1,49
 577 165 577 165 577 194 c 0,50,51
 577 225 577 225 555.5 245.5 c 128,-1,52
 534 266 534 266 505 266 c 0,41,42
183 1698 m 0,53,54
 142 1698 142 1698 114.5 1670 c 128,-1,55
 87 1642 87 1642 87 1602 c 0,56,57
 87 1561 87 1561 115 1533.5 c 128,-1,58
 143 1506 143 1506 183 1506 c 0,59,60
 224 1506 224 1506 251.5 1534 c 128,-1,61
 279 1562 279 1562 279 1602 c 0,62,63
 279 1643 279 1643 251 1670.5 c 128,-1,64
 223 1698 223 1698 183 1698 c 0,53,54
EndSplineSet
EndChar

StartChar: uni0E44
Encoding: 3652 3652 274
Width: 910
GlyphClass: 2
Flags: W
LayerCount: 2
Fore
SplineSet
599 -10 m 128,-1,1
 514 -10 514 -10 454.5 49.5 c 128,-1,2
 395 109 395 109 395 194 c 2,3,-1
 395 1654 l 1,4,5
 379 1652 379 1652 365.5 1642.5 c 128,-1,6
 352 1633 352 1633 332.5 1604.5 c 128,-1,7
 313 1576 313 1576 291.5 1513.5 c 128,-1,8
 270 1451 270 1451 246 1356 c 1,9,-1
 138 1356 l 1,10,11
 115 1470 115 1470 33.5 1627 c 128,-1,12
 -48 1784 -48 1784 -120 1854 c 1,13,-1
 -74 1996 l 1,14,15
 3 1926 3 1926 83 1813.5 c 128,-1,16
 163 1701 163 1701 192 1606 c 1,17,18
 231 1731 231 1731 293 1818 c 128,-1,19
 355 1905 355 1905 420 1905 c 2,20,-1
 579 1905 l 1,21,-1
 579 397 l 1,22,23
 586 398 586 398 599 398 c 0,24,25
 684 398 684 398 743.5 338.5 c 128,-1,26
 803 279 803 279 803 194 c 128,-1,27
 803 109 803 109 743.5 49.5 c 128,-1,0
 684 -10 684 -10 599 -10 c 128,-1,1
598 266 m 0,28,29
 567 266 567 266 546.5 244.5 c 128,-1,30
 526 223 526 223 526 194 c 0,31,32
 526 163 526 163 547.5 142.5 c 128,-1,33
 569 122 569 122 598 122 c 0,34,35
 629 122 629 122 649.5 143.5 c 128,-1,36
 670 165 670 165 670 194 c 0,37,38
 670 225 670 225 648.5 245.5 c 128,-1,39
 627 266 627 266 598 266 c 0,28,29
EndSplineSet
EndChar

StartChar: uni0E45
Encoding: 3653 3653 275
Width: 970
GlyphClass: 2
Flags: W
LayerCount: 2
Fore
SplineSet
272 1066 m 0,0,1
 78 1066 78 1066 -90 974 c 1,2,-1
 -90 1144 l 1,3,4
 114 1222 114 1222 291 1222 c 0,5,6
 536 1222 536 1222 655 1094.5 c 128,-1,7
 774 967 774 967 774 714 c 2,8,-1
 774 -410 l 1,9,-1
 588 -410 l 1,10,-1
 588 796 l 2,11,12
 588 930 588 930 504 998 c 128,-1,13
 420 1066 420 1066 272 1066 c 0,0,1
EndSplineSet
EndChar

StartChar: uni0E46
Encoding: 3654 3654 276
Width: 1200
GlyphClass: 2
Flags: W
LayerCount: 2
Fore
SplineSet
322 974 m 0,0,1
 381 974 381 974 423 956 c 128,-1,2
 465 938 465 938 485.5 907.5 c 128,-1,3
 506 877 506 877 514.5 847 c 128,-1,4
 523 817 523 817 523 784 c 0,5,6
 523 696 523 696 465.5 641 c 128,-1,7
 408 586 408 586 323 586 c 0,8,9
 230 586 230 586 167 650 c 128,-1,10
 104 714 104 714 104 825 c 0,11,12
 104 872 104 872 110.5 913 c 128,-1,13
 117 954 117 954 135 999 c 128,-1,14
 153 1044 153 1044 182.5 1082 c 128,-1,15
 212 1120 212 1120 261.5 1157.5 c 128,-1,16
 311 1195 311 1195 376 1224 c 1,17,18
 376 1220 376 1220 531 1116 c 1,19,-1
 688 1224 l 1,20,21
 786 1208 786 1208 871 1123 c 0,22,23
 955 1039 955 1039 955 863 c 2,24,-1
 955 -408 l 1,25,-1
 772 -408 l 1,26,-1
 772 847 l 2,27,28
 772 1025 772 1025 688 1044 c 1,29,-1
 530 946 l 1,30,-1
 363 1057 l 1,31,32
 334 1044 334 1044 315 1027.5 c 128,-1,33
 296 1011 296 1011 290 999 c 128,-1,34
 284 987 284 987 277 968 c 1,35,36
 288 974 288 974 322 974 c 0,0,1
240 784 m 0,37,38
 240 751 240 751 263.5 729 c 128,-1,39
 287 707 287 707 319 707 c 0,40,41
 354 707 354 707 377.5 728.5 c 128,-1,42
 401 750 401 750 401 781 c 0,43,44
 401 815 401 815 378 837.5 c 128,-1,45
 355 860 355 860 323 860 c 0,46,47
 288 860 288 860 264 838 c 128,-1,48
 240 816 240 816 240 784 c 0,37,38
EndSplineSet
EndChar

StartChar: uni0E47
Encoding: 3655 3655 277
Width: 0
GlyphClass: 4
Flags: W
AnchorPoint: "Anchor-1" -226 1352 mark 0
LayerCount: 2
Fore
SplineSet
-447 1614 m 0,0,1
 -472 1614 -472 1614 -487.5 1597.5 c 128,-1,2
 -503 1581 -503 1581 -503 1558 c 0,3,4
 -503 1533 -503 1533 -486.5 1517.5 c 128,-1,5
 -470 1502 -470 1502 -447 1502 c 0,6,7
 -422 1502 -422 1502 -406.5 1518.5 c 128,-1,8
 -391 1535 -391 1535 -391 1558 c 0,9,10
 -391 1583 -391 1583 -407.5 1598.5 c 128,-1,11
 -424 1614 -424 1614 -447 1614 c 0,0,1
-562 1853 m 0,12,13
 -453 1853 -453 1853 -365.5 1887.5 c 128,-1,14
 -278 1922 -278 1922 -246 1988 c 1,15,-1
 -214 1875 l 1,16,17
 -302 1745 -302 1745 -638 1742 c 0,18,19
 -684 1742 -684 1742 -726 1734.5 c 128,-1,20
 -768 1727 -768 1727 -809.5 1710.5 c 128,-1,21
 -851 1694 -851 1694 -875.5 1662 c 128,-1,22
 -900 1630 -900 1630 -900 1585 c 0,23,24
 -900 1513 -900 1513 -838 1486 c 1,25,-1
 -836 1515 l 2,26,27
 -835 1524 -835 1524 -830 1536.5 c 128,-1,28
 -825 1549 -825 1549 -813.5 1566 c 128,-1,29
 -802 1583 -802 1583 -779 1594 c 128,-1,30
 -756 1605 -756 1605 -725 1605 c 0,31,32
 -698 1605 -698 1605 -644 1554 c 128,-1,33
 -590 1503 -590 1503 -570 1495 c 1,34,35
 -585 1532 -585 1532 -585 1564 c 0,36,37
 -585 1620 -585 1620 -544.5 1653.5 c 128,-1,38
 -504 1687 -504 1687 -443 1687 c 0,39,40
 -391 1687 -391 1687 -352 1651 c 128,-1,41
 -313 1615 -313 1615 -313 1561 c 0,42,43
 -313 1532 -313 1532 -323.5 1500.5 c 128,-1,44
 -334 1469 -334 1469 -355.5 1438.5 c 128,-1,45
 -377 1408 -377 1408 -416.5 1388.5 c 128,-1,46
 -456 1369 -456 1369 -507 1369 c 0,47,48
 -542 1369 -542 1369 -587.5 1394 c 128,-1,49
 -633 1419 -633 1419 -670 1444 c 128,-1,50
 -707 1469 -707 1469 -722 1469 c 0,51,52
 -743 1469 -743 1469 -752.5 1447 c 128,-1,53
 -762 1425 -762 1425 -764 1399 c 128,-1,54
 -766 1373 -766 1373 -768 1370 c 0,55,56
 -907 1370 -907 1370 -962 1430 c 0,57,58
 -998 1469 -998 1469 -1011 1507 c 128,-1,59
 -1024 1545 -1024 1545 -1024 1612 c 0,60,61
 -1024 1665 -1024 1665 -997.5 1707.5 c 128,-1,62
 -971 1750 -971 1750 -935.5 1774 c 128,-1,63
 -900 1798 -900 1798 -853.5 1815 c 128,-1,64
 -807 1832 -807 1832 -780 1837.5 c 128,-1,65
 -753 1843 -753 1843 -729 1846 c 0,66,67
 -679 1853 -679 1853 -562 1853 c 0,12,13
EndSplineSet
Substitution2: "Single Substitution lookup 23 subtable" uni0E3A
Substitution2: "Single Substitution lookup 10 subtable" uni0E47.high
EndChar

StartChar: uni0E48
Encoding: 3656 3656 278
Width: 0
GlyphClass: 4
Flags: W
AnchorPoint: "Anchor-2" -268 1958 mark 0
LayerCount: 2
Fore
SplineSet
-344 2411 m 1,0,-1
 -192 2411 l 1,1,-1
 -192 2043 l 1,2,-1
 -344 2043 l 1,3,-1
 -344 2411 l 1,0,-1
EndSplineSet
Substitution2: "Single Substitution lookup 24 subtable" uni0E3A
Substitution2: "Single Substitution lookup 17 subtable" uni0E39
Substitution2: "Single Substitution lookup 11 subtable" uni0E38
Substitution2: "Single Substitution lookup 9 subtable" uni0E48.low
MultipleSubs2: "Multiple Substitution lookup 7 subtable" uni0E4D uni0E48
EndChar

StartChar: uni0E49
Encoding: 3657 3657 279
Width: 0
GlyphClass: 4
Flags: W
AnchorPoint: "Anchor-2" -274 1958 mark 0
LayerCount: 2
Fore
SplineSet
-402 2136 m 1,0,1
 -357 2143 -357 2143 -327 2151 c 128,-1,2
 -297 2159 -297 2159 -252 2178.5 c 128,-1,3
 -207 2198 -207 2198 -170.5 2227.5 c 128,-1,4
 -134 2257 -134 2257 -89 2308.5 c 128,-1,5
 -44 2360 -44 2360 -2 2430 c 1,6,-1
 46 2302 l 1,7,8
 -4 2235 -4 2235 -59.5 2184.5 c 128,-1,9
 -115 2134 -115 2134 -172 2103.5 c 128,-1,10
 -229 2073 -229 2073 -279 2054 c 128,-1,11
 -329 2035 -329 2035 -387.5 2027 c 128,-1,12
 -446 2019 -446 2019 -483.5 2016.5 c 128,-1,13
 -521 2014 -521 2014 -572 2014 c 2,14,-1
 -609 2014 l 1,15,-1
 -609 2091 l 1,16,17
 -594 2091 -594 2091 -580 2094 c 128,-1,18
 -566 2097 -566 2097 -556 2101 c 128,-1,19
 -546 2105 -546 2105 -535 2112 c 128,-1,20
 -524 2119 -524 2119 -517.5 2124.5 c 128,-1,21
 -511 2130 -511 2130 -503 2139 c 128,-1,22
 -495 2148 -495 2148 -492 2152.5 c 128,-1,23
 -489 2157 -489 2157 -483 2165.5 c 128,-1,24
 -477 2174 -477 2174 -476 2175 c 1,25,26
 -490 2169 -490 2169 -531 2169 c 0,27,28
 -584 2169 -584 2169 -621 2207.5 c 128,-1,29
 -658 2246 -658 2246 -658 2304 c 0,30,31
 -658 2359 -658 2359 -617.5 2397.5 c 128,-1,32
 -577 2436 -577 2436 -517 2436 c 0,33,34
 -472 2436 -472 2436 -439 2422.5 c 128,-1,35
 -406 2409 -406 2409 -389.5 2386.5 c 128,-1,36
 -373 2364 -373 2364 -366 2341.5 c 128,-1,37
 -359 2319 -359 2319 -359 2296 c 0,38,39
 -359 2194 -359 2194 -402 2136 c 1,0,1
-584 2300 m 0,40,41
 -584 2273 -584 2273 -564.5 2253.5 c 128,-1,42
 -545 2234 -545 2234 -516 2234 c 0,43,44
 -486 2234 -486 2234 -465.5 2253.5 c 128,-1,45
 -445 2273 -445 2273 -445 2300 c 0,46,47
 -445 2328 -445 2328 -465 2346 c 128,-1,48
 -485 2364 -485 2364 -513 2364 c 0,49,50
 -543 2364 -543 2364 -563.5 2346 c 128,-1,51
 -584 2328 -584 2328 -584 2300 c 0,40,41
EndSplineSet
Substitution2: "Single Substitution lookup 25 subtable" uni0E3A
Substitution2: "Single Substitution lookup 18 subtable" uni0E39
Substitution2: "Single Substitution lookup 12 subtable" uni0E38
Substitution2: "Single Substitution lookup 9 subtable" uni0E49.low
MultipleSubs2: "Multiple Substitution lookup 7 subtable" uni0E4D uni0E49
EndChar

StartChar: uni0E4A
Encoding: 3658 3658 280
Width: 0
GlyphClass: 4
Flags: W
AnchorPoint: "Anchor-2" -458 1958 mark 0
LayerCount: 2
Fore
SplineSet
-618 2079 m 0,0,1
 -591 2079 -591 2079 -573 2093.5 c 128,-1,2
 -555 2108 -555 2108 -555 2131 c 0,3,4
 -555 2157 -555 2157 -572.5 2174 c 128,-1,5
 -590 2191 -590 2191 -615 2191 c 0,6,7
 -641 2191 -641 2191 -659 2172.5 c 128,-1,8
 -677 2154 -677 2154 -677 2129 c 0,9,10
 -677 2107 -677 2107 -660 2093 c 128,-1,11
 -643 2079 -643 2079 -618 2079 c 0,0,1
-246 2122 m 1,12,13
 -183 2145 -183 2145 -129 2250 c 128,-1,14
 -75 2355 -75 2355 -53 2461 c 1,15,-1
 25 2373 l 1,16,17
 15 2318 15 2318 -13 2258 c 128,-1,18
 -41 2198 -41 2198 -83.5 2142 c 128,-1,19
 -126 2086 -126 2086 -188.5 2050 c 128,-1,20
 -251 2014 -251 2014 -320 2014 c 1,21,-1
 -380 2087 l 1,22,-1
 -350 2126 l 2,23,24
 -304 2189 -304 2189 -304 2233 c 0,25,26
 -304 2246 -304 2246 -306 2257.5 c 128,-1,27
 -308 2269 -308 2269 -313 2278 c 128,-1,28
 -318 2287 -318 2287 -322 2293.5 c 128,-1,29
 -326 2300 -326 2300 -334.5 2307 c 128,-1,30
 -343 2314 -343 2314 -347 2317 c 128,-1,31
 -351 2320 -351 2320 -362 2327 c 128,-1,32
 -373 2334 -373 2334 -375 2336 c 2,33,-1
 -501 2258 l 1,34,-1
 -629 2334 l 1,35,36
 -672 2317 -672 2317 -701 2278.5 c 128,-1,37
 -730 2240 -730 2240 -730 2192 c 1,38,39
 -729 2199 -729 2199 -716.5 2213.5 c 128,-1,40
 -704 2228 -704 2228 -676 2243.5 c 128,-1,41
 -648 2259 -648 2259 -615 2259 c 0,42,43
 -554 2259 -554 2259 -518.5 2222.5 c 128,-1,44
 -483 2186 -483 2186 -483 2137 c 0,45,46
 -483 2074 -483 2074 -529.5 2039 c 128,-1,47
 -576 2004 -576 2004 -651 2004 c 0,48,49
 -718 2004 -718 2004 -769 2059.5 c 128,-1,50
 -820 2115 -820 2115 -820 2194 c 0,51,52
 -820 2366 -820 2366 -629 2435 c 1,53,-1
 -494 2352 l 1,54,-1
 -371 2442 l 1,55,56
 -343 2433 -343 2433 -316 2419.5 c 128,-1,57
 -289 2406 -289 2406 -261 2384 c 128,-1,58
 -233 2362 -233 2362 -216 2329.5 c 128,-1,59
 -199 2297 -199 2297 -199 2258 c 0,60,61
 -199 2209 -199 2209 -208.5 2182.5 c 128,-1,62
 -218 2156 -218 2156 -246 2122 c 1,12,13
EndSplineSet
Substitution2: "Single Substitution lookup 26 subtable" uni0E3A
Substitution2: "Single Substitution lookup 19 subtable" uni0E39
Substitution2: "Single Substitution lookup 13 subtable" uni0E38
Substitution2: "Single Substitution lookup 9 subtable" uni0E4A.low
MultipleSubs2: "Multiple Substitution lookup 7 subtable" uni0E4D uni0E4A
EndChar

StartChar: uni0E4B
Encoding: 3659 3659 281
Width: 0
GlyphClass: 4
Flags: W
AnchorPoint: "Anchor-2" -377 1958 mark 0
LayerCount: 2
Fore
SplineSet
-164 2151 m 1,0,-1
 -301 2151 l 1,1,-1
 -301 2014 l 1,2,-1
 -453 2014 l 1,3,-1
 -453 2151 l 1,4,-1
 -590 2151 l 1,5,-1
 -590 2303 l 1,6,-1
 -453 2303 l 1,7,-1
 -453 2440 l 1,8,-1
 -301 2440 l 1,9,-1
 -301 2303 l 1,10,-1
 -164 2303 l 1,11,-1
 -164 2151 l 1,0,-1
EndSplineSet
Substitution2: "Single Substitution lookup 27 subtable" uni0E3A
Substitution2: "Single Substitution lookup 20 subtable" uni0E39
Substitution2: "Single Substitution lookup 14 subtable" uni0E38
Substitution2: "Single Substitution lookup 9 subtable" uni0E4B.low
MultipleSubs2: "Multiple Substitution lookup 7 subtable" uni0E4D uni0E4B
EndChar

StartChar: uni0E4C
Encoding: 3660 3660 282
Width: 0
GlyphClass: 4
Flags: W
AnchorPoint: "Anchor-2" -455 1958 mark 0
LayerCount: 2
Fore
SplineSet
-459 2435 m 0,0,1
 -449 2435 -449 2435 -415.5 2434.5 c 128,-1,2
 -382 2434 -382 2434 -360 2434 c 0,3,4
 -95 2434 -95 2434 -6 2490 c 1,5,-1
 28 2364 l 1,6,7
 -33 2329 -33 2329 -104 2329 c 0,8,9
 -127 2329 -127 2329 -174 2333.5 c 128,-1,10
 -221 2338 -221 2338 -246 2338 c 0,11,12
 -283 2338 -283 2338 -311 2332 c 1,13,-1
 -293 2314 l 2,14,15
 -275 2296 -275 2296 -269 2274.5 c 128,-1,16
 -263 2253 -263 2253 -263 2206 c 0,17,18
 -263 2138 -263 2138 -321 2076 c 128,-1,19
 -379 2014 -379 2014 -476 2014 c 0,20,21
 -538 2014 -538 2014 -583.5 2034 c 128,-1,22
 -629 2054 -629 2054 -652 2086.5 c 128,-1,23
 -675 2119 -675 2119 -685 2150.5 c 128,-1,24
 -695 2182 -695 2182 -695 2213 c 0,25,26
 -695 2245 -695 2245 -681 2282 c 128,-1,27
 -667 2319 -667 2319 -639.5 2354 c 128,-1,28
 -612 2389 -612 2389 -564.5 2412 c 128,-1,29
 -517 2435 -517 2435 -459 2435 c 0,0,1
-480 2117 m 0,30,31
 -438 2117 -438 2117 -408.5 2142 c 128,-1,32
 -379 2167 -379 2167 -379 2212 c 0,33,34
 -379 2315 -379 2315 -476 2315 c 0,35,36
 -525 2315 -525 2315 -554 2287 c 128,-1,37
 -583 2259 -583 2259 -583 2209 c 0,38,39
 -583 2168 -583 2168 -553.5 2142.5 c 128,-1,40
 -524 2117 -524 2117 -480 2117 c 0,30,31
EndSplineSet
Substitution2: "Single Substitution lookup 28 subtable" uni0E3A
Substitution2: "Single Substitution lookup 21 subtable" uni0E39
Substitution2: "Single Substitution lookup 15 subtable" uni0E38
Substitution2: "Single Substitution lookup 9 subtable" uni0E4C.low
MultipleSubs2: "Multiple Substitution lookup 7 subtable" uni0E4D uni0E4C
EndChar

StartChar: uni0E4D
Encoding: 3661 3661 283
Width: 0
GlyphClass: 4
Flags: W
AnchorPoint: "Anchor-2" -478 1958 basemark 0
AnchorPoint: "Anchor-1" -243 1319 mark 0
LayerCount: 2
Fore
SplineSet
-719 1554 m 0,0,1
 -719 1656 -719 1656 -648.5 1726 c 128,-1,2
 -578 1796 -578 1796 -478 1796 c 0,3,4
 -379 1796 -379 1796 -309.5 1726 c 128,-1,5
 -240 1656 -240 1656 -240 1554 c 0,6,7
 -240 1456 -240 1456 -309 1386 c 128,-1,8
 -378 1316 -378 1316 -478 1316 c 0,9,10
 -580 1316 -580 1316 -649.5 1386 c 128,-1,11
 -719 1456 -719 1456 -719 1554 c 0,0,1
-586 1554 m 0,12,13
 -586 1514 -586 1514 -555 1483 c 128,-1,14
 -524 1452 -524 1452 -480 1452 c 0,15,16
 -440 1452 -440 1452 -406.5 1482.5 c 128,-1,17
 -373 1513 -373 1513 -373 1554 c 0,18,19
 -373 1600 -373 1600 -404.5 1629.5 c 128,-1,20
 -436 1659 -436 1659 -480 1659 c 0,21,22
 -528 1659 -528 1659 -557 1628.5 c 128,-1,23
 -586 1598 -586 1598 -586 1554 c 0,12,13
EndSplineSet
Substitution2: "Single Substitution lookup 29 subtable" uni0E3A
Substitution2: "Single Substitution lookup 22 subtable" uni0E39
Substitution2: "Single Substitution lookup 16 subtable" uni0E38
Substitution2: "Single Substitution lookup 10 subtable" uni0E4D.high
EndChar

StartChar: uni0E4E
Encoding: 3662 3662 284
Width: 0
GlyphClass: 4
Flags: W
AnchorPoint: "Anchor-1" -140 1227 mark 0
LayerCount: 2
Fore
SplineSet
-517 1724 m 0,0,1
 -517 1790 -517 1790 -459 1839 c 128,-1,2
 -401 1888 -401 1888 -276 1888 c 0,3,4
 -196 1888 -196 1888 -99 1865 c 1,5,-1
 -99 1753 l 1,6,7
 -194 1777 -194 1777 -267 1777 c 0,8,9
 -394 1777 -394 1777 -394 1718 c 0,10,11
 -394 1650 -394 1650 -235 1650 c 2,12,-1
 -165 1650 l 1,13,-1
 -165 1538 l 1,14,-1
 -230 1538 l 2,15,16
 -417 1538 -417 1538 -417 1478 c 0,17,18
 -417 1446 -417 1446 -358.5 1426 c 128,-1,19
 -300 1406 -300 1406 -210 1406 c 2,20,-1
 -132 1406 l 1,21,-1
 -132 1296 l 1,22,-1
 -216 1296 l 2,23,24
 -366 1296 -366 1296 -453 1347 c 128,-1,25
 -540 1398 -540 1398 -540 1468 c 0,26,27
 -540 1513 -540 1513 -508 1548.5 c 128,-1,28
 -476 1584 -476 1584 -431 1595 c 1,29,30
 -517 1639 -517 1639 -517 1724 c 0,0,1
EndSplineSet
EndChar

